<svg width="26" height="20" fill="none" xmlns="http://www.w3.org/2000/svg"><path d="M19.637 12.458a3.281 3.281 0 00-3.278 3.277 3.28 3.28 0 003.278 3.278 3.28 3.28 0 003.277-3.278 3.281 3.281 0 00-3.277-3.277zm0 4.916a1.64 1.64 0 01-1.639-1.639 1.64 1.64 0 011.639-1.638 1.64 1.64 0 011.638 1.638 1.64 1.64 0 01-1.638 1.639zM8.44 12.458a3.281 3.281 0 00-3.278 3.277 3.28 3.28 0 003.277 3.278 3.28 3.28 0 003.278-3.278 3.281 3.281 0 00-3.278-3.277zm0 4.916a1.64 1.64 0 01-1.64-1.639 1.64 1.64 0 011.64-1.638 1.64 1.64 0 011.638 1.638 1.64 1.64 0 01-1.639 1.639zM21.844 3.077a.82.82 0 00-.732-.451h-4.315v1.639h3.81l2.23 4.437 1.465-.736-2.458-4.889z" fill="#212121"/><path d="M17.178 14.943h-6.2v1.639h6.2v-1.639zm-11.198 0H3.14a.82.82 0 100 1.639h2.84a.82.82 0 100-1.639zm19.848-5.009L24.216 7.86a.818.818 0 00-.647-.317h-5.954V1.807a.82.82 0 00-.819-.82H3.141a.82.82 0 100 1.639h12.836V8.36c0 .453.366.82.819.82h6.372l1.193 1.537v4.225h-2.267a.82.82 0 100 1.639h3.086a.82.82 0 00.82-.82v-5.325a.82.82 0 00-.172-.503zm-19.902.858H2.157a.82.82 0 100 1.639h3.77a.82.82 0 100-1.639zM7.81 7.57H.82a.82.82 0 100 1.638h6.99a.82.82 0 100-1.639z" fill="#212121"/><path d="M9.149 4.347H2.157a.82.82 0 100 1.638H9.15a.82.82 0 100-1.638z" fill="#212121"/></svg>