<svg width="25" height="25" fill="none" xmlns="http://www.w3.org/2000/svg"><path d="M12.5 5.707a4.246 4.246 0 100 8.492 4.246 4.246 0 000-8.492zm0 6.793a2.548 2.548 0 110-5.095 2.548 2.548 0 010 5.095z" fill="#212121"/><path d="M12.5 0A12.5 12.5 0 1025 12.5 12.515 12.515 0 0012.5 0zM7.143 21.765v-1.23a2.681 2.681 0 012.678-2.678h5.358a2.681 2.681 0 012.678 2.679v1.23a10.624 10.624 0 01-10.714 0zm12.493-1.295a4.466 4.466 0 00-4.457-4.399H9.82a4.466 4.466 0 00-4.457 4.399 10.714 10.714 0 1114.272 0z" fill="#212121"/></svg>