<svg width="25" height="25" fill="none" xmlns="http://www.w3.org/2000/svg"><g clip-path="url(#clip0_434_8845)" fill="#212121"><path d="M22.754 8.594H18.75V1.759c0-.613-.312-1.172-.834-1.495a1.747 1.747 0 00-1.731-.066L1.694 7.997A3.216 3.216 0 000 10.832v11.922A2.249 2.249 0 002.246 25h20.508A2.249 2.249 0 0025 22.754V10.84a2.249 2.249 0 00-2.246-2.246zM16.91 1.581a.187.187 0 01.184.012.187.187 0 01.092.166v6.835H3.881l13.03-7.013zm6.526 21.173a.684.684 0 01-.683.683H2.246a.684.684 0 01-.684-.683V10.84c0-.377.307-.684.684-.684h20.508c.377 0 .683.307.683.684v11.914z"/><path d="M20.313 18.36a1.564 1.564 0 010-3.126c.861 0 1.562.701 1.562 1.563 0 .861-.701 1.562-1.563 1.562zm0-1.563z"/></g><defs><clipPath id="clip0_434_8845"><path fill="#fff" d="M0 0h25v25H0z"/></clipPath></defs></svg>