<svg width="29" height="27" fill="none" xmlns="http://www.w3.org/2000/svg"><path d="M12.12 24.923c0 .41-.119.812-.341 1.154a2.033 2.033 0 01-.906.765c-.37.157-.776.198-1.168.118a2.004 2.004 0 01-1.034-.568 2.096 2.096 0 01-.553-1.064 2.131 2.131 0 01.115-1.2c.153-.38.412-.704.744-.932a1.98 1.98 0 012.55.258c.38.39.592.918.592 1.47zm11.109-2.077c-.4 0-.79.122-1.122.35a2.066 2.066 0 00-.744.932 2.13 2.13 0 00-.115 1.2c.078.403.27.773.553 1.064.282.29.642.488 1.034.568.392.08.798.04 1.167-.118.369-.157.684-.423.906-.765a2.12 2.12 0 00-.25-2.623 1.992 1.992 0 00-1.43-.608zm5.732-16.33L25.63 18.51a3.13 3.13 0 01-1.091 1.628 2.988 2.988 0 01-1.823.631H10.613a2.988 2.988 0 01-1.823-.63 3.132 3.132 0 01-1.09-1.63L4.373 6.537a1.046 1.046 0 01-.01-.038l-1.23-4.421H1.01a.996.996 0 01-.714-.304A1.053 1.053 0 010 1.038C0 .763.106.498.296.304A.996.996 0 011.01 0h2.124c.438.001.865.149 1.215.42.35.272.605.653.727 1.086L6.1 5.192h21.89a1.009 1.009 0 01.806.413 1.054 1.054 0 01.165.911zm-2.31.753H6.677l2.965 10.67c.061.217.189.407.364.543.175.136.388.21.607.21h12.102c.22 0 .433-.074.608-.21s.302-.326.363-.543l2.965-10.67z" fill="#DE2747"/></svg>