<svg width="66" height="66" fill="none" xmlns="http://www.w3.org/2000/svg"><path d="M40 .302a40.104 40.104 0 00-22.08 6.614A39.356 39.356 0 003.282 24.529 38.789 38.789 0 001.02 47.204a39.096 39.096 0 0010.877 20.094 39.903 39.903 0 0020.35 10.74c7.71 1.515 15.7.738 22.962-2.233a39.64 39.64 0 0017.837-14.454 38.897 38.897 0 006.698-21.804 38.819 38.819 0 00-3.025-15.018 39.215 39.215 0 00-8.616-12.732A39.78 39.78 0 0055.21 3.289 40.182 40.182 0 0040 .302zm-13.91 17.66a8.02 8.02 0 014.416 1.323 7.87 7.87 0 012.928 3.523 7.758 7.758 0 01.452 4.535 7.818 7.818 0 01-2.176 4.018 7.98 7.98 0 01-4.07 2.149 8.043 8.043 0 01-4.592-.447 7.928 7.928 0 01-3.567-2.89 7.78 7.78 0 01-1.34-4.362 7.8 7.8 0 012.328-5.55 8 8 0 015.62-2.299zm.823 40.058a3.976 3.976 0 01-1.29.88 4.017 4.017 0 01-4.38-.831 3.924 3.924 0 01-.867-1.29 3.882 3.882 0 01.917-4.308l31.795-31.396a3.976 3.976 0 011.29-.88 4.019 4.019 0 014.379.83c.373.37.668.808.868 1.29a3.882 3.882 0 01-.917 4.309L26.913 58.02zm26.997 3.112a8.02 8.02 0 01-4.416-1.323 7.871 7.871 0 01-2.927-3.522 7.758 7.758 0 01-.453-4.535 7.819 7.819 0 012.176-4.019 7.98 7.98 0 014.07-2.148 8.043 8.043 0 014.592.447 7.929 7.929 0 013.568 2.89 7.78 7.78 0 011.34 4.361 7.8 7.8 0 01-2.329 5.55 8 8 0 01-5.62 2.3z" fill="#DE2747"/></svg>