<svg width="21" height="21" fill="none" xmlns="http://www.w3.org/2000/svg"><path d="M10.5 1.313c-4.331 0-7.875 3.478-7.875 7.809v2.69a3.25 3.25 0 003.281 3.282c.394 0 .657-.263.657-.656v-5.25c0-.394-.263-.657-.657-.657-.722 0-1.443.263-1.968.656v-.13c0-3.545 2.953-6.432 6.562-6.432 3.61 0 6.563 2.888 6.563 6.497v.066a3.374 3.374 0 00-1.97-.657c-.393 0-.655.263-.655.656v5.25c0 .394.262.657.656.657.46 0 .918-.131 1.312-.263-.656 1.378-1.837 2.428-3.281 3.019v-.131c0-.394-.262-.657-.656-.657H10.5c-.394 0-.656.263-.656.657v1.312c0 .394.262.657.656.657 4.331 0 7.875-3.413 7.875-7.613V9.122c0-4.331-3.544-7.81-7.875-7.81z" fill="#000"/></svg>