<svg width="24" height="20" fill="none" xmlns="http://www.w3.org/2000/svg"><g clip-path="url(#clip0_290_4061)" stroke="#000" stroke-width="1.5" stroke-linecap="round" stroke-linejoin="round"><path d="M23.333 11.332v4c0 1.733-4.178 4-9.333 4s-9.333-2.267-9.333-4v-3.333"/><path d="M5.059 12.344c1.153 1.53 4.72 2.966 8.941 2.966 5.155 0 9.334-2.14 9.334-3.98 0-1.034-1.316-2.166-3.382-2.96"/><path d="M19.333 4.666v4c0 1.733-4.178 4-9.333 4s-9.333-2.267-9.333-4v-4"/><path clip-rule="evenodd" d="M10 8.645c5.155 0 9.333-2.142 9.333-3.982 0-1.841-4.178-3.997-9.333-3.997S.667 2.822.667 4.663c0 1.84 4.178 3.982 9.333 3.982z"/></g><defs><clipPath id="clip0_290_4061"><path fill="#fff" d="M0 0h24v20H0z"/></clipPath></defs></svg>