<svg width="22" height="22" fill="none" xmlns="http://www.w3.org/2000/svg"><path d="M11 5.906a5.094 5.094 0 100 10.188 5.094 5.094 0 000-10.188zm0 8.859a3.765 3.765 0 110-7.53 3.765 3.765 0 010 7.53zM15.873.148H6.128a5.987 5.987 0 00-5.98 5.98v9.744a5.987 5.987 0 005.98 5.98h9.745a5.987 5.987 0 005.98-5.98V6.128a5.987 5.987 0 00-5.98-5.98zm4.65 15.724a4.656 4.656 0 01-4.65 4.651H6.128a4.656 4.656 0 01-4.65-4.65V6.127a4.656 4.656 0 014.65-4.651h9.745a4.656 4.656 0 014.65 4.65v9.745zm-2.657-10.63a1.107 1.107 0 11-2.214 0 1.107 1.107 0 012.214 0z" fill="#DE2747"/><path fill-rule="evenodd" clip-rule="evenodd" d="M6.128 0h9.744A6.135 6.135 0 0122 6.128v9.744A6.135 6.135 0 0115.873 22H6.128A6.135 6.135 0 010 15.873V6.128A6.135 6.135 0 016.128 0zm0 .296A5.839 5.839 0 00.296 6.128v9.744a5.839 5.839 0 005.832 5.832h9.744a5.838 5.838 0 005.832-5.832V6.128A5.838 5.838 0 0015.872.296H6.128zm0 1.033h9.744a4.804 4.804 0 014.8 4.799v9.744a4.804 4.804 0 01-4.8 4.8H6.129a4.804 4.804 0 01-4.8-4.8V6.129a4.804 4.804 0 014.8-4.8zm9.744.296H6.128a4.508 4.508 0 00-4.503 4.503v9.744a4.508 4.508 0 004.503 4.503h9.744a4.508 4.508 0 004.503-4.503V6.128a4.508 4.508 0 00-4.503-4.503zm.886 2.657a.96.96 0 100 1.919.96.96 0 000-1.919zm1.256.96a1.257 1.257 0 00-2.416-.48 1.256 1.256 0 102.415.48zm-9.926 1.4a5.242 5.242 0 115.824 8.716 5.242 5.242 0 01-5.824-8.716zM11 6.054a4.946 4.946 0 100 9.892 4.946 4.946 0 000-9.892zm1.384 1.604a3.617 3.617 0 10-2.768 6.684 3.617 3.617 0 002.768-6.684zM11 14.913A3.917 3.917 0 0014.913 11 3.913 3.913 0 1011 14.913z" fill="#DE2747"/></svg>