<svg width="58" height="60" fill="none" xmlns="http://www.w3.org/2000/svg"><path d="M13.46 6.013v-.018a.431.431 0 00-.717.135l-.002.006h0l-1.908 4.282-.002.004h0a.438.438 0 00.208.584.43.43 0 00.223.037l2.197-5.03zm0 0l.028.039 2.74 3.803h0l.003.005a.436.436 0 01-.31.704h0-.006l-4.653.48 2.197-5.031zm-2.019-4.78l-5.11 11.45a1.322 1.322 0 00.663 1.796c.219.093.46.126.695.093l12.424-1.285a1.31 1.31 0 001.114-.776 1.323 1.323 0 00-.163-1.35L13.75.995a1.316 1.316 0 00-1.225-.579 1.31 1.31 0 00-1.084.816z" fill="#DE2747" stroke="#DE2747" stroke-width=".3"/><path d="M4.006 30.332v0a1.323 1.323 0 00-.801-1.252 1.308 1.308 0 00-.512-.104s0 0 0 0h-.53a1.31 1.31 0 00-.929.386 1.321 1.321 0 00-.384.932v.257a28.669 28.669 0 004.79 15.886 28.485 28.485 0 0012.77 10.535A28.345 28.345 0 0034.86 58.6a28.42 28.42 0 0014.575-7.825 28.589 28.589 0 006.171-9.274 28.689 28.689 0 000-21.878 28.588 28.588 0 00-6.17-9.273l-.257-.258v.01A28.466 28.466 0 0033.82 2.347 28.402 28.402 0 0016.49 5.03l-.157.08.103.142 1.699 2.337.073.101.113-.054a25.215 25.215 0 0115.918-2.04 25.288 25.288 0 0113.941 7.983 25.512 25.512 0 012.585 30.463 25.338 25.338 0 01-12.394 10.237 25.21 25.21 0 01-16.032.695A25.312 25.312 0 019.112 45.85a25.497 25.497 0 01-5.106-15.28s0 0 0 0h0v-.001 0-.001 0-.001 0-.001 0-.001 0-.001 0-.001 0-.001 0-.001 0-.001 0-.001 0-.001 0-.001 0-.001 0-.001 0-.001 0-.001 0-.001 0-.001 0-.001 0-.001 0-.001 0-.001 0-.001 0-.001 0-.001 0-.001 0-.001 0-.001 0-.001 0-.001 0-.001 0-.001 0-.001 0-.001 0-.001 0-.001 0-.001 0-.001 0-.001 0-.001 0-.001 0-.001 0-.001 0-.001 0-.001 0-.001 0-.001 0-.001 0-.001 0-.001 0-.001 0-.001 0-.001 0-.001 0-.001 0-.001 0-.001 0-.001 0-.001 0-.001 0-.001 0-.001 0-.001 0-.001 0-.001 0-.001 0-.001 0-.001 0-.001 0-.001 0-.001 0-.001 0-.001 0-.001 0-.001 0-.001 0-.001 0-.001 0-.001 0-.001 0-.001 0-.001 0-.001 0-.001 0-.001 0-.001 0-.001 0-.001 0-.001 0-.001 0-.001 0-.001 0-.001 0-.001 0-.001 0-.001 0-.001 0-.001 0-.001 0-.001 0-.001 0-.001 0-.001 0-.001 0-.001 0-.001 0-.001 0-.001 0-.001 0-.001 0-.001 0-.001 0-.001 0-.001 0-.001 0-.001 0-.001 0-.001 0-.001 0-.001 0-.001 0-.001 0-.001 0-.001 0-.001 0-.001 0-.001 0-.001 0-.001 0-.001 0-.001 0-.001 0-.001 0-.001 0-.001 0-.001 0-.001 0-.001 0-.001 0-.001 0-.001 0-.001 0-.001 0-.001 0-.001 0-.001 0-.001 0-.001 0-.001 0-.001 0-.001 0-.001 0-.001 0-.001 0-.001 0-.001 0-.001 0-.001 0-.001 0-.001 0-.001 0-.001 0-.001 0-.001 0-.001 0-.001 0-.001 0-.001 0-.001 0-.001 0-.001 0-.001 0-.001 0-.001 0-.001 0-.001 0-.001 0-.001 0-.001 0-.001 0-.001 0-.001 0-.001 0-.001 0-.001 0-.001 0-.001 0-.001 0-.001 0-.001 0-.001 0-.001 0-.001 0-.001 0-.001 0-.001 0-.001 0-.001 0-.001 0-.001 0-.001 0-.001 0-.001 0-.001 0-.001 0-.001 0-.001 0-.001 0-.001 0-.001 0-.001 0-.001 0-.001 0-.001 0-.001 0-.001 0-.001 0-.001 0-.001 0-.001 0-.001 0-.001 0-.001 0-.001 0-.001 0-.001 0-.001 0-.001 0-.001 0-.001 0-.001 0-.001 0-.001 0-.001 0-.001 0-.001z" fill="#DE2747" stroke="#DE2747" stroke-width=".3"/><path d="M37.253 23.127a1.16 1.16 0 01-1.163-.987 6.235 6.235 0 00-2.1-3.752 6.184 6.184 0 00-8.043 0 6.234 6.234 0 00-2.1 3.752 1.17 1.17 0 01-1.164.987h-7.56a1.158 1.158 0 00-.88.392 1.171 1.171 0 00-.284.922l2.094 14.166a7.019 7.019 0 002.31 4.373 6.962 6.962 0 004.611 1.749h13.96a6.962 6.962 0 004.61-1.75 7.02 7.02 0 002.31-4.372l2.095-14.166a1.172 1.172 0 00-.682-1.213 1.158 1.158 0 00-.482-.101h-7.532zm-7.27-3.412a3.41 3.41 0 012.145.764 3.437 3.437 0 011.193 1.947.586.586 0 01-.581.7h-5.526a.58.58 0 01-.576-.44.586.586 0 01-.005-.26c.164-.77.586-1.46 1.196-1.954a3.41 3.41 0 012.154-.763v.006zm6.572 22.198H23.41a4.641 4.641 0 01-3.075-1.17 4.68 4.68 0 01-1.537-2.919l-1.745-11.256a.588.588 0 01.34-.61.58.58 0 01.242-.05h24.661a.58.58 0 01.561.413c.024.08.031.164.02.246l-1.744 11.257a4.68 4.68 0 01-1.521 2.915 4.642 4.642 0 01-3.057 1.186v-.012z" fill="#DE2747"/><path d="M30.116 29.716h-.465c-.642 0-1.163.523-1.163 1.168v5.953c0 .645.52 1.168 1.163 1.168h.465c.643 0 1.164-.523 1.164-1.168v-5.953c0-.645-.521-1.168-1.164-1.168zm5.113 0h-.465c-.643 0-1.164.523-1.164 1.168v5.953c0 .645.521 1.168 1.164 1.168h.465c.642 0 1.163-.523 1.163-1.168v-5.953c0-.645-.52-1.168-1.163-1.168zm-10.231 0h-.466c-.642 0-1.163.523-1.163 1.168v5.953c0 .645.521 1.168 1.163 1.168h.466c.642 0 1.163-.523 1.163-1.168v-5.953c0-.645-.52-1.168-1.163-1.168z" fill="#DE2747"/></svg>