<svg width="50" height="64" fill="none" xmlns="http://www.w3.org/2000/svg"><path d="M50 25.343C50 11.366 38.784 0 25 0S0 11.366 0 25.343a25.413 25.413 0 0012.89 22.161v14.614c0 .687.371 1.32.965 1.65a1.837 1.837 0 001.891-.066L25 57.71l9.254 5.995a1.841 1.841 0 001.891.066 1.89 1.89 0 00.965-1.65V47.507A25.422 25.422 0 0050 25.343zM33.396 58.679L26 53.89a1.846 1.846 0 00-2 0l-7.396 4.79v-9.471A24.614 24.614 0 0025 50.679c2.943 0 5.772-.52 8.396-1.471v9.471zm1.34-14.155a1.848 1.848 0 00-.59.298 20.928 20.928 0 01-9.15 2.096c-3.273 0-6.374-.753-9.147-2.096a1.848 1.848 0 00-.591-.298C8.405 40.934 3.71 33.682 3.71 25.34 3.717 13.446 13.264 3.765 25 3.765s21.283 9.681 21.283 21.578c0 8.342-4.695 15.592-11.547 19.18zm.666-26.773a1.9 1.9 0 010 2.66L23.05 32.931a1.842 1.842 0 01-1.312.553c-.473 0-.95-.185-1.312-.552L14.88 27.31a1.9 1.9 0 010-2.66 1.843 1.843 0 012.627 0l4.231 4.285 11.04-11.188a1.836 1.836 0 012.624.004z" fill="#DE2747"/></svg>