<svg width="58" height="60" fill="none" xmlns="http://www.w3.org/2000/svg"><path d="M6.994 14.479c.219.093.46.126.695.093l12.424-1.285a1.31 1.31 0 001.114-.776 1.323 1.323 0 00-.163-1.35L13.75.995a1.316 1.316 0 00-1.225-.579 1.31 1.31 0 00-1.084.816l-5.11 11.45a1.322 1.322 0 00.663 1.796zm6.466-8.484v.018l.028.039 2.74 3.803h0l.003.005a.436.436 0 01-.31.704h0-.006l-4.653.48s0 0 0 0a.429.429 0 01-.473-.398.438.438 0 01.042-.224h0l.002-.004 1.907-4.282h0l.003-.006a.434.434 0 01.344-.27.43.43 0 01.373.135z" fill="#DE2747" stroke="#DE2747" stroke-width=".3"/><path d="M4.006 30.569v-.238a1.323 1.323 0 00-.801-1.25 1.308 1.308 0 00-.512-.105s0 0 0 0h-.53a1.31 1.31 0 00-.929.386 1.321 1.321 0 00-.384.932v.257a28.669 28.669 0 004.79 15.886 28.485 28.485 0 0012.77 10.535A28.345 28.345 0 0034.86 58.6a28.42 28.42 0 0014.575-7.825 28.59 28.59 0 006.171-9.274 28.689 28.689 0 000-21.878 28.588 28.588 0 00-6.17-9.273l-.257-.258v.01A28.466 28.466 0 0033.82 2.347 28.402 28.402 0 0016.49 5.03l-.157.08.103.142 1.699 2.337.073.101.113-.054a25.215 25.215 0 0115.918-2.04 25.288 25.288 0 0113.941 7.983 25.512 25.512 0 012.585 30.463 25.338 25.338 0 01-12.394 10.237 25.21 25.21 0 01-16.032.695A25.312 25.312 0 019.112 45.85a25.497 25.497 0 01-5.106-15.28s0 0 0 0z" fill="#DE2747" stroke="#DE2747" stroke-width=".3"/><path d="M37.251 22.977h7.534v.15a1.158 1.158 0 01.879.392 1.17 1.17 0 01.285.922l-8.698-1.464zm0 0a1.01 1.01 0 01-1.013-.86v-.001a6.384 6.384 0 00-2.15-3.842 6.334 6.334 0 00-8.239 0 6.384 6.384 0 00-2.15 3.842h0a1.02 1.02 0 01-1.014.86v0h-7.562m22.128 0l6.752 15.651a7.17 7.17 0 01-2.36 4.465 7.112 7.112 0 01-4.71 1.787h0-13.959 0a7.112 7.112 0 01-4.71-1.787 7.17 7.17 0 01-2.36-4.465L13.81 24.463v-.003h0a1.323 1.323 0 01.77-1.37 1.31 1.31 0 01.543-.113m0 0s0 0 0 0v.15-.15h0zm8.325-.126a1.16 1.16 0 01-.765.276l13.407-.987a6.235 6.235 0 00-2.1-3.752 6.184 6.184 0 00-8.043 0 6.234 6.234 0 00-2.1 3.752 1.17 1.17 0 01-.399.711zm6.385-2.988v.002h.15a3.26 3.26 0 012.05.73 3.29 3.29 0 011.142 1.861.435.435 0 01-.432.52v0h-5.529v0h-.003a.43.43 0 01-.427-.327.435.435 0 01-.005-.193 3.287 3.287 0 011.144-1.868 3.261 3.261 0 011.91-.725zm9.679 20.765a4.492 4.492 0 01-2.807 1.143v-.008H23.41a4.492 4.492 0 01-2.975-1.132 4.53 4.53 0 01-1.488-2.825h0V37.8l-1.745-11.255a.438.438 0 01.252-.451.43.43 0 01.18-.038h24.663a.43.43 0 01.417.307.436.436 0 01.015.182L40.984 37.8h0v.005a4.53 4.53 0 01-1.472 2.822z" fill="#DE2747" stroke="#DE2747" stroke-width=".3"/><path d="M30.116 29.566h-.465c-.726 0-1.313.59-1.313 1.318v5.953c0 .727.587 1.318 1.313 1.318h.465c.726 0 1.314-.59 1.314-1.318v-5.953c0-.727-.588-1.318-1.314-1.318zm5.113 0h-.465c-.726 0-1.314.59-1.314 1.318v5.953c0 .727.588 1.318 1.314 1.318h.465c.726 0 1.313-.59 1.313-1.318v-5.953c0-.727-.587-1.318-1.313-1.318zm-10.231 0h-.466c-.726 0-1.313.59-1.313 1.318v5.953c0 .727.587 1.318 1.313 1.318h.466c.726 0 1.313-.59 1.313-1.318v-5.953c0-.727-.587-1.318-1.313-1.318z" fill="#DE2747" stroke="#DE2747" stroke-width=".3"/></svg>