<svg width="93" height="74" fill="none" xmlns="http://www.w3.org/2000/svg"><g filter="url(#filter0_d_1342_11062)"><path d="M40.478 56.538a3.5 3.5 0 01-.575 1.924 3.425 3.425 0 01-1.532 1.274 3.366 3.366 0 01-1.972.198 3.399 3.399 0 01-1.748-.948 3.477 3.477 0 01-.934-1.772 3.507 3.507 0 01.195-2 3.451 3.451 0 011.257-1.554 3.378 3.378 0 014.309.43c.64.65 1 1.53 1 2.448zm18.77-3.461a3.38 3.38 0 00-1.895.583c-.562.38-.999.921-1.257 1.554a3.507 3.507 0 00-.194 2c.131.671.456 1.288.934 1.772a3.399 3.399 0 001.747.948 3.368 3.368 0 001.972-.197 3.424 3.424 0 001.532-1.275 3.497 3.497 0 00-.425-4.371 3.389 3.389 0 00-2.413-1.014zm9.686-27.217l-5.63 19.99a5.216 5.216 0 01-1.843 2.714 5.094 5.094 0 01-3.08 1.051H37.932a5.094 5.094 0 01-3.08-1.051 5.215 5.215 0 01-1.842-2.715l-5.622-19.956a1.58 1.58 0 01-.018-.064l-2.075-7.367h-3.589c-.452 0-.886-.183-1.206-.507a1.745 1.745 0 010-2.448c.32-.325.754-.507 1.206-.507h3.589a3.396 3.396 0 012.053.701 3.477 3.477 0 011.229 1.81l1.73 6.143h36.987a1.687 1.687 0 011.362.688 1.743 1.743 0 01.278 1.518zm-3.903 1.255H31.282l5.01 17.784c.103.36.318.678.614.904.296.227.656.35 1.026.35h20.45c.37 0 .73-.123 1.026-.35.295-.226.51-.543.614-.904l5.01-17.784z" fill="#3F4249"/><rect x="49.5" y="12.5" width="26" height="26" rx="13" fill="#DE2747"/><path d="M65.617 25.861V24.62a5.2 5.2 0 00-.111-1.096 4.17 4.17 0 00-.31-.949 3.495 3.495 0 00-.452-.697 2.56 2.56 0 00-.603-.54 2.68 2.68 0 00-.78-.357 3.171 3.171 0 00-.92-.128 3.17 3.17 0 00-.902.123 2.644 2.644 0 00-1.354.914 3.505 3.505 0 00-.439.732 4.51 4.51 0 00-.287.932 5.826 5.826 0 00-.094 1.066v1.242c0 .352.028.686.082 1.002.059.317.143.61.252.88a3.5 3.5 0 00.451.79c.18.23.383.428.61.592.23.156.486.277.767.363.282.086.588.13.92.13.313 0 .604-.04.873-.118.274-.074.524-.18.75-.316.25-.157.473-.352.668-.586a3.61 3.61 0 00.493-.774c.125-.281.22-.586.287-.914.066-.332.1-.681.1-1.049zm-1.67-1.254v1.254a5.227 5.227 0 01-.129 1.149c-.054.21-.128.4-.222.568-.09.164-.201.3-.334.41a1.11 1.11 0 01-.364.205c-.136.047-.287.07-.45.07a1.152 1.152 0 01-.82-.293 1.466 1.466 0 01-.3-.41 2.49 2.49 0 01-.187-.568 3.558 3.558 0 01-.082-.533 7.361 7.361 0 01-.024-.598v-1.254c0-.218.008-.427.024-.627.02-.199.048-.382.088-.55.05-.22.12-.41.21-.575.094-.164.208-.3.34-.41.098-.074.207-.13.328-.17a1.39 1.39 0 01.416-.058c.16 0 .305.021.434.064.133.043.252.104.357.182.133.105.248.242.346.41.098.164.176.352.234.563.047.168.08.351.1.55.023.196.035.403.035.621z" fill="#fff"/><rect x="49.5" y="12.5" width="26" height="26" rx="13" stroke="#fff"/></g><defs><filter id="filter0_d_1342_11062" x="-4" y="0" width="101" height="82" filterUnits="userSpaceOnUse" color-interpolation-filters="sRGB"><feFlood flood-opacity="0" result="BackgroundImageFix"/><feColorMatrix in="SourceAlpha" values="0 0 0 0 0 0 0 0 0 0 0 0 0 0 0 0 0 0 127 0" result="hardAlpha"/><feOffset dy="4"/><feGaussianBlur stdDeviation="2"/><feComposite in2="hardAlpha" operator="out"/><feColorMatrix values="0 0 0 0 0 0 0 0 0 0 0 0 0 0 0 0 0 0 0.25 0"/><feBlend in2="BackgroundImageFix" result="effect1_dropShadow_1342_11062"/><feBlend in="SourceGraphic" in2="effect1_dropShadow_1342_11062" result="shape"/></filter></defs></svg>