<svg width="12" height="13" fill="none" xmlns="http://www.w3.org/2000/svg"><path d="M3.75 1.446a.765.765 0 00-.53.211.709.709 0 00-.22.51c0 .192.079.376.22.511.14.136.331.212.53.212s.39-.076.53-.212a.707.707 0 00.22-.51.709.709 0 00-.22-.51.765.765 0 00-.53-.212zm-2.123 0A2.18 2.18 0 012.45.398a2.317 2.317 0 012.6 0c.38.259.668.625.822 1.048h5.378c.199 0 .39.076.53.211a.71.71 0 01.22.51.708.708 0 01-.22.511.765.765 0 01-.53.212H5.872a2.177 2.177 0 01-.822 1.048 2.317 2.317 0 01-2.6 0 2.177 2.177 0 01-.823-1.048H.75a.765.765 0 01-.53-.212.709.709 0 01-.22-.51c0-.192.079-.375.22-.51a.765.765 0 01.53-.212h.877zM8.25 5.778a.765.765 0 00-.53.211.709.709 0 00-.22.511c0 .191.079.375.22.51.14.136.331.212.53.212s.39-.076.53-.211A.71.71 0 009 6.5a.709.709 0 00-.22-.51.765.765 0 00-.53-.212zm-2.122 0c.154-.423.442-.789.822-1.048a2.317 2.317 0 012.6 0c.38.26.667.625.822 1.048h.878c.199 0 .39.076.53.211A.71.71 0 0112 6.5a.708.708 0 01-.22.51.765.765 0 01-.53.212h-.877A2.178 2.178 0 019.55 8.27a2.317 2.317 0 01-2.6 0 2.177 2.177 0 01-.822-1.048H.75a.765.765 0 01-.53-.211A.709.709 0 010 6.5c0-.191.079-.375.22-.51a.765.765 0 01.53-.212h5.378zM3.75 10.11a.765.765 0 00-.53.212.709.709 0 00-.22.51c0 .192.079.375.22.51.14.136.331.212.53.212s.39-.076.53-.211a.71.71 0 00.22-.51.709.709 0 00-.22-.511.765.765 0 00-.53-.212zm-2.123 0a2.18 2.18 0 01.823-1.048 2.317 2.317 0 012.6 0c.38.26.668.625.822 1.048h5.378a.76.76 0 01.53.212c.141.135.22.319.22.51a.709.709 0 01-.22.51.765.765 0 01-.53.212H5.872a2.178 2.178 0 01-.822 1.048 2.317 2.317 0 01-2.6 0 2.178 2.178 0 01-.823-1.048H.75a.765.765 0 01-.53-.211.709.709 0 01-.22-.51c0-.192.079-.376.22-.511a.765.765 0 01.53-.212h.877z" fill="#212121"/></svg>