<svg width="191" height="92" fill="none" xmlns="http://www.w3.org/2000/svg"><path d="M7.484 50.25l6.563 17.438 6.547-17.438h5.11V73h-3.938v-7.5l.39-10.031L15.438 73h-2.829L5.906 55.484l.39 10.016V73H2.36V50.25h5.125zm36.203 12.594h-9.343v7h10.922V73H30.39V50.25h14.765v3.188H34.344v6.28h9.343v3.126zm22.235 7.203c-.823 1.073-1.964 1.885-3.422 2.437-1.458.553-3.115.829-4.969.829-1.906 0-3.593-.433-5.062-1.297-1.469-.865-2.604-2.1-3.407-3.704-.791-1.614-1.203-3.494-1.234-5.64V60.89c0-3.438.823-6.12 2.469-8.047 1.646-1.938 3.943-2.907 6.89-2.907 2.532 0 4.542.626 6.032 1.876 1.49 1.25 2.385 3.052 2.687 5.406h-3.875c-.437-2.74-2.026-4.11-4.765-4.11-1.771 0-3.12.641-4.047 1.922-.917 1.271-1.39 3.14-1.422 5.61v1.75c0 2.458.516 4.37 1.547 5.734 1.041 1.354 2.484 2.031 4.328 2.031 2.02 0 3.458-.458 4.312-1.375v-4.453h-4.687v-3h8.625v8.719zM83 67.703h-8.813L72.344 73h-4.11l8.594-22.75h3.547L88.985 73h-4.126L83 67.703zm-7.703-3.187h6.594l-3.297-9.438-3.297 9.438zm23.078 3.53l5.781-17.796h4.344L100.312 73h-3.828l-8.156-22.75h4.328l5.719 17.797zM115.25 73h-3.938V50.25h3.938V73zM132 67.14c0-1-.354-1.77-1.062-2.312-.698-.541-1.964-1.088-3.797-1.64-1.834-.553-3.292-1.167-4.375-1.844-2.073-1.302-3.11-3-3.11-5.094 0-1.833.745-3.344 2.235-4.531 1.5-1.188 3.442-1.782 5.828-1.782 1.583 0 2.995.292 4.234.876 1.24.583 2.214 1.416 2.922 2.5a6.358 6.358 0 011.063 3.578H132c0-1.188-.375-2.115-1.125-2.782-.74-.677-1.802-1.015-3.187-1.015-1.292 0-2.297.276-3.016.828-.708.552-1.063 1.323-1.063 2.312 0 .834.386 1.532 1.157 2.094.77.552 2.041 1.094 3.812 1.625 1.771.521 3.193 1.12 4.266 1.797 1.073.667 1.859 1.438 2.359 2.313.5.864.75 1.88.75 3.046 0 1.896-.729 3.407-2.187 4.532-1.448 1.114-3.417 1.671-5.907 1.671-1.645 0-3.161-.302-4.547-.906-1.374-.614-2.447-1.458-3.218-2.531-.761-1.073-1.141-2.323-1.141-3.75h3.953c0 1.292.427 2.292 1.282 3 .854.708 2.078 1.063 3.671 1.063 1.375 0 2.407-.276 3.094-.829.698-.562 1.047-1.302 1.047-2.218zM143.594 73h-3.938V50.25h3.938V73zm23.015-10.781c0 2.229-.385 4.187-1.156 5.875-.771 1.677-1.875 2.969-3.312 3.875-1.427.896-3.073 1.344-4.938 1.344-1.844 0-3.489-.448-4.937-1.344-1.438-.906-2.552-2.193-3.344-3.86-.781-1.666-1.177-3.588-1.188-5.765v-1.282c0-2.218.391-4.177 1.172-5.874.792-1.698 1.901-2.995 3.328-3.891 1.438-.906 3.084-1.36 4.938-1.36 1.854 0 3.495.448 4.922 1.344 1.437.886 2.547 2.167 3.328 3.844.781 1.667 1.177 3.61 1.187 5.828v1.266zm-3.953-1.188c0-2.52-.479-4.453-1.437-5.797-.948-1.343-2.297-2.015-4.047-2.015-1.708 0-3.047.672-4.016 2.015-.958 1.334-1.448 3.224-1.468 5.672v1.313c0 2.5.484 4.432 1.453 5.797.979 1.364 2.333 2.046 4.062 2.046 1.75 0 3.094-.666 4.031-2 .948-1.333 1.422-3.28 1.422-5.843V61.03zM188.594 73h-3.953L174.5 56.86V73h-3.953V50.25h3.953l10.172 16.203V50.25h3.922V73zM45.27 87.364c0-2.326-1.391-3.736-3.273-3.736-1.89 0-3.278 1.41-3.278 3.736 0 2.322 1.388 3.735 3.278 3.735 1.882 0 3.274-1.41 3.274-3.735zm-1.086 0c0 1.772-.937 2.734-2.187 2.734-1.254 0-2.188-.962-2.188-2.734s.934-2.735 2.188-2.735c1.25 0 2.187.963 2.187 2.735zM49.64 91h1.097v-2.557h1.492c1.686 0 2.52-1.019 2.52-2.361 0-1.34-.826-2.355-2.517-2.355H49.64V91zm1.097-3.487v-2.845h1.378c1.087 0 1.53.59 1.53 1.414s-.443 1.43-1.516 1.43h-1.392zm7.94-2.841h2.266V91h1.094v-6.328h2.27v-.945h-5.63v.945zm10.97-.945H68.55V91h1.097v-7.273zm10.639 2.365c-.249-1.555-1.467-2.464-3.004-2.464-1.883 0-3.271 1.41-3.271 3.736 0 2.326 1.381 3.735 3.27 3.735 1.599 0 2.767-1.001 3.005-2.44l-1.108-.003c-.188.93-.97 1.442-1.89 1.442-1.246 0-2.187-.955-2.187-2.734 0-1.765.938-2.735 2.191-2.735.927 0 1.705.522 1.886 1.463h1.108zM85.163 91l.668-1.925h2.84L89.337 91H90.5l-2.618-7.273h-1.267L83.999 91h1.164zm.988-2.848l1.072-3.104h.057l1.072 3.104h-2.201zM94.55 91h4.393v-.945h-3.296v-6.328H94.55V91zm18.258-5.362h1.058c-.032-1.165-1.062-2.01-2.539-2.01-1.46 0-2.578.834-2.578 2.088 0 1.012.724 1.605 1.892 1.921l.86.234c.777.206 1.378.462 1.378 1.108 0 .71-.679 1.18-1.613 1.18-.845 0-1.548-.377-1.612-1.169h-1.101c.071 1.318 1.091 2.13 2.721 2.13 1.708 0 2.691-.898 2.691-2.13 0-1.31-1.168-1.818-2.091-2.045l-.711-.185c-.568-.146-1.324-.412-1.321-1.108 0-.618.565-1.076 1.46-1.076.834 0 1.427.39 1.506 1.062zm5.11-.966h2.265V91h1.094v-6.328h2.269v-.945h-5.628v.945zm15.887 2.692c0-2.326-1.392-3.736-3.274-3.736-1.889 0-3.278 1.41-3.278 3.736 0 2.322 1.389 3.735 3.278 3.735 1.882 0 3.274-1.41 3.274-3.735zm-1.087 0c0 1.772-.937 2.734-2.187 2.734-1.254 0-2.188-.962-2.188-2.734s.934-2.735 2.188-2.735c1.25 0 2.187.963 2.187 2.735zM138.174 91h1.097v-2.752h1.563L142.311 91h1.25l-1.612-2.944c.891-.33 1.335-1.072 1.335-2.049 0-1.339-.831-2.28-2.518-2.28h-2.592V91zm1.097-3.697v-2.635h1.378c1.083 0 1.531.515 1.531 1.34 0 .82-.448 1.295-1.517 1.295h-1.392zM147.619 91h4.603v-.945h-3.505V87.83h3.224v-.941h-3.224v-2.216h3.462v-.945h-4.56V91z" fill="#fff"/><path fill-rule="evenodd" clip-rule="evenodd" d="M115.639.45c-11.184.935-21.834 4.457-30.053 9.937-1.338.893-4.346 2.395-6.686 3.338-5.034 2.03-8.734 4.295-11.942 7.307-2.666 2.503-2.67 2.432.358 7.479 3.776 6.296 4.953 7.61 7.355 8.211 2.65.664 5.838.096 7.126-1.268.637-.675 1.004-2.506 1.552-7.745.774-7.385 1.027-8.547 1.806-8.275.277.096 1.578 3.16 2.891 6.81 1.313 3.65 2.785 7.101 3.27 7.67 1.477 1.731 3.594 2.353 8.01 2.353 4.936 0 9.89-.917 15.848-2.934 5.496-1.86 8.705-3.667 9.552-5.378.494-.996.736-4.55.966-14.186L126 .912 124.735.41c-1.395-.554-2.02-.552-9.096.04zm2.957 5.396c.484 1.884.312 15.544-.221 17.546-.719 2.707-2.578 4.286-6.524 5.543-4.347 1.386-13.226 2.763-14.918 2.314-3.15-.836-5.281-4.521-7.802-13.492-1.282-4.559-1.213-4.683 3.995-7.226 5.907-2.885 16.786-5.682 22.343-5.744 2.573-.029 2.874.074 3.127 1.06zm-37.702 14.67c.293 2.815.103 9.014-.347 11.299-.354 1.805-4.533 3.16-6.867 2.224-.868-.348-5.854-8.47-5.854-9.537 0-1.389 10.196-7.304 12.07-7.002.488.079.786.979.998 3.016z" fill="#DE2747"/></svg>