<svg width="20" height="21" fill="none" xmlns="http://www.w3.org/2000/svg"><path d="M18.384 2.609C17.337 1.433 15.951.79 14.471.79s-2.87.647-3.918 1.822l-.547.614-.555-.623C8.404 1.428 7.009.776 5.529.776c-1.476 0-2.866.648-3.91 1.818C.573 3.77-.003 5.331 0 6.992c0 1.661.58 3.217 1.628 4.393l7.963 8.938c.11.124.258.19.403.19a.541.541 0 00.402-.185l7.98-8.924C19.423 10.228 20 8.667 20 7.006c.004-1.66-.568-3.222-1.616-4.397zm-.814 7.886l-7.576 8.471-7.56-8.485c-.831-.933-1.29-2.17-1.29-3.489 0-1.318.454-2.556 1.286-3.484.826-.928 1.929-1.442 3.099-1.442 1.174 0 2.281.514 3.112 1.447L9.6 4.589a.528.528 0 00.81 0l.95-1.067c.83-.932 1.938-1.446 3.108-1.446 1.17 0 2.272.514 3.103 1.442.831.933 1.285 2.17 1.285 3.488.004 1.319-.454 2.556-1.285 3.489z" fill="#9497A3"/></svg>