<svg width="80" height="71" fill="none" xmlns="http://www.w3.org/2000/svg"><path d="M40.684.006C18.596-.371.384 17.229.006 39.316c-.214 12.524 5.368 23.78 14.255 31.265a10.633 10.633 0 011.897-1.35l11.935-6.51a4.876 4.876 0 002.54-4.279v-4.89s-3.502-4.19-4.838-10.013a4.014 4.014 0 01-1.85-3.367V34.82c0-1.178.523-2.23 1.336-2.966v-7.738s-1.589-12.04 14.717-12.04c16.307 0 14.717 12.04 14.717 12.04v7.738a3.99 3.99 0 011.338 2.965v5.353c0 1.8-1.208 3.313-2.847 3.819a29.397 29.397 0 01-3.973 8.006c-.44.62-.85 1.146-1.209 1.555v5.014a4.872 4.872 0 002.694 4.36l12.78 6.389c.768.383 1.46.868 2.099 1.406 8.619-7.188 14.187-17.935 14.394-30.037C80.37 18.596 62.773.384 40.684.006z" fill="#9497A3"/></svg>