<svg width="18" height="18" fill="none" xmlns="http://www.w3.org/2000/svg"><path d="M15.704 4.94a.52.52 0 00-.518-.487h-2.749v-.812C12.437 2.015 10.895.692 9 .692c-1.895 0-3.437 1.323-3.437 2.95v.811H2.815a.52.52 0 00-.519.487L1.56 16.756a.521.521 0 00.518.552h13.846a.52.52 0 00.519-.552L15.704 4.94zM6.601 3.641c0-1.053 1.077-1.91 2.4-1.91 1.322 0 2.398.857 2.398 1.91v.812H6.601v-.812zm-1.038 1.85V6.62a.52.52 0 001.038 0V5.492H11.4V6.62a.52.52 0 001.038 0V5.492h2.26l.45 7.2H2.854l.45-7.2h2.26zM2.63 16.27l.18-2.884h12.38l.18 2.884H2.63z" fill="#3F4249"/></svg>