<svg width="18" height="18" fill="none" xmlns="http://www.w3.org/2000/svg"><path fill="#fff" d="M0 0h18v18H0z"/><path d="M15.703 4.94a.52.52 0 00-.518-.487h-2.748v-.812c0-1.626-1.543-2.949-3.438-2.949-1.895 0-3.437 1.323-3.437 2.95v.811H2.814a.52.52 0 00-.519.487l-.737 11.816a.52.52 0 00.518.552h13.846a.52.52 0 00.519-.552L15.703 4.94zM6.601 3.641c0-1.053 1.076-1.91 2.398-1.91 1.323 0 2.399.857 2.399 1.91v.812H6.601v-.812zm-1.039 1.85V6.62a.52.52 0 001.039 0V5.492h4.797v1.127a.52.52 0 001.039 0V5.492h2.26l.45 7.2H2.851l.45-7.2h2.26zM2.63 16.27l.18-2.885h12.38l.181 2.885H2.629z" fill="#3F4249"/></svg>