<svg width="26" height="26" fill="none" xmlns="http://www.w3.org/2000/svg"><path d="M21.125 17.469l-.812-1.219c-1.3-1.95-1.95-4.306-1.95-6.662 0-2.52-1.625-4.632-3.82-5.282C14.3 3.656 13.65 3.25 13 3.25c-.65 0-1.3.406-1.544 1.056-2.193.65-3.818 2.763-3.818 5.282 0 2.356-.65 4.712-1.95 6.662l-.813 1.219c-.325.569 0 1.218.65 1.218h14.869c.65 0 1.056-.73.731-1.218zm-5.687 3.656c0 1.381-1.057 2.438-2.438 2.438-1.381 0-2.438-1.057-2.438-2.438" stroke="#3F4249" stroke-width="2" stroke-miterlimit="10" stroke-linejoin="round"/></svg>