<svg width="20" height="20" fill="none" xmlns="http://www.w3.org/2000/svg"><g clip-path="url(#clip0_1500_12010)" fill="#3F4249"><path d="M17.725 8.263a1.17 1.17 0 01-.531-1.29 2.6 2.6 0 00-3.17-3.164 1.168 1.168 0 01-1.287-.531 2.6 2.6 0 00-4.474 0 1.166 1.166 0 01-1.29.53 2.6 2.6 0 00-3.164 3.167 1.166 1.166 0 01-.531 1.288 2.6 2.6 0 000 4.473 1.169 1.169 0 01.53 1.291 2.6 2.6 0 003.167 3.164 1.169 1.169 0 011.288.531 2.6 2.6 0 004.473 0 1.172 1.172 0 011.291-.53 2.601 2.601 0 003.164-3.167 1.168 1.168 0 01.531-1.289 2.6 2.6 0 000-4.473h.003zm-.733 3.236a2.614 2.614 0 00-1.18 2.887 1.162 1.162 0 01-1.415 1.41 2.62 2.62 0 00-2.885 1.196 1.158 1.158 0 01-1.997 0 2.616 2.616 0 00-2.888-1.193 1.161 1.161 0 01-1.41-1.416A2.616 2.616 0 004.02 11.5a1.158 1.158 0 010-1.998 2.614 2.614 0 001.193-2.887 1.164 1.164 0 011.418-1.41 2.616 2.616 0 002.883-1.196 1.158 1.158 0 011.997 0 2.614 2.614 0 002.887 1.193 1.163 1.163 0 011.414 1.416A2.611 2.611 0 0017.005 9.5a1.158 1.158 0 010 1.998h-.013z"/><path d="M10.5 6.906a3.594 3.594 0 100 7.188 3.594 3.594 0 000-7.188zm0 5.75a2.157 2.157 0 110-4.313 2.157 2.157 0 010 4.314z"/></g><defs><clipPath id="clip0_1500_12010"><path fill="#fff" transform="translate(2 2)" d="M0 0h17v17H0z"/></clipPath></defs></svg>