<svg width="17" height="14" fill="none" xmlns="http://www.w3.org/2000/svg"><path fill-rule="evenodd" clip-rule="evenodd" d="M1.24 0C.91 0 .596.143.363.399A1.432 1.432 0 000 1.36v10.89c0 .751.555 1.361 1.24 1.361h14.52c.33 0 .644-.143.877-.399.232-.255.363-.601.363-.962V1.361c0-.36-.13-.707-.363-.962A1.186 1.186 0 0015.76 0H1.24zm-.177 1.361c0-.051.018-.1.051-.137a.17.17 0 01.126-.057h14.52a.17.17 0 01.126.057.205.205 0 01.052.137v.663l-7.34 5.444a.166.166 0 01-.198 0L1.063 2.024V1.36zm0 2.07v8.819c0 .107.079.194.177.194h14.52a.17.17 0 00.126-.057.205.205 0 00.052-.137V3.432L9.194 8.435a1.15 1.15 0 01-1.388 0L1.062 3.432z" fill="#212121"/></svg>