<svg width="35" height="21" fill="none" xmlns="http://www.w3.org/2000/svg"><path fill-rule="evenodd" clip-rule="evenodd" d="M12.86 10.292c0 1.595.386 3.17 1.13 4.596a10.371 10.371 0 003.15 3.623 10.95 10.95 0 01-5.46 2.03 11.068 11.068 0 01-5.754-1.04A10.559 10.559 0 011.6 15.708 10.001 10.001 0 010 10.292c0-1.914.554-3.789 1.601-5.416a10.56 10.56 0 014.325-3.795A11.068 11.068 0 0111.679.043c1.981.175 3.872.878 5.46 2.03a10.372 10.372 0 00-3.15 3.622 9.947 9.947 0 00-1.13 4.597z" fill="#A6A6A6"/><path opacity=".3" fill-rule="evenodd" clip-rule="evenodd" d="M23.56 20.583a10.92 10.92 0 01-6.42-2.072 10.37 10.37 0 003.15-3.623c.744-1.427 1.13-3 1.13-4.596s-.386-3.17-1.13-4.597a10.37 10.37 0 00-3.15-3.623A10.916 10.916 0 0121.745.16c1.67-.278 3.386-.17 5.004.316a10.787 10.787 0 014.304 2.475 10.238 10.238 0 012.658 4.09 9.914 9.914 0 01.428 4.806 10.075 10.075 0 01-1.898 4.465 10.59 10.59 0 01-3.804 3.142 11.04 11.04 0 01-4.875 1.13z" fill="#A6A6A6"/><path opacity=".65" fill-rule="evenodd" clip-rule="evenodd" d="M12.86 10.292c0-1.596.386-3.17 1.13-4.596a10.372 10.372 0 013.15-3.623 10.37 10.37 0 013.15 3.623c.743 1.426 1.13 3 1.13 4.596s-.387 3.17-1.13 4.596a10.37 10.37 0 01-3.15 3.623 10.372 10.372 0 01-3.15-3.623 9.945 9.945 0 01-1.13-4.596z" fill="#A6A6A6"/></svg>