<svg width="20" height="20" fill="none" xmlns="http://www.w3.org/2000/svg"><path fill-rule="evenodd" clip-rule="evenodd" d="M10.993 6.77v3.258a.52.52 0 00.426.35c.3 0 .978-1.8 1.28-2.405a1.93 1.93 0 01.737-.826.61.61 0 01.363-.155h2.878a.464.464 0 01.3.727 29.39 29.39 0 01-2.255 2.736c-.12.162-.202.35-.238.55a1.2 1.2 0 00.313.627c.2.226 1.816 2 1.966 2.155.143.163.238.362.276.576a.766.766 0 01-.8.614h-2.342a2.788 2.788 0 01-.952-.565c-.226-.2-1.153-1.152-1.278-1.277a2.45 2.45 0 00.024-.363.826.826 0 00-.7.8 4.037 4.037 0 01-.238 1.139 1.026 1.026 0 01-.737.275 5 5 0 01-2.917-.724A14.339 14.339 0 012.9 9.25c-.773-1.543-.947-1.783-.9-1.958.047-.175.05-.3.226-.3h2.606a.851.851 0 01.351.326c.075.1.647 1.056.822 1.356.175.3 1.041 1.705 1.508 1.705a.6.6 0 00.474-.7V7.5a1.94 1.94 0 00-.978-1 1.261 1.261 0 01.928-.5c.6-.025 2.1-.025 2.43.024a.779.779 0 01.627.747z" fill="#333"/></svg>