<svg width="15" height="19" fill="none" xmlns="http://www.w3.org/2000/svg"><path d="M7.5 10.806a3.19 3.19 0 01-1.79-.55A3.257 3.257 0 014.523 8.79a3.306 3.306 0 01-.184-1.887 3.28 3.28 0 01.882-1.672 3.21 3.21 0 011.65-.893 3.183 3.183 0 011.862.185 3.232 3.232 0 011.447 1.203 3.296 3.296 0 01-.402 4.123 3.206 3.206 0 01-2.278.957zm0-5.225c-.382 0-.756.115-1.074.33a1.954 1.954 0 00-.712.88 1.984 1.984 0 00.419 2.135 1.91 1.91 0 002.107.425c.353-.149.655-.4.868-.722a1.978 1.978 0 00-.241-2.473A1.923 1.923 0 007.5 5.58z" fill="#212121"/><path d="M7.5 18.644l-5.437-6.498-.225-.295A7.174 7.174 0 01.41 7.541a7.23 7.23 0 012.077-5.08A7.043 7.043 0 017.5.356a7.04 7.04 0 015.013 2.105 7.233 7.233 0 012.077 5.08 7.17 7.17 0 01-1.428 4.309v.001s-.194.258-.223.292l-5.439 6.5zm-4.633-7.58c.001 0 .15.202.185.245L7.5 16.625l4.454-5.323.18-.24a5.864 5.864 0 001.166-3.52 5.918 5.918 0 00-1.7-4.157 5.762 5.762 0 00-4.1-1.722 5.765 5.765 0 00-4.102 1.721A5.918 5.918 0 001.7 7.541a5.867 5.867 0 001.169 3.523z" fill="#212121"/></svg>