<svg width="26" height="26" fill="none" xmlns="http://www.w3.org/2000/svg"><path d="M13 5.935a4.416 4.416 0 100 8.831 4.416 4.416 0 000-8.83zM13 13a2.65 2.65 0 110-5.299 2.65 2.65 0 010 5.3z" fill="#212121"/><path d="M13 0a13 13 0 1013 13A13.014 13.014 0 0013 0zM7.429 22.636v-1.279a2.788 2.788 0 012.785-2.786h5.572a2.789 2.789 0 012.785 2.786v1.279a11.05 11.05 0 01-11.142 0zm12.992-1.348a4.644 4.644 0 00-4.635-4.574h-5.572a4.645 4.645 0 00-4.635 4.574 11.143 11.143 0 1114.842 0z" fill="#212121"/></svg>