<svg width="16" height="10" fill="none" xmlns="http://www.w3.org/2000/svg"><mask id="a" fill="#fff"><path d="M14.186 4.18c.228-.321.409-.58.542-.775.96-1.4 1.377-2.293 1.25-2.683l-.05-.091c-.034-.055-.12-.105-.259-.15a1.205 1.205 0 00-.533-.023l-2.399.018a.624.624 0 00-.275.032L12.42.53l-.033.028a.384.384 0 00-.091.096.636.636 0 00-.084.16c-.26.736-.558 1.42-.891 2.053-.206.377-.394.704-.566.98a4.597 4.597 0 01-.434.612c-.116.13-.222.236-.316.315-.095.08-.167.112-.217.1a3.864 3.864 0 01-.141-.036.585.585 0 01-.188-.224 1.074 1.074 0 01-.096-.356 4.196 4.196 0 01-.029-.37 7.992 7.992 0 01.005-.437c.005-.189.008-.317.008-.384 0-.23.004-.482.012-.752l.021-.644c.006-.158.008-.325.008-.502 0-.176-.01-.314-.029-.415a1.66 1.66 0 00-.087-.292A.48.48 0 009.1.243.918.918 0 008.82.12C8.528.047 8.153.008 7.698 0 6.664-.01 6 .062 5.707.221a1.147 1.147 0 00-.317.273c-.1.134-.114.207-.042.22.333.054.57.185.708.392l.05.109c.039.08.078.22.117.42.039.2.064.423.075.666.028.444.028.824 0 1.14-.028.317-.054.564-.08.74a1.588 1.588 0 01-.212.63.154.154 0 01-.041.045.577.577 0 01-.225.046c-.078 0-.172-.043-.284-.128a2.053 2.053 0 01-.345-.352 4.69 4.69 0 01-.404-.625c-.15-.267-.306-.584-.467-.949l-.133-.264c-.083-.17-.197-.419-.342-.744-.144-.325-.272-.64-.383-.945a.602.602 0 00-.2-.292L3.141.576A.838.838 0 002.816.44L.533.457C.3.457.142.515.058.631L.025.686A.318.318 0 000 .832c0 .067.017.149.05.246A31.46 31.46 0 001.137 3.56c.392.797.732 1.44 1.02 1.926.29.487.584.946.884 1.378.3.432.498.708.595.83.097.122.174.213.23.274l.208.219c.133.146.329.32.587.525.258.204.544.404.858.602.314.198.679.359 1.095.483.417.125.822.176 1.217.151h.958c.194-.018.341-.085.441-.2l.033-.046a.653.653 0 00.063-.169c.02-.076.03-.16.03-.25a3.28 3.28 0 01.053-.708c.042-.21.09-.368.142-.475a1.167 1.167 0 01.32-.401.643.643 0 01.067-.032c.133-.049.29-.002.471.141.18.144.35.32.508.53.159.21.349.445.57.707.223.261.417.456.584.584l.167.11c.11.072.255.14.433.2s.333.076.466.046l2.133-.037c.21 0 .375-.038.491-.114.117-.075.186-.16.209-.25a.775.775 0 00.004-.31 1.22 1.22 0 00-.058-.242 1.247 1.247 0 00-.055-.115c-.277-.547-.808-1.22-1.59-2.016l-.018-.018-.008-.01-.008-.009h-.008c-.356-.37-.58-.62-.675-.748-.172-.243-.211-.49-.117-.739.067-.19.316-.588.75-1.196z"/></mask><path d="M14.186 4.18c.228-.321.409-.58.542-.775.96-1.4 1.377-2.293 1.25-2.683l-.05-.091c-.034-.055-.12-.105-.259-.15a1.205 1.205 0 00-.533-.023l-2.399.018a.624.624 0 00-.275.032L12.42.53l-.033.028a.384.384 0 00-.091.096.636.636 0 00-.084.16c-.26.736-.558 1.42-.891 2.053-.206.377-.394.704-.566.98a4.597 4.597 0 01-.434.612c-.116.13-.222.236-.316.315-.095.08-.167.112-.217.1a3.864 3.864 0 01-.141-.036.585.585 0 01-.188-.224 1.074 1.074 0 01-.096-.356 4.196 4.196 0 01-.029-.37 7.992 7.992 0 01.005-.437c.005-.189.008-.317.008-.384 0-.23.004-.482.012-.752l.021-.644c.006-.158.008-.325.008-.502 0-.176-.01-.314-.029-.415a1.66 1.66 0 00-.087-.292A.48.48 0 009.1.243.918.918 0 008.82.12C8.528.047 8.153.008 7.698 0 6.664-.01 6 .062 5.707.221a1.147 1.147 0 00-.317.273c-.1.134-.114.207-.042.22.333.054.57.185.708.392l.05.109c.039.08.078.22.117.42.039.2.064.423.075.666.028.444.028.824 0 1.14-.028.317-.054.564-.08.74a1.588 1.588 0 01-.212.63.154.154 0 01-.041.045.577.577 0 01-.225.046c-.078 0-.172-.043-.284-.128a2.053 2.053 0 01-.345-.352 4.69 4.69 0 01-.404-.625c-.15-.267-.306-.584-.467-.949l-.133-.264c-.083-.17-.197-.419-.342-.744-.144-.325-.272-.64-.383-.945a.602.602 0 00-.2-.292L3.141.576A.838.838 0 002.816.44L.533.457C.3.457.142.515.058.631L.025.686A.318.318 0 000 .832c0 .067.017.149.05.246A31.46 31.46 0 001.137 3.56c.392.797.732 1.44 1.02 1.926.29.487.584.946.884 1.378.3.432.498.708.595.83.097.122.174.213.23.274l.208.219c.133.146.329.32.587.525.258.204.544.404.858.602.314.198.679.359 1.095.483.417.125.822.176 1.217.151h.958c.194-.018.341-.085.441-.2l.033-.046a.653.653 0 00.063-.169c.02-.076.03-.16.03-.25a3.28 3.28 0 01.053-.708c.042-.21.09-.368.142-.475a1.167 1.167 0 01.32-.401.643.643 0 01.067-.032c.133-.049.29-.002.471.141.18.144.35.32.508.53.159.21.349.445.57.707.223.261.417.456.584.584l.167.11c.11.072.255.14.433.2s.333.076.466.046l2.133-.037c.21 0 .375-.038.491-.114.117-.075.186-.16.209-.25a.775.775 0 00.004-.31 1.22 1.22 0 00-.058-.242 1.247 1.247 0 00-.055-.115c-.277-.547-.808-1.22-1.59-2.016l-.018-.018-.008-.01-.008-.009h-.008c-.356-.37-.58-.62-.675-.748-.172-.243-.211-.49-.117-.739.067-.19.316-.588.75-1.196z" stroke="#000" stroke-width="2" mask="url(#a)"/></svg>