<svg width="20" height="19" fill="none" xmlns="http://www.w3.org/2000/svg"><path d="M19.218 8.251h0a.905.905 0 00.236-.943.923.923 0 00-.755-.629s0 0 0 0l-4.842-.697h0a1.132 1.132 0 01-.853-.616s0 0 0 0 0 0 0 0l-2.165-4.35h0A.927.927 0 0010 .5a.927.927 0 00-.838.515h0L6.997 5.366l12.221 2.885zm0 0l-3.503 3.387h0a1.125 1.125 0 00-.328 1s0 0 0 0l.827 4.783h0a.883.883 0 01-.2.743h-.001a.943.943 0 01-.72.336.93.93 0 01-.435-.109h0l-4.332-2.258h-.002a1.153 1.153 0 00-1.05 0h0l-4.33 2.258a.958.958 0 01-1.156-.226h0a.884.884 0 01-.202-.744h0l.827-4.782s0 0 0 0a1.125 1.125 0 00-.328-1v-.001L.782 8.25h0a.905.905 0 01-.236-.942.922.922 0 01.755-.63h0l4.842-.697h0M19.218 8.25L6.143 5.982m0 0c.367-.053.687-.281.854-.615l-.854.615z" fill="#fff" stroke="#FEC057"/></svg>