<svg width="16" height="16" fill="none" xmlns="http://www.w3.org/2000/svg"><path d="M11.368 16C5.1 16 0 10.9 0 4.63A4.427 4.427 0 013.862.245a1.266 1.266 0 011.315.757l1.586 3.7a1.26 1.26 0 01-.104 1.19L5.345 7.9a6.043 6.043 0 002.78 2.767l1.977-1.318a1.26 1.26 0 011.198-.11l3.698 1.585a1.266 1.266 0 01.756 1.315A4.426 4.426 0 0111.368 16zM4.016 1.5a3.16 3.16 0 00-2.753 3.13 10.117 10.117 0 0010.105 10.106 3.161 3.161 0 003.133-2.758l-3.698-1.58-1.977 1.318a1.262 1.262 0 01-1.243.09 7.31 7.31 0 01-3.376-3.36 1.263 1.263 0 01.081-1.24L5.602 5.2 4.016 1.5z" fill="#212121"/></svg>