<svg width="24" height="24" fill="none" xmlns="http://www.w3.org/2000/svg"><path d="M17.053 24C7.65 24 0 16.35 0 6.947A6.64 6.64 0 015.793.368a1.9 1.9 0 011.972 1.135l2.38 5.551a1.891 1.891 0 01-.157 1.785l-1.97 3.01a9.064 9.064 0 004.169 4.15l2.966-1.976a1.889 1.889 0 011.797-.165l5.547 2.377a1.9 1.9 0 011.135 1.971A6.64 6.64 0 0117.052 24zM6.023 2.25a4.739 4.739 0 00-4.128 4.697 15.175 15.175 0 0015.158 15.158 4.742 4.742 0 004.699-4.136l-5.548-2.37-2.965 1.977a1.892 1.892 0 01-1.864.135A10.965 10.965 0 016.31 12.67a1.894 1.894 0 01.123-1.859l1.97-3.01-2.38-5.551z" fill="#212121"/></svg>