<svg width="17" height="17" fill="none" xmlns="http://www.w3.org/2000/svg"><path d="M16.094 3.112h0a3.648 3.648 0 00-.865-1.326l-.007-.007h0a3.684 3.684 0 00-1.324-.863l-.005-.001h0C13.407.727 12.843.59 11.99.553h-.002C11.09.51 10.81.5 8.503.5S5.917.51 5.021.55l11.073 2.562zm0 0l.002.005m-.002-.005l.002.005m0 0c.187.482.324 1.048.361 1.903l-.361-1.903zM3.113.913h0a3.64 3.64 0 00-1.327.864l-.007.007h0c-.38.375-.676.828-.863 1.325l-.001.004h0C.727 3.599.59 4.163.553 5.017v.001C.51 5.917.5 6.196.5 8.502c0 2.305.01 2.585.05 3.481L3.112.913zm0 0L3.118.91m-.005.002L3.118.91m0 0C3.6.724 4.165.587 5.02.549L3.118.911zM.913 13.891h0c.19.503.485.953.866 1.328l.006.006h0c.374.38.828.675 1.324.862l.004.002c.487.188 1.05.324 1.905.362.896.04 1.176.049 3.482.049s2.586-.01 3.482-.05c.855-.037 1.422-.174 1.904-.361h0a3.849 3.849 0 002.203-2.201L.913 13.89zm0 0l-.002-.005m.002.005l-.002-.005m0 0c-.187-.482-.324-1.048-.362-1.903l.362 1.903zm15.54-1.903s0 0 0 0l.496.022-.496-.022zm0 0c-.038.854-.175 1.418-.362 1.904l.362-1.904zM13.7 15.597a3.32 3.32 0 001.9-1.9m-1.9 1.9h-.001l-.18-.467.181.466s0 0 0 0zm0 0c-.349.135-.854.286-1.737.325m3.637-2.225L5.05 15.922l.022-.5-.022.5c.904.04 1.186.05 3.457.05s2.549-.01 3.456-.05m3.637-2.225c.135-.348.286-.85.325-1.736m-.325 1.736L11.966 1.095c.883.038 1.384.189 1.733.324a3.1 3.1 0 011.153.749c.332.325.587.717.748 1.152.135.348.285.853.324 1.732m-3.962 10.87l-.022-.498.022.498s0 0 0 0zm3.962-3.961s0 0 0 0l-.5-.022.5.022zm0 0c.04-.908.05-1.182.05-3.453 0-2.27-.01-2.548-.05-3.456m0 0s0 0 0 0l-.498.022.498-.022zM1.415 3.32c-.134.348-.285.85-.323 1.732l.324-1.732zm0 0a3.09 3.09 0 01.755-1.155 3.14 3.14 0 011.15-.746c.349-.135.854-.286 1.733-.324L1.416 3.32zm.748 11.529c.324.334.721.588 1.154.749l-2.225-3.634c.038.88.189 1.385.324 1.733.161.435.416.826.747 1.152zm-1.122-6.34c0 2.27.01 2.548.05 3.455V5.053c-.04.904-.05 1.185-.05 3.455zM8.51 1.043c-2.271 0-2.549.01-3.457.05h6.913c-.904-.04-1.181-.05-3.456-.05z" stroke="#000"/><path d="M8.5 4a4.501 4.501 0 000 9 4.501 4.501 0 000-9zm0 7.419a2.92 2.92 0 110-5.84 2.92 2.92 0 010 5.84zM14 4a1 1 0 11-2 0 1 1 0 012 0z" fill="#212121"/></svg>