<svg width="150" height="57" fill="none" xmlns="http://www.w3.org/2000/svg"><g clip-path="url(#clip0_324_2779)"><path d="M4.185 38.293l5.28 14.03 5.267-14.03h4.111v18.304h-3.168v-6.034l.314-8.071-5.405 14.105H8.308L2.915 42.504l.314 8.059v6.034H.061V38.293h4.124zm29.128 10.133h-7.518v5.631h8.788v2.54H22.615V38.293h11.88v2.565h-8.7v5.053h7.518v2.514zm17.889 5.795c-.662.863-1.58 1.517-2.753 1.961-1.174.444-2.506.666-3.998.666-1.534 0-2.891-.347-4.073-1.043-1.182-.696-2.095-1.689-2.74-2.98-.638-1.299-.969-2.811-.994-4.538v-1.433c0-2.766.662-4.924 1.986-6.474 1.325-1.56 3.173-2.339 5.544-2.339 2.037 0 3.655.503 4.853 1.51 1.198 1.005 1.92 2.455 2.162 4.349h-3.117c-.352-2.204-1.63-3.306-3.835-3.306-1.424 0-2.51.515-3.256 1.546-.737 1.022-1.119 2.527-1.144 4.513v1.408c0 1.978.415 3.516 1.245 4.614.838 1.09 1.999 1.634 3.482 1.634 1.626 0 2.783-.369 3.47-1.106V49.62h-3.771v-2.414h6.939v7.015zm13.74-1.886h-7.09l-1.483 4.262h-3.306l6.914-18.304h2.854l6.926 18.304h-3.319l-1.496-4.262zm-6.197-2.564h5.305l-2.653-7.593-2.652 7.593zm18.568 2.84l4.651-14.318h3.495l-6.587 18.304h-3.08l-6.563-18.304h3.483l4.6 14.319zm13.577 3.986h-3.168V38.293h3.168v18.304zm13.476-4.714c0-.805-.284-1.425-.854-1.86-.562-.437-1.58-.877-3.055-1.32-1.475-.445-2.649-.94-3.52-1.484-1.668-1.048-2.502-2.414-2.502-4.099 0-1.475.6-2.69 1.798-3.645 1.207-.956 2.77-1.434 4.689-1.434 1.274 0 2.409.235 3.407.705.997.469 1.781 1.14 2.351 2.01.57.864.854 1.824.854 2.88h-3.168c0-.956-.301-1.702-.905-2.238-.595-.545-1.45-.817-2.564-.817-1.04 0-1.848.222-2.427.666-.57.444-.854 1.065-.854 1.86 0 .671.31 1.233.93 1.685.62.444 1.643.88 3.067 1.308 1.425.419 2.569.9 3.432 1.445.864.537 1.496 1.157 1.899 1.861.402.696.603 1.513.603 2.452 0 1.525-.587 2.74-1.76 3.645-1.165.897-2.749 1.345-4.752 1.345-1.324 0-2.544-.243-3.658-.729-1.106-.494-1.97-1.173-2.59-2.036-.612-.864-.918-1.87-.918-3.017h3.18c0 1.039.344 1.843 1.032 2.413.687.57 1.672.855 2.954.855 1.106 0 1.936-.222 2.489-.666.562-.453.842-1.048.842-1.785zm9.328 4.714h-3.168V38.293h3.168v18.304zm18.518-8.674c0 1.793-.31 3.369-.93 4.727-.62 1.349-1.509 2.388-2.665 3.117-1.148.721-2.473 1.081-3.973 1.081-1.483 0-2.807-.36-3.972-1.08-1.157-.73-2.054-1.765-2.691-3.106-.628-1.34-.947-2.887-.955-4.639v-1.03c0-1.786.314-3.361.943-4.727.637-1.367 1.529-2.41 2.677-3.13 1.157-.73 2.481-1.095 3.973-1.095s2.812.36 3.96 1.082c1.157.712 2.049 1.743 2.678 3.092.628 1.341.947 2.904.955 4.69v1.018zm-3.18-.956c0-2.028-.386-3.583-1.157-4.664-.763-1.08-1.848-1.621-3.256-1.621-1.374 0-2.451.54-3.231 1.621-.771 1.073-1.165 2.594-1.182 4.564v1.056c0 2.011.39 3.566 1.17 4.664.787 1.097 1.877 1.646 3.268 1.646 1.408 0 2.489-.536 3.244-1.609.762-1.072 1.144-2.64 1.144-4.701v-.956zm20.868 9.63h-3.18l-8.159-12.986v12.986h-3.181V38.293h3.181l8.184 13.037V38.293h3.155v18.304z" fill="#1F1F1F"/><path fill-rule="evenodd" clip-rule="evenodd" d="M90.017.353C81.4 1.085 73.194 3.846 66.861 8.14c-1.03.7-3.349 1.877-5.15 2.617-3.88 1.591-6.73 3.365-9.202 5.726-2.054 1.962-2.057 1.906.275 5.862 2.91 4.935 3.817 5.965 5.668 6.436 2.04.52 4.498.076 5.49-.994.49-.528.773-1.964 1.196-6.07.596-5.788.791-6.699 1.391-6.486.214.075 1.216 2.477 2.228 5.338 1.012 2.86 2.146 5.566 2.519 6.01 1.138 1.358 2.77 1.846 6.172 1.846 3.803 0 7.62-.72 12.21-2.3 4.236-1.458 6.708-2.874 7.36-4.215.38-.78.567-3.567.745-11.12L98 .716 97.025.32c-1.075-.433-1.555-.43-7.008.033zm2.279 4.23c.372 1.476.24 12.182-.17 13.751-.555 2.122-1.987 3.36-5.028 4.345-3.35 1.086-10.19 2.165-11.494 1.813-2.427-.655-4.07-3.543-6.012-10.574-.987-3.573-.934-3.67 3.079-5.664C77.22 5.993 85.603 3.8 89.886 3.752c1.982-.023 2.215.058 2.41.83zM63.246 16.08c.226 2.207.08 7.065-.267 8.856-.273 1.415-3.493 2.476-5.29 1.743-.67-.272-4.511-6.639-4.511-7.475 0-1.088 7.855-5.724 9.3-5.488.375.062.605.767.768 2.364z" fill="#DE2747"/></g><defs><clipPath id="clip0_324_2779"><path fill="#fff" d="M0 0h150v57H0z"/></clipPath></defs></svg>