<svg width="145" height="30" fill="none" xmlns="http://www.w3.org/2000/svg"><path d="M11.974 8.07h2.296l4.317 11.515L22.894 8.07h2.297L19.49 23h-1.825L11.974 8.07zm-1.046 0h2.184l.38 9.967V23h-2.564V8.07zm13.125 0h2.194V23h-2.574v-4.963l.38-9.967zm15.022 12.89V23h-7.927v-2.04h7.927zM31.876 8.07V23h-2.573V8.07h2.573zm6.163 6.235v2.01h-6.89v-2.01h6.89zm.984-6.235v2.051h-7.875v-2.05h7.875zm13.618 7.301v5.701c-.212.28-.544.588-.995.923-.444.328-1.036.612-1.774.851-.738.24-1.658.36-2.758.36-.937 0-1.795-.158-2.574-.473a5.638 5.638 0 01-2.02-1.404c-.56-.616-.995-1.364-1.302-2.246-.308-.889-.462-1.9-.462-3.035v-1.036c0-1.128.14-2.133.42-3.014.288-.89.698-1.641 1.231-2.256a5.143 5.143 0 011.928-1.395c.759-.321 1.617-.482 2.574-.482 1.223 0 2.235.205 3.035.615.806.404 1.429.964 1.866 1.682.438.718.714 1.538.83 2.461h-2.522a3.97 3.97 0 00-.482-1.394 2.443 2.443 0 00-1.005-.964c-.43-.24-.99-.36-1.681-.36-.595 0-1.118.114-1.57.34a2.966 2.966 0 00-1.127.994c-.294.437-.516.97-.667 1.6-.15.628-.225 1.346-.225 2.153v1.056c0 .82.085 1.548.256 2.184.178.636.43 1.172.759 1.61.335.437.742.769 1.22.994.479.22 1.019.329 1.62.329.588 0 1.07-.048 1.446-.144.376-.102.673-.222.892-.359.226-.143.4-.28.523-.41v-2.963H46.97V15.37h5.67zm8.664-5.311L56.845 23h-2.697l5.62-14.93h1.722l-.185 1.99zM65.038 23l-4.471-12.94-.195-1.99h1.733L67.745 23h-2.707zm-.216-5.537v2.04h-8.12v-2.04h8.12zm8.85 2.81L77.598 8.07h2.84L75.086 23H73.17l.502-2.727zM70.041 8.07l3.896 12.203L74.47 23h-1.928l-5.33-14.93h2.83zm14.816 0V23h-2.573V8.07h2.573zm11.054 11.085c0-.308-.048-.581-.143-.82a1.602 1.602 0 00-.482-.657c-.233-.198-.56-.39-.985-.574a13.07 13.07 0 00-1.6-.584 17.72 17.72 0 01-1.968-.729 7.488 7.488 0 01-1.559-.943 4.035 4.035 0 01-1.035-1.24c-.246-.472-.37-1.016-.37-1.63 0-.61.127-1.163.38-1.662.26-.5.625-.93 1.097-1.292a5.249 5.249 0 011.692-.851 7.125 7.125 0 012.153-.308c1.108 0 2.061.205 2.861.615.807.41 1.425.96 1.856 1.651.438.69.656 1.453.656 2.287h-2.553c0-.492-.106-.926-.318-1.302a2.154 2.154 0 00-.943-.903c-.417-.218-.947-.328-1.59-.328-.608 0-1.114.093-1.517.277-.403.185-.704.434-.902.749a1.95 1.95 0 00-.298 1.066c0 .28.065.537.195.77.13.225.328.437.595.635.266.191.601.372 1.005.543.403.171.878.335 1.425.492.827.247 1.548.52 2.164.82.615.295 1.128.63 1.538 1.006.41.376.717.803.922 1.281.206.472.308 1.009.308 1.61 0 .63-.126 1.197-.38 1.702a3.673 3.673 0 01-1.086 1.282c-.465.349-1.026.619-1.682.81-.65.185-1.374.277-2.174.277a7.982 7.982 0 01-2.122-.287 6.261 6.261 0 01-1.887-.872 4.506 4.506 0 01-1.354-1.476c-.334-.595-.502-1.289-.502-2.082h2.574c0 .486.082.9.246 1.241.17.342.407.622.707.84.301.213.65.37 1.046.473a5.23 5.23 0 001.292.153c.602 0 1.104-.085 1.508-.256.41-.17.717-.41.922-.718.206-.307.308-.663.308-1.066zM103.52 8.07V23h-2.574V8.07h2.574zm15.104 7.055v.82c0 1.128-.147 2.14-.441 3.035-.294.896-.715 1.658-1.262 2.287a5.42 5.42 0 01-1.948 1.446c-.759.328-1.599.492-2.522.492-.916 0-1.754-.164-2.513-.492a5.653 5.653 0 01-1.958-1.446c-.554-.629-.984-1.391-1.292-2.287-.301-.895-.451-1.907-.451-3.035v-.82c0-1.128.15-2.136.451-3.025.301-.895.725-1.658 1.271-2.287a5.48 5.48 0 011.959-1.445c.759-.335 1.596-.503 2.512-.503.923 0 1.764.168 2.523.503.758.328 1.411.81 1.958 1.445.547.63.967 1.392 1.261 2.287.301.889.452 1.897.452 3.025zm-2.574.82v-.84c0-.835-.082-1.57-.246-2.205-.158-.643-.393-1.18-.708-1.61a2.954 2.954 0 00-1.138-.984 3.368 3.368 0 00-1.528-.339c-.567 0-1.073.113-1.517.339a3.06 3.06 0 00-1.139.984c-.307.43-.543.967-.707 1.61-.164.636-.246 1.37-.246 2.204v.841c0 .834.082 1.573.246 2.215.164.643.403 1.186.718 1.63.321.438.704.77 1.148.995.444.219.95.328 1.518.328.574 0 1.083-.11 1.527-.328a3.06 3.06 0 001.128-.994c.308-.445.54-.988.698-1.63.164-.643.246-1.382.246-2.216zm16.991-7.875V23h-2.574l-6.696-10.695V23h-2.574V8.07h2.574l6.716 10.716V8.07h2.554z" fill="#3F4249"/></svg>