<svg width="35" height="30" fill="none" xmlns="http://www.w3.org/2000/svg"><g clip-path="url(#clip0_1434_5982)"><path d="M12.854 27.775c0 .44-.126.87-.361 1.236-.236.366-.57.651-.962.82a2.068 2.068 0 01-1.237.126 2.118 2.118 0 01-1.097-.609 2.253 2.253 0 01-.587-1.139c-.082-.432-.04-.88.122-1.286.163-.406.437-.754.79-.998a2.086 2.086 0 011.19-.375 2.1 2.1 0 011.514.651c.402.418.628.984.628 1.574zm11.783-2.225c-.424 0-.838.13-1.19.375a2.208 2.208 0 00-.79.998 2.305 2.305 0 00-.121 1.286c.082.432.286.828.586 1.14.3.31.681.523 1.097.608.415.086.846.042 1.237-.126.392-.169.727-.454.962-.82a2.29 2.29 0 00.361-1.236 2.27 2.27 0 00-.627-1.574 2.103 2.103 0 00-1.515-.651zm6.08-17.497l-3.535 12.85a3.357 3.357 0 01-1.157 1.745 3.15 3.15 0 01-1.933.676H11.256a3.15 3.15 0 01-1.933-.676 3.357 3.357 0 01-1.156-1.745L4.637 8.074a1.107 1.107 0 01-.01-.04L3.323 3.296H1.07a1.05 1.05 0 01-.757-.326A1.135 1.135 0 010 2.184c0-.295.113-.578.314-.787.2-.208.473-.325.757-.325h2.253a2.1 2.1 0 011.288.45c.372.291.642.7.772 1.163l1.086 3.95h23.216c.166 0 .33.04.478.117.148.076.278.188.378.325a1.155 1.155 0 01.175.976zm-2.45.807H7.081l3.144 11.432c.065.232.2.436.386.582.186.145.412.224.644.225h12.836c.233 0 .459-.08.644-.225.186-.146.321-.35.386-.582L28.266 8.86z" fill="#9497A3"/></g><defs><clipPath id="clip0_1434_5982"><path fill="#fff" d="M0 0h35v30H0z"/></clipPath></defs></svg>