<svg width="21" height="16" fill="none" xmlns="http://www.w3.org/2000/svg"><path fill-rule="evenodd" clip-rule="evenodd" d="M9.479.047c.658.247 1.763 1.182 3.292 2.786 3.679 3.862 7.728 9.569 8.183 11.533.083.359.059.491-.117.63-1.358 1.072-3.755.592-6.274-1.258-2.676-1.965-5.055-5.209-6.04-8.235-.457-1.408-.594-2.747-.383-3.758.123-.591.353-1.078.687-1.451.268-.3.387-.346.652-.247zm-.377.378a.713.713 0 00.014.199c.088.529.52 1.463 1.2 2.592 2.186 3.637 6.312 8.658 8.851 10.773.494.41 1.034.76 1.261.814.039.009.089.022.111.029.036.01.041-.006.041-.131 0-.858-1.579-3.552-3.85-6.567C13.842 4.297 10.572.9 9.33.446 9.147.38 9.12.376 9.102.425zm1.456 9.492l.143.207H9.33c-1.39 0-2.291.025-3.366.09-2.144.13-3.825.367-4.88.688-.274.084-.687.28-.758.362l-.047.054.079.068c.526.455 2.661.848 5.571 1.025a61.13 61.13 0 006.439.017l.298-.016.239.226c.79.747 1.671 1.435 2.451 1.912.139.084.244.162.234.173-.038.04-.692.313-1.06.443a14.969 14.969 0 01-3.43.75c-1.304.13-2.825.108-4.085-.06-2.458-.33-4.554-1.167-5.81-2.321-.763-.701-1.193-1.517-1.203-2.28L0 11.019l.114-.107c.59-.555 3.153-.984 6.843-1.145a88.718 88.718 0 012.009-.04l1.448-.016.144.207z" fill="#DE2747"/></svg>