<svg width="14" height="20" fill="none" xmlns="http://www.w3.org/2000/svg"><g clip-path="url(#clip0_167_738)"><path d="M4.603-.31c-.287.023-.526.226-.52.441v.87H5.25V.13c.007-.246-.318-.468-.647-.441zM2.917 1.747v1.78c.188-.025.38-.041.583-.041h2.324c.204 0 .404.016.593.04V1.748c-.875 0-2.746.007-3.5 0zM3.5 3.92c-1.17 0-1.75.43-1.75 1.304v.435h5.834v-.455c0-.849-.584-1.284-1.76-1.284H3.5zm4.448.3c.152.25.219.542.219.848 1.095.044 2.345.02 3.49.02.446 0 .815.08 1.006.293.19.212.337.618.337 1.229 0 .596-.145 1.004-.337 1.222-.192.218-.552.299-.969.299H9.917V9h1.777c.722 0 1.393-.256 1.777-.694.385-.437.529-1.003.529-1.697 0-.707-.144-1.282-.538-1.718-.394-.437-1.076-.672-1.804-.672h-3.71zM1.714 6.093C.586 6.093 0 6.525 0 7.363v.903h4.658c.683 0 1.3.128 1.731.448.43.32.611.783.611 1.29v6.078c0 .51-.177.962-.602 1.283-.424.321-1.035.462-1.704.462H0v.876C0 19.566.583 20 1.777 20h5.806c1.167 0 1.75-.434 1.75-1.324V7.37c0-.848-.585-1.277-1.759-1.277h-5.86zM0 9.135v7.823h4.86c.47 0 .723-.082.876-.197.152-.115.264-.313.264-.679v-6.077c0-.364-.11-.558-.264-.673-.155-.115-.421-.197-.912-.197H0z" fill="#DE2747"/></g><defs><clipPath id="clip0_167_738"><path fill="#fff" d="M0 0h14v20H0z"/></clipPath></defs></svg>