<svg width="18" height="18" fill="none" xmlns="http://www.w3.org/2000/svg"><g clip-path="url(#clip0_167_742)"><path fill-rule="evenodd" clip-rule="evenodd" d="M16.503.053c-.395.134-.805.59-1.216 1.352-.196.364-.477.988-.66 1.464-.42 1.09-.527 1.344-.88 2.107-.743 1.598-1.595 3.033-2.79 4.7-1.53 2.131-3.255 4.073-4.931 5.547-.73.641-1.301 1.086-2.336 1.82-.866.613-1.004.736-.972.87.018.075.102.096.329.084 1-.056 3.093-1.342 5.541-3.407a47.724 47.724 0 002.55-2.304c1.9-1.887 3.854-4.588 5.322-7.356.704-1.329 1.106-2.34 1.268-3.196.065-.345.075-.81.021-1.016-.076-.293-.204-.48-.406-.593a1.084 1.084 0 00-.84-.072zm-2.48.498a21.21 21.21 0 00-1.598.83 32.25 32.25 0 00-5.083 3.7 24.824 24.824 0 00-2.639 2.746C2.7 10.25 1.287 12.305.531 13.9c-.37.783-.57 1.458-.525 1.777.03.208.131.225.293.049.13-.142.108-.11.658-.97.694-1.084.964-1.472 1.545-2.22.912-1.174 2.055-2.406 3.308-3.565 1.91-1.765 3.941-3.284 5.737-4.289l.294-.164.167-.358c.556-1.19 1.47-2.703 2.143-3.546.076-.096.136-.174.133-.173l-.261.11z" fill="#DE2747"/></g><defs><clipPath id="clip0_167_742"><path fill="#fff" d="M0 0h18v18H0z"/></clipPath></defs></svg>