<svg width="37" height="25" fill="none" xmlns="http://www.w3.org/2000/svg"><path d="M13.006 3.078h10.992V21.92H13.006V3.078z" fill="#FF5F00"/><path d="M14.139 12.5a12.454 12.454 0 011.146-5.237A11.875 11.875 0 0118.5 3.081 11.13 11.13 0 0012.663.588c-2.13-.24-4.282.154-6.209 1.137a11.628 11.628 0 00-4.687 4.42 12.424 12.424 0 00-1.74 6.357c0 2.249.603 4.452 1.74 6.357a11.628 11.628 0 004.687 4.42 10.948 10.948 0 006.209 1.138 11.13 11.13 0 005.837-2.493 11.875 11.875 0 01-3.216-4.184 12.455 12.455 0 01-1.145-5.24z" fill="#EB001B"/><path d="M35.882 19.927v-.386h.159v-.08h-.378v.08h.15v.386h.069zm.733 0v-.466H36.5l-.133.333-.133-.333h-.114v.466h.082v-.353l.124.303h.085l.124-.303v.353h.08zm.359-7.427c0 2.25-.603 4.452-1.74 6.358a11.629 11.629 0 01-4.688 4.42 10.949 10.949 0 01-6.209 1.137A11.13 11.13 0 0118.5 21.92a11.893 11.893 0 003.214-4.184 12.474 12.474 0 001.149-5.237c0-1.815-.393-3.605-1.149-5.238A11.894 11.894 0 0018.5 3.079 11.13 11.13 0 0124.337.583c2.13-.24 4.282.154 6.21 1.137a11.628 11.628 0 014.688 4.42 12.424 12.424 0 011.74 6.357v.004z" fill="#F79E1B"/></svg>