<svg width="50" height="17" fill="none" xmlns="http://www.w3.org/2000/svg"><g clip-path="url(#clip0_574_3110)"><path d="M18.334 16.022l2.54-14.961h3.968l-2.46 14.961h-4.048z" fill="#3C58BF"/><path d="M18.334 16.022l3.254-14.961h3.254l-2.46 14.961h-4.048z" fill="#293688"/><path d="M36.746 1.227c-.793-.332-2.063-.665-3.65-.665-3.969 0-6.826 2.078-6.826 5.07 0 2.245 1.984 3.408 3.572 4.156 1.587.748 2.063 1.247 2.063 1.912 0 .997-1.27 1.496-2.38 1.496-1.588 0-2.461-.25-3.81-.831l-.556-.25-.555 3.408c.952.416 2.698.832 4.523.832 4.207 0 6.984-2.079 6.984-5.237 0-1.745-1.031-3.075-3.412-4.156-1.429-.748-2.302-1.163-2.302-1.911 0-.665.715-1.33 2.302-1.33 1.349 0 2.301.249 3.016.582l.396.166.635-3.242z" fill="#3C58BF"/><path d="M36.746 1.227c-.793-.332-2.063-.665-3.65-.665-3.969 0-6.111 2.078-6.111 5.07 0 2.245 1.27 3.408 2.857 4.156 1.587.748 2.063 1.247 2.063 1.912 0 .997-1.27 1.496-2.38 1.496-1.588 0-2.461-.25-3.81-.831l-.556-.25-.555 3.408c.952.416 2.698.832 4.523.832 4.207 0 6.984-2.079 6.984-5.237 0-1.745-1.031-3.075-3.412-4.156-1.429-.748-2.302-1.163-2.302-1.911 0-.665.715-1.33 2.302-1.33 1.349 0 2.301.249 3.016.582l.396.166.635-3.242z" fill="#293688"/><path d="M43.572 1.061c-.953 0-1.667.083-2.064 1.08l-5.952 13.881h4.285l.794-2.493h5.08l.476 2.493H50L46.666 1.061H43.57zm-1.826 9.974c.238-.748 1.587-4.405 1.587-4.405s.318-.914.556-1.496l.238 1.413s.794 3.74.953 4.571h-3.334v-.083z" fill="#3C58BF"/><path d="M44.524 1.061c-.953 0-1.667.083-2.064 1.08l-6.904 13.881h4.285l.794-2.493h5.08l.476 2.493H50L46.666 1.061h-2.143zm-2.778 9.974a422.81 422.81 0 001.587-4.405s.318-.914.556-1.496l.238 1.413s.794 3.74.953 4.571h-3.334v-.083z" fill="#293688"/><path d="M11.031 11.534l-.396-2.161C9.92 6.879 7.619 4.136 5.079 2.807l3.572 13.298h4.285l6.429-14.96h-4.286l-4.048 10.389z" fill="#3C58BF"/><path d="M11.031 11.534l-.396-2.161C9.92 6.879 7.619 4.136 5.079 2.807l3.572 13.298h4.285l6.429-14.96h-3.492l-4.841 10.389z" fill="#293688"/><path d="M0 1.061l.714.166c5.08 1.247 8.572 4.405 9.92 8.146L9.207 2.308C8.968 1.31 8.254 1.06 7.381 1.06H0z" fill="#FFBC00"/><path d="M0 1.061C5.08 2.308 9.286 5.549 10.635 9.29l-1.35-5.902c-.236-.997-1.03-1.578-1.903-1.578L0 1.061z" fill="#F7981D"/><path d="M0 1.061C5.08 2.308 9.286 5.549 10.635 9.29l-.952-3.242c-.239-.997-.556-1.995-1.667-2.41L0 1.06z" fill="#ED7C00"/><path d="M15 11.035L12.302 8.21l-1.27 3.159-.317-2.078C10 6.796 7.699 4.053 5.159 2.723l3.572 13.3h4.285L15 11.034zm7.38 4.987l-3.412-3.657-.635 3.657h4.048zm9.128-5.153c.318.332.477.582.397.914 0 .998-1.27 1.496-2.38 1.496-1.588 0-2.461-.25-3.81-.83l-.556-.25-.555 3.408c.952.415 2.698.83 4.523.83 2.54 0 4.604-.747 5.794-2.077l-3.413-3.491zm4.604 5.153h3.73l.794-2.493h5.08l.476 2.493h3.81l-1.35-6.067-4.762-4.821.238 1.33s.794 3.74.953 4.571h-3.334c.318-.831 1.587-4.405 1.587-4.405s.318-.914.556-1.496" fill="#051244"/></g><defs><clipPath id="clip0_574_3110"><path fill="#fff" transform="translate(0 .5)" d="M0 0h50v16H0z"/></clipPath></defs></svg>