<svg width="18" height="23" fill="none" xmlns="http://www.w3.org/2000/svg"><path d="M18 9.108C18 4.085 13.962 0 9 0S0 4.085 0 9.108a9.13 9.13 0 004.64 7.964v5.252a.68.68 0 00.348.593c.213.117.475.11.68-.024L9 20.739l3.331 2.155a.673.673 0 00.681.024.68.68 0 00.348-.593v-5.252A9.133 9.133 0 0018 9.108zm-5.977 11.98L9.36 19.366a.666.666 0 00-.72 0l-2.663 1.722v-3.404A8.875 8.875 0 009 18.213c1.06 0 2.078-.187 3.023-.529v3.404zM12.505 16a.663.663 0 00-.213.107A7.546 7.546 0 019 16.86a7.545 7.545 0 01-3.294-.753.663.663 0 00-.212-.107 7.774 7.774 0 01-4.157-6.895C1.338 4.832 4.776 1.353 9 1.353c4.225 0 7.662 3.48 7.662 7.755A7.773 7.773 0 0112.505 16zm.24-9.622c.26.263.26.692 0 .956l-4.447 4.5a.664.664 0 01-.945 0l-1.996-2.02a.682.682 0 010-.957.664.664 0 01.946 0l1.523 1.54 3.974-4.02a.662.662 0 01.945.001z" fill="#212121"/></svg>