<svg width="12" height="12" fill="none" xmlns="http://www.w3.org/2000/svg"><path d="M11.74 5.438a.92.92 0 00.217-.92.866.866 0 00-.695-.612l-2.905-.44a.381.381 0 01-.286-.218L6.77.501A.853.853 0 006.002 0a.853.853 0 00-.772.5l-1.3 2.749a.381.381 0 01-.286.217l-2.905.44a.866.866 0 00-.695.612.92.92 0 00.217.92l2.103 2.14c.09.09.13.222.11.35l-.497 3.02a.907.907 0 00.188.729.845.845 0 001.06.218l2.6-1.426a.375.375 0 01.353 0l2.599 1.426c.126.07.26.105.4.105a.85.85 0 00.66-.323.906.906 0 00.188-.728l-.496-3.02a.408.408 0 01.11-.352l2.102-2.139z" fill="#FEC057"/></svg>