<svg width="26" height="26" fill="none" xmlns="http://www.w3.org/2000/svg"><path d="M19.637 15.459a3.281 3.281 0 00-3.278 3.277 3.28 3.28 0 003.278 3.278 3.28 3.28 0 003.277-3.278 3.281 3.281 0 00-3.277-3.277zm0 4.916a1.64 1.64 0 01-1.639-1.639 1.64 1.64 0 011.639-1.638 1.64 1.64 0 011.638 1.638 1.64 1.64 0 01-1.638 1.639zM8.44 15.459a3.281 3.281 0 00-3.278 3.277 3.28 3.28 0 003.277 3.278 3.281 3.281 0 003.277-3.278A3.281 3.281 0 008.44 15.46zm0 4.916a1.64 1.64 0 01-1.64-1.639 1.64 1.64 0 011.64-1.638 1.64 1.64 0 011.638 1.638 1.64 1.64 0 01-1.639 1.639zM21.844 6.078a.82.82 0 00-.733-.451h-4.315v1.639h3.81l2.231 4.437 1.465-.736-2.458-4.889z" fill="#1B1B1B"/><path d="M17.178 17.943h-6.2v1.639h6.2v-1.639zm-11.197 0h-2.84a.82.82 0 100 1.639h2.84a.82.82 0 100-1.639zm19.847-5.008l-1.612-2.075a.818.818 0 00-.647-.317h-5.953V4.808a.82.82 0 00-.82-.82H3.141a.82.82 0 100 1.639h12.836v5.735c0 .453.367.82.82.82h6.371l1.193 1.537v4.225h-2.267a.82.82 0 100 1.639h3.087a.82.82 0 00.819-.82v-5.325a.82.82 0 00-.172-.503zm-19.902.858H2.159a.82.82 0 100 1.639h3.768a.82.82 0 100-1.639zm1.884-3.225H.82a.82.82 0 100 1.639h6.99a.82.82 0 100-1.639z" fill="#1B1B1B"/><path d="M9.15 7.346H2.157a.82.82 0 100 1.638h6.991a.82.82 0 100-1.638z" fill="#1B1B1B"/></svg>