<svg width="20" height="20" fill="none" xmlns="http://www.w3.org/2000/svg"><path d="M10 4.565a3.397 3.397 0 100 6.794 3.397 3.397 0 000-6.794zM10 10a2.038 2.038 0 110-4.076A2.038 2.038 0 0110 10z" fill="#212121"/><path d="M10 0a10 10 0 1010 10A10.011 10.011 0 0010 0zM5.714 17.412v-.983a2.145 2.145 0 012.143-2.143h4.286a2.145 2.145 0 012.143 2.143v.983a8.499 8.499 0 01-8.572 0zm9.995-1.036a3.574 3.574 0 00-3.566-3.519H7.857a3.573 3.573 0 00-3.566 3.519 8.571 8.571 0 1111.418 0z" fill="#212121"/></svg>