<svg width="46" height="16" fill="none" xmlns="http://www.w3.org/2000/svg"><path fill-rule="evenodd" clip-rule="evenodd" d="M41.825 14.977s-.33-1.977-.44-2.472h-4.764c-.131.388-.79 2.472-.79 2.472h-3.886l5.511-12.919c.137-.384.403-.71.754-.926a1.845 1.845 0 011.178-.258h2.876l3.008 14.103h-3.447zm-1.91-9.088l-.264-1.206c-.176.539-.506 1.379-.483 1.357 0 0-1.186 3.122-1.47 3.94h3.073c-.152-.713-.857-4.09-.857-4.09zm-7.992-1.764a6.308 6.308 0 00-2.765-.538c-1.472 0-2.13.602-2.153 1.205 0 .668.792 1.097 2.107 1.74 2.13.99 3.118 2.216 3.096 3.83-.022 2.906-2.546 4.8-6.455 4.8a11.494 11.494 0 01-4.13-.753l.506-3.164.506.237c1.078.52 2.268.78 3.469.753 1.076 0 2.217-.43 2.24-1.378 0-.623-.483-1.077-1.933-1.764-1.405-.668-3.271-1.787-3.25-3.81.023-2.734 2.591-4.65 6.258-4.65a9.577 9.577 0 013.337.58L32.25 4.27l-.327-.145zM15.59 14.977L17.917.874h3.708l-2.326 14.103H15.59zm-8.932 0L3.548 3.493c.506.25.984.55 1.428.893a15.36 15.36 0 013.417 3.847l.062.304.395 1.938L12.494.874h3.93l-5.84 14.103H6.659zm1.516-7.87l.154.77-.154-.77z" fill="#A6A6A6"/><path opacity=".35" fill-rule="evenodd" clip-rule="evenodd" d="M4.972 4.386a8.462 8.462 0 00-1.428-.893l-.211-.781A15.002 15.002 0 000 1.332V.895h5.7c.341 0 .672.116.937.327.265.211.448.505.52.833L8.391 8.23a15.361 15.361 0 00-3.42-3.844z" fill="#A6A6A6"/></svg>