<svg width="38" height="12" fill="none" xmlns="http://www.w3.org/2000/svg"><g clip-path="url(#clip0_434_9008)"><path d="M13.934 11.642L15.864.42h3.016l-1.87 11.22h-3.076z" fill="#3C58BF"/><path d="M13.934 11.642L16.407.42h2.473l-1.87 11.22h-3.076z" fill="#293688"/><path d="M27.928.545c-.603-.249-1.569-.498-2.775-.498-3.016 0-5.187 1.558-5.187 3.802 0 1.683 1.508 2.556 2.714 3.117 1.207.561 1.568.935 1.568 1.434 0 .748-.965 1.122-1.81 1.122-1.205 0-1.869-.187-2.894-.623l-.423-.187-.422 2.555c.724.312 2.051.624 3.438.624 3.197 0 5.308-1.559 5.308-3.927 0-1.31-.784-2.307-2.593-3.117-1.086-.561-1.75-.873-1.75-1.434 0-.499.543-.998 1.75-.998 1.025 0 1.749.187 2.292.437l.301.125.483-2.432z" fill="#3C58BF"/><path d="M27.928.545c-.603-.249-1.569-.498-2.775-.498-3.016 0-4.644 1.558-4.644 3.802 0 1.683.965 2.556 2.171 3.117 1.207.561 1.568.935 1.568 1.434 0 .748-.965 1.122-1.81 1.122-1.205 0-1.869-.187-2.894-.623l-.423-.187-.422 2.555c.724.312 2.051.624 3.438.624 3.197 0 5.308-1.559 5.308-3.927 0-1.31-.784-2.307-2.593-3.117-1.086-.561-1.75-.873-1.75-1.434 0-.499.543-.998 1.75-.998 1.025 0 1.749.187 2.292.437l.301.125.483-2.432z" fill="#293688"/><path d="M33.114.42c-.724 0-1.267.063-1.569.811l-4.524 10.41h3.258l.603-1.87h3.86l.362 1.87h2.895L35.466.422h-2.352zm-1.388 7.481c.181-.56 1.207-3.303 1.207-3.303s.24-.686.422-1.123l.18 1.06s.604 2.805.725 3.429h-2.534V7.9z" fill="#3C58BF"/><path d="M33.837.42c-.724 0-1.266.063-1.568.811l-5.247 10.41h3.257l.603-1.87h3.86l.362 1.87h2.895L35.466.422h-1.629zm-2.11 7.481c.24-.623 1.206-3.303 1.206-3.303s.24-.686.422-1.123l.18 1.06s.604 2.805.725 3.429h-2.534V7.9z" fill="#293688"/><path d="M8.385 8.275l-.301-1.62C7.54 4.785 5.79 2.727 3.86 1.73l2.715 9.974h3.257L14.719.484H11.46l-3.075 7.79z" fill="#3C58BF"/><path d="M8.385 8.275l-.301-1.62C7.54 4.785 5.79 2.727 3.86 1.73l2.715 9.974h3.257L14.719.484h-2.654l-3.68 7.791z" fill="#293688"/><path d="M0 .42l.543.126c3.86.935 6.514 3.303 7.54 6.109L6.997 1.356C6.816.608 6.273.421 5.61.421H0z" fill="#FFBC00"/><path d="M0 .42c3.86.936 7.057 3.367 8.083 6.172L7.057 2.166C6.877 1.418 6.273.982 5.61.982L0 .42z" fill="#F7981D"/><path d="M0 .42c3.86.936 7.057 3.367 8.083 6.172l-.724-2.43c-.181-.749-.422-1.497-1.267-1.809L0 .421z" fill="#ED7C00"/><path d="M11.401 7.901l-2.05-2.12-.966 2.37-.24-1.559C7.6 4.722 5.851 2.665 3.921 1.667l2.714 9.974h3.257l1.508-3.74zm5.609 3.741l-2.594-2.743-.482 2.743h3.076zm6.937-3.865c.241.249.362.436.301.685 0 .748-.965 1.122-1.81 1.122-1.205 0-1.869-.187-2.894-.623l-.423-.187-.422 2.556c.724.312 2.051.623 3.438.623 1.93 0 3.499-.56 4.404-1.558l-2.594-2.618zm3.498 3.865h2.835l.603-1.87h3.86l.363 1.87H38L36.975 7.09l-3.619-3.616.181.998s.604 2.805.724 3.428h-2.533c.241-.623 1.206-3.304 1.206-3.304s.242-.685.422-1.122" fill="#051244"/></g><defs><clipPath id="clip0_434_9008"><path fill="#fff" d="M0 0h38v12H0z"/></clipPath></defs></svg>