<svg width="23" height="13" fill="none" xmlns="http://www.w3.org/2000/svg"><path d="M19.732 5.473c.308-.404.553-.728.733-.972 1.3-1.754 1.864-2.875 1.69-3.363l-.067-.114c-.045-.07-.162-.132-.35-.19-.187-.056-.428-.066-.72-.028L17.77.83a.912.912 0 00-.372.04c-.023.012-.042.02-.056.029l-.046.034a.504.504 0 00-.123.12.78.78 0 00-.113.2 18.974 18.974 0 01-1.206 2.574 25.23 25.23 0 01-.767 1.23 5.862 5.862 0 01-.586.766 3.97 3.97 0 01-.428.394c-.128.1-.226.142-.293.127a5.577 5.577 0 01-.192-.046.751.751 0 01-.254-.28 1.272 1.272 0 01-.13-.447 4.885 4.885 0 01-.039-.463 9.292 9.292 0 01.006-.55c.008-.236.011-.395.011-.48 0-.289.006-.604.017-.943.011-.34.02-.608.028-.807.008-.198.011-.408.011-.629 0-.22-.013-.394-.04-.52a1.836 1.836 0 00-.117-.366.612.612 0 00-.232-.275 1.293 1.293 0 00-.377-.154c-.399-.092-.906-.14-1.522-.149C9.553.22 8.655.311 8.257.51a1.527 1.527 0 00-.429.343c-.135.168-.154.26-.056.274.451.07.77.233.958.492l.068.138c.052.099.105.274.158.526.052.251.086.53.101.835a9.015 9.015 0 010 1.43 17.23 17.23 0 01-.107.926 1.86 1.86 0 01-.152.537 2.26 2.26 0 01-.135.252.2.2 0 01-.056.058.835.835 0 01-.305.057c-.105 0-.233-.054-.383-.16a2.681 2.681 0 01-.468-.441 5.854 5.854 0 01-.547-.784 13.649 13.649 0 01-.631-1.19l-.18-.331a28.222 28.222 0 01-.463-.932 17.981 17.981 0 01-.518-1.184.757.757 0 00-.27-.366L4.784.955a.763.763 0 00-.18-.097 1.201 1.201 0 00-.26-.075L1.257.806c-.316 0-.53.073-.643.218l-.045.068a.373.373 0 00-.034.183c0 .084.023.187.068.309a37.999 37.999 0 001.47 3.111c.53 1 .991 1.804 1.382 2.414.39.61.789 1.186 1.195 1.727.406.542.674.888.806 1.04.131.154.235.268.31.344l.282.275c.18.183.445.402.794.657.35.256.737.508 1.162.755.424.248.918.45 1.482.607a5.04 5.04 0 001.646.188h1.296c.263-.022.462-.106.597-.251l.045-.058a.78.78 0 00.085-.21c.026-.096.04-.201.04-.315a3.818 3.818 0 01.073-.887 2.37 2.37 0 01.191-.595 1.458 1.458 0 01.435-.503.9.9 0 01.09-.04c.18-.061.392-.002.637.177.244.18.473.4.687.664.214.263.472.558.773.886.3.328.563.572.789.732l.225.138c.15.09.346.175.586.251.24.076.451.095.631.057l2.886-.046c.286 0 .508-.047.665-.143.158-.094.252-.2.282-.314a.902.902 0 00.006-.389 1.433 1.433 0 00-.079-.303A1.585 1.585 0 0022 11.41c-.376-.686-1.094-1.529-2.153-2.527l-.023-.023-.011-.012-.012-.011h-.01c-.482-.465-.786-.778-.914-.938-.233-.305-.286-.614-.158-.926.09-.238.428-.737 1.014-1.5z" fill="#fff"/></svg>