<svg width="18" height="18" fill="none" xmlns="http://www.w3.org/2000/svg"><path d="M15.345 2.619A8.834 8.834 0 009.035 0C4.123 0 .118 4.005.118 8.92c0 1.574.414 3.104 1.188 4.454L.045 18l4.725-1.242a8.921 8.921 0 004.266 1.09c4.914 0 8.919-4.006 8.919-8.92a8.863 8.863 0 00-2.61-6.309zm-6.31 13.716a7.436 7.436 0 01-3.78-1.035l-.27-.162-2.807.738.747-2.736-.18-.279A7.438 7.438 0 011.61 8.92c0-4.086 3.33-7.416 7.416-7.416 1.98 0 3.843.774 5.238 2.178a7.365 7.365 0 012.169 5.247c.018 4.086-3.312 7.407-7.398 7.407zm4.069-5.544c-.225-.108-1.323-.648-1.521-.729-.207-.072-.351-.108-.504.108-.153.225-.576.73-.702.873-.126.153-.261.171-.486.054-.225-.108-.945-.35-1.791-1.107-.666-.594-1.107-1.323-1.242-1.548-.126-.225-.018-.342.099-.459.099-.099.225-.26.333-.387.108-.126.153-.225.225-.369.072-.153.036-.279-.018-.387a74.104 74.104 0 01-.684-1.656c-.18-.432-.37-.378-.504-.387h-.432a.808.808 0 00-.594.28c-.198.224-.774.764-.774 1.862s.8 2.16.909 2.304c.108.153 1.575 2.403 3.807 3.366.53.234.945.37 1.269.468.53.171 1.017.144 1.404.09.432-.063 1.323-.54 1.503-1.062.189-.522.189-.963.126-1.062-.063-.099-.198-.144-.423-.252z" fill="#212121"/></svg>