<svg width="16" height="16" fill="none" xmlns="http://www.w3.org/2000/svg"><path d="M13.64 2.328A7.854 7.854 0 008.03 0C3.663 0 .103 3.56.103 7.928c0 1.4.368 2.76 1.056 3.96L.04 16l4.2-1.104a7.93 7.93 0 003.792.968c4.368 0 7.928-3.56 7.928-7.928 0-2.12-.824-4.112-2.32-5.608zM8.03 14.52a6.61 6.61 0 01-3.36-.92l-.24-.144-2.496.656.664-2.432-.16-.248A6.611 6.611 0 011.43 7.928c0-3.632 2.96-6.592 6.592-6.592 1.76 0 3.416.688 4.656 1.936a6.548 6.548 0 011.928 4.664c.016 3.632-2.944 6.584-6.576 6.584zm3.616-4.928c-.2-.096-1.176-.576-1.352-.648-.184-.064-.312-.096-.448.096-.136.2-.512.648-.624.776-.112.136-.232.152-.432.048-.2-.096-.84-.312-1.592-.984-.592-.528-.984-1.176-1.104-1.376-.112-.2-.016-.304.088-.408.088-.088.2-.232.296-.344.096-.112.136-.2.2-.328.064-.136.032-.248-.016-.344a65.87 65.87 0 01-.608-1.472c-.16-.384-.328-.336-.448-.344h-.384a.719.719 0 00-.528.248c-.176.2-.688.68-.688 1.656 0 .976.712 1.92.808 2.048.096.136 1.4 2.136 3.384 2.992.472.208.84.328 1.128.416.472.152.904.128 1.248.08.384-.056 1.176-.48 1.336-.944.168-.464.168-.856.112-.944-.056-.088-.176-.128-.376-.224z" fill="#fff"/></svg>