<svg width="18" height="18" fill="none" xmlns="http://www.w3.org/2000/svg"><g clip-path="url(#clip0_167_762)"><path d="M15.3 2.619A8.834 8.834 0 008.991 0C4.077 0 .072 4.005.072 8.92c0 1.574.414 3.104 1.188 4.454L0 18l4.725-1.242a8.921 8.921 0 004.266 1.09c4.914 0 8.919-4.006 8.919-8.92A8.863 8.863 0 0015.3 2.62zM8.991 16.335a7.436 7.436 0 01-3.78-1.035l-.27-.162-2.808.738.747-2.736-.18-.279A7.438 7.438 0 011.566 8.92c0-4.086 3.33-7.416 7.416-7.416 1.98 0 3.843.774 5.238 2.178a7.367 7.367 0 012.169 5.247c.018 4.086-3.312 7.407-7.398 7.407zm4.068-5.544c-.225-.108-1.323-.648-1.521-.729-.207-.072-.351-.108-.504.108-.153.225-.576.73-.702.873-.126.153-.261.171-.486.054-.225-.108-.945-.35-1.791-1.107-.666-.594-1.107-1.323-1.242-1.548-.126-.225-.018-.342.099-.459.099-.099.225-.26.333-.387.108-.126.153-.225.225-.369.072-.153.036-.279-.018-.387a74.104 74.104 0 01-.684-1.656c-.18-.432-.369-.378-.504-.387h-.432a.808.808 0 00-.594.28c-.198.224-.774.764-.774 1.862s.801 2.16.909 2.304c.108.153 1.575 2.403 3.807 3.366.531.234.945.37 1.269.468.531.171 1.017.144 1.404.09.432-.063 1.323-.54 1.503-1.062.189-.522.189-.963.126-1.062-.063-.099-.198-.144-.423-.252z" fill="#54CA60"/></g><defs><clipPath id="clip0_167_762"><path fill="#fff" d="M0 0h18v18H0z"/></clipPath></defs></svg>