<svg width="20" height="19" viewBox="0 0 20 19" fill="none" xmlns="http://www.w3.org/2000/svg">
<path d="M19.2185 8.25098L19.2185 8.25093C19.4749 8.00313 19.5637 7.64463 19.4536 7.30817C19.3431 6.9717 19.0576 6.73122 18.6993 6.67944C18.6993 6.67943 18.6992 6.67943 18.6992 6.67942L13.8568 5.98172L13.8566 5.9817C13.4896 5.9287 13.1698 5.7 13.0039 5.36609C13.0038 5.36604 13.0038 5.36599 13.0038 5.36594C13.0038 5.36588 13.0037 5.36581 13.0037 5.36575L10.8389 1.01538L10.8388 1.01526C10.6811 0.698111 10.3623 0.5 10.0002 0.5C9.63863 0.5 9.31972 0.698041 9.16197 1.01526L9.1619 1.0154L6.9967 5.36615L19.2185 8.25098ZM19.2185 8.25098L15.7147 11.6379L15.7145 11.6381C15.4475 11.8964 15.3232 12.27 15.3869 12.6386C15.3869 12.6386 15.3869 12.6386 15.3869 12.6386L16.2139 17.4205L16.214 17.4212C16.262 17.6962 16.191 17.9557 16.0132 18.1642L16.0127 18.1648C15.8309 18.3788 15.5685 18.5 15.2933 18.5C15.1437 18.5 14.9983 18.4647 14.8575 18.3912L14.8572 18.391L10.5261 16.1331L10.5245 16.1322C10.201 15.9651 9.80149 15.963 9.4748 16.1328L9.47429 16.1331L5.14364 18.391C4.75681 18.5926 4.26517 18.4919 3.98786 18.165L3.98739 18.1645C3.80961 17.9556 3.73846 17.6966 3.78642 17.4211L3.78652 17.4205L4.61307 12.6388C4.61308 12.6387 4.61309 12.6386 4.61311 12.6385C4.67684 12.2704 4.55245 11.8964 4.28549 11.6381L4.28528 11.6379L0.78152 8.25136L0.781489 8.25133C0.525119 8.00358 0.436378 7.64519 0.546343 7.30879C0.656824 6.97202 0.942861 6.73127 1.30052 6.67986L1.30068 6.67984L6.14324 5.98212L6.14339 5.9821M19.2185 8.25098L6.14339 5.9821M6.14339 5.9821C6.50998 5.92916 6.83035 5.70079 6.99653 5.3665L6.14339 5.9821Z" fill="white" stroke="#FEC057"/>
</svg>
