<svg width="29" height="27" viewBox="0 0 29 27" fill="none" xmlns="http://www.w3.org/2000/svg">
<path d="M12.1194 24.9231C12.1194 25.3339 12.001 25.7354 11.779 26.077C11.5571 26.4185 11.2416 26.6847 10.8725 26.8419C10.5034 26.9991 10.0973 27.0402 9.70546 26.9601C9.31363 26.88 8.95372 26.6821 8.67123 26.3917C8.38874 26.1012 8.19637 25.7311 8.11843 25.3283C8.04049 24.9254 8.08049 24.5078 8.23337 24.1283C8.38625 23.7488 8.64515 23.4244 8.97732 23.1962C9.30949 22.968 9.70002 22.8462 10.0995 22.8462C10.6352 22.8462 11.149 23.065 11.5278 23.4545C11.9066 23.844 12.1194 24.3722 12.1194 24.9231ZM23.2289 22.8462C22.8294 22.8462 22.4389 22.968 22.1067 23.1962C21.7745 23.4244 21.5156 23.7488 21.3627 24.1283C21.2099 24.5078 21.1699 24.9254 21.2478 25.3283C21.3257 25.7311 21.5181 26.1012 21.8006 26.3917C22.0831 26.6821 22.443 26.88 22.8348 26.9601C23.2267 27.0402 23.6328 26.9991 24.0019 26.8419C24.371 26.6847 24.6864 26.4185 24.9084 26.077C25.1303 25.7354 25.2488 25.3339 25.2488 24.9231C25.2488 24.3722 25.036 23.844 24.6572 23.4545C24.2784 23.065 23.7646 22.8462 23.2289 22.8462ZM28.9611 6.51609L25.6285 18.5097C25.4458 19.1595 25.0632 19.731 24.5379 20.1383C24.0127 20.5457 23.3732 20.7671 22.7153 20.7692H10.6131C9.95518 20.7671 9.31568 20.5457 8.79046 20.1384C8.26523 19.731 7.88258 19.1595 7.69987 18.5097L4.37271 6.53569C4.36894 6.52304 4.3654 6.51031 4.36211 6.49752L3.13375 2.07692H1.00995C0.742096 2.07692 0.485211 1.96751 0.295808 1.77276C0.106405 1.57802 0 1.31388 0 1.03846C0 0.763044 0.106405 0.498908 0.295808 0.304158C0.485211 0.109409 0.742096 0 1.00995 0H3.13363C3.57222 0.00145885 3.99854 0.149026 4.3487 0.420588C4.69886 0.692149 4.95401 1.07308 5.07589 1.50629L6.10011 5.19231H27.9901C28.1464 5.19231 28.3006 5.22962 28.4405 5.30131C28.5804 5.373 28.7022 5.47711 28.7964 5.60543C28.8905 5.73376 28.9544 5.8828 28.983 6.04082C29.0116 6.19885 29.0041 6.36154 28.9611 6.51609ZM26.6511 7.26923H6.6773L9.64214 17.9392C9.70304 18.1558 9.83057 18.3462 10.0056 18.482C10.1807 18.6178 10.3938 18.6916 10.6131 18.6923H22.7153C22.9346 18.6916 23.1477 18.6178 23.3228 18.482C23.4978 18.3462 23.6254 18.1558 23.6863 17.9392L26.6511 7.26923Z" fill="#212121"/>
</svg>
