<svg width="25" height="25" viewBox="0 0 25 25" fill="none" xmlns="http://www.w3.org/2000/svg">
<g clip-path="url(#clip0_434_8845)">
<path d="M22.7536 8.594H18.7497V1.75942C18.7497 1.14576 18.4381 0.586782 17.9161 0.26413C17.3941 -0.0584732 16.7548 -0.0872814 16.2059 0.187178C16.1989 0.190693 16.1919 0.194307 16.185 0.198017L1.69397 7.99684C0.649112 8.55918 0 9.64569 0 10.8322V10.8401V11.3283V22.754C0 23.9924 1.0076 25 2.24606 25H22.7536C23.9921 25 24.9997 23.9924 24.9997 22.754V10.8401C24.9997 9.6016 23.9921 8.594 22.7536 8.594ZM16.9114 1.58145C16.9889 1.5458 17.0536 1.56797 17.0946 1.59331C17.1369 1.61943 17.1872 1.66948 17.1872 1.75947V8.59405H3.88139L16.9114 1.58145ZM23.4372 22.754C23.4372 23.1309 23.1305 23.4375 22.7536 23.4375H2.24606C1.86912 23.4375 1.56248 23.1309 1.56248 22.754V11.3283V10.8401C1.56248 10.4631 1.86912 10.1565 2.24606 10.1565H22.7536C23.1305 10.1565 23.4372 10.4631 23.4372 10.8401V22.754Z" fill="#212121"/>
<path d="M20.3125 18.3594C19.4509 18.3594 18.75 17.6585 18.75 16.7969C18.75 15.9353 19.4509 15.2344 20.3125 15.2344C21.1741 15.2344 21.875 15.9353 21.875 16.7969C21.875 17.6585 21.174 18.3594 20.3125 18.3594ZM20.3125 16.7969C20.3125 16.7976 20.3125 16.7979 20.3125 16.7979L20.3125 16.7969Z" fill="#212121"/>
</g>
<defs>
<clipPath id="clip0_434_8845">
<rect width="25" height="25" fill="white"/>
</clipPath>
</defs>
</svg>
