<svg width="26" height="20" viewBox="0 0 26 20" fill="none" xmlns="http://www.w3.org/2000/svg">
<path d="M19.6367 12.458C17.8295 12.458 16.3594 13.9282 16.3594 15.7353C16.3594 17.5425 17.8295 19.0126 19.6367 19.0126C21.4442 19.0126 22.914 17.5425 22.914 15.7353C22.914 13.9282 21.4438 12.458 19.6367 12.458ZM19.6367 17.374C18.733 17.374 17.998 16.639 17.998 15.7353C17.998 14.8316 18.733 14.0967 19.6367 14.0967C20.5404 14.0967 21.2754 14.8316 21.2754 15.7353C21.2754 16.6391 20.5404 17.374 19.6367 17.374Z" fill="#212121"/>
<path d="M8.43943 12.458C6.63228 12.458 5.16211 13.9282 5.16211 15.7353C5.16211 17.5425 6.63228 19.0126 8.43943 19.0126C10.2466 19.0126 11.7167 17.5425 11.7167 15.7353C11.7167 13.9282 10.2466 12.458 8.43943 12.458ZM8.43943 17.374C7.53573 17.374 6.80077 16.639 6.80077 15.7353C6.80077 14.8316 7.53573 14.0967 8.43943 14.0967C9.34288 14.0967 10.0781 14.8316 10.0781 15.7353C10.0781 16.6391 9.34313 17.374 8.43943 17.374Z" fill="#212121"/>
<path d="M21.8442 3.07717C21.7049 2.80051 21.4217 2.62598 21.112 2.62598H16.7969V4.26464H20.6067L22.8378 8.7021L24.3022 7.96578L21.8442 3.07717Z" fill="#212121"/>
<path d="M17.1781 14.9434H10.9785V16.582H17.1781V14.9434Z" fill="#212121"/>
<path d="M5.98089 14.9434H3.14059C2.68803 14.9434 2.32129 15.3102 2.32129 15.7627C2.32129 16.2152 2.68808 16.582 3.14059 16.582H5.98094C6.4335 16.582 6.80024 16.2152 6.80024 15.7627C6.80024 15.3101 6.43345 14.9434 5.98089 14.9434Z" fill="#212121"/>
<path d="M25.8278 9.93435L24.2162 7.85872C24.0614 7.65879 23.8224 7.54189 23.5692 7.54189H17.6154V1.80661C17.6154 1.35405 17.2486 0.987305 16.7961 0.987305H3.14059C2.68803 0.987305 2.32129 1.3541 2.32129 1.80661C2.32129 2.25912 2.68808 2.62591 3.14059 2.62591H15.9767V8.3612C15.9767 8.81376 16.3435 9.1805 16.796 9.1805H23.168L24.3612 10.7175V14.9431H22.0943C21.6418 14.9431 21.275 15.3099 21.275 15.7624C21.275 16.215 21.6418 16.5817 22.0943 16.5817H25.1805C25.633 16.5817 25.9998 16.2149 25.9998 15.7624V10.4369C25.9998 10.255 25.9392 10.078 25.8278 9.93435Z" fill="#212121"/>
<path d="M5.92613 10.792H2.1572C1.70463 10.792 1.33789 11.1588 1.33789 11.6113C1.33789 12.0639 1.70468 12.4306 2.1572 12.4306H5.92608C6.37864 12.4306 6.74538 12.0638 6.74538 11.6113C6.74543 11.1588 6.37864 10.792 5.92613 10.792Z" fill="#212121"/>
<path d="M7.81092 7.56934H0.819305C0.366793 7.56934 0 7.93613 0 8.38869C0 8.84125 0.366793 9.208 0.819305 9.208H7.81092C8.26348 9.208 8.63022 8.8412 8.63022 8.38869C8.63022 7.93618 8.26348 7.56934 7.81092 7.56934Z" fill="#212121"/>
<path d="M9.14881 4.34668H2.1572C1.70463 4.34668 1.33789 4.71347 1.33789 5.16598C1.33789 5.61854 1.70468 5.98528 2.1572 5.98528H9.14881C9.60137 5.98528 9.96812 5.61849 9.96812 5.16598C9.96817 4.71347 9.60137 4.34668 9.14881 4.34668Z" fill="#212121"/>
</svg>
