<svg width="25" height="25" viewBox="0 0 25 25" fill="none" xmlns="http://www.w3.org/2000/svg">
<path d="M12.4998 5.70654C11.6601 5.70654 10.8392 5.95556 10.1409 6.42211C9.44268 6.88866 8.89847 7.55178 8.57711 8.32762C8.25575 9.10346 8.17166 9.95717 8.33549 10.7808C8.49932 11.6044 8.90371 12.361 9.49751 12.9548C10.0913 13.5486 10.8479 13.953 11.6715 14.1168C12.4951 14.2806 13.3488 14.1965 14.1247 13.8752C14.9005 13.5538 15.5636 13.0096 16.0302 12.3114C16.4967 11.6131 16.7458 10.7922 16.7458 9.95247C16.7458 8.82638 16.2984 7.74641 15.5022 6.95014C14.7059 6.15388 13.6259 5.70654 12.4998 5.70654ZM12.4998 12.5C11.996 12.5 11.5034 12.3506 11.0845 12.0707C10.6655 11.7907 10.339 11.3929 10.1462 10.9274C9.95338 10.4619 9.90293 9.94964 10.0012 9.45546C10.0995 8.96129 10.3422 8.50735 10.6984 8.15107C11.0547 7.79479 11.5087 7.55216 12.0028 7.45386C12.497 7.35556 13.0092 7.40601 13.4747 7.59883C13.9402 7.79165 14.3381 8.11818 14.618 8.53712C14.898 8.95606 15.0474 9.44861 15.0474 9.95247C15.0467 10.6279 14.7781 11.2755 14.3005 11.7531C13.8229 12.2307 13.1753 12.4993 12.4998 12.5Z" fill="#212121"/>
<path d="M12.5 0C10.0277 0 7.61099 0.733112 5.55538 2.10663C3.49976 3.48015 1.89761 5.43238 0.951511 7.71646C0.00541603 10.0005 -0.242126 12.5139 0.24019 14.9386C0.722505 17.3634 1.91301 19.5907 3.66117 21.3388C5.40933 23.087 7.63661 24.2775 10.0614 24.7598C12.4861 25.2421 14.9995 24.9946 17.2835 24.0485C19.5676 23.1024 21.5199 21.5002 22.8934 19.4446C24.2669 17.389 25 14.9723 25 12.5C24.9962 9.18595 23.678 6.00873 21.3347 3.66534C18.9913 1.32196 15.814 0.003781 12.5 0ZM7.14286 21.7652V20.5357C7.14357 19.8255 7.426 19.1446 7.92818 18.6425C8.43036 18.1403 9.11125 17.8578 9.82143 17.8571H15.1786C15.8888 17.8578 16.5696 18.1403 17.0718 18.6425C17.574 19.1446 17.8564 19.8255 17.8571 20.5357V21.7652C16.2314 22.7145 14.3826 23.2147 12.5 23.2147C10.6174 23.2147 8.7686 22.7145 7.14286 21.7652ZM19.6357 20.4696C19.6179 19.2985 19.1408 18.1812 18.3071 17.3586C17.4734 16.5359 16.3498 16.0736 15.1786 16.0714H9.82143C8.65017 16.0736 7.52664 16.5359 6.69294 17.3586C5.85924 18.1812 5.38208 19.2985 5.36429 20.4696C3.74515 19.0239 2.60334 17.1204 2.09004 15.0113C1.57674 12.9022 1.71617 10.6869 2.48986 8.6588C3.26356 6.63069 4.63502 4.88542 6.42266 3.65408C8.21029 2.42274 10.3298 1.76342 12.5004 1.76342C14.6711 1.76342 16.7906 2.42274 18.5782 3.65408C20.3659 4.88542 21.7373 6.63069 22.511 8.6588C23.2847 10.6869 23.4242 12.9022 22.9109 15.0113C22.3976 17.1204 21.2549 19.0239 19.6357 20.4696Z" fill="#212121"/>
</svg>
