<svg width="66" height="66" viewBox="0 0 66 66" fill="none" xmlns="http://www.w3.org/2000/svg">
<path d="M40.0002 0.301979C32.1397 0.301979 24.4556 2.60367 17.9198 6.916C11.384 11.2283 6.29001 17.3576 3.28191 24.5287C0.273812 31.6999 -0.513243 39.5908 1.02027 47.2036C2.55379 54.8165 6.339 61.8093 11.8972 67.2979C17.4555 72.7864 24.5371 76.5242 32.2466 78.0385C39.9561 79.5527 47.9472 78.7756 55.2094 75.8052C62.4716 72.8348 68.6787 67.8046 73.0458 61.3508C77.4128 54.8969 79.7438 47.3092 79.7438 39.5473C79.7438 34.3935 78.7158 29.2902 76.7185 24.5287C74.7212 19.7673 71.7937 15.4409 68.1031 11.7967C64.4126 8.15239 60.0313 5.26161 55.2094 3.28935C50.3875 1.31709 45.2194 0.301979 40.0002 0.301979ZM26.0899 17.9624C27.662 17.9624 29.1988 18.4227 30.506 19.2852C31.8132 20.1476 32.832 21.3735 33.4336 22.8077C34.0352 24.2419 34.1926 25.8201 33.8859 27.3427C33.5792 28.8653 32.8222 30.2638 31.7105 31.3615C30.5989 32.4592 29.1826 33.2068 27.6407 33.5097C26.0988 33.8125 24.5005 33.6571 23.0481 33.063C21.5957 32.4689 20.3542 31.4629 19.4808 30.1721C18.6074 28.8813 18.1412 27.3638 18.1412 25.8114C18.1412 23.7297 18.9787 21.7333 20.4693 20.2613C21.96 18.7893 23.9818 17.9624 26.0899 17.9624ZM26.9126 58.02C26.546 58.3948 26.1075 58.6938 25.6226 58.8995C25.1377 59.1052 24.6162 59.2135 24.0885 59.218C23.5607 59.2225 23.0374 59.1232 22.549 58.9259C22.0605 58.7286 21.6168 58.4371 21.2436 58.0687C20.8705 57.7002 20.5754 57.262 20.3755 56.7797C20.1757 56.2974 20.0751 55.7806 20.0797 55.2595C20.0843 54.7384 20.1939 54.2234 20.4022 53.7446C20.6105 53.2658 20.9133 52.8328 21.2929 52.4707L53.0878 21.0745C53.4544 20.6997 53.8929 20.4007 54.3778 20.195C54.8627 19.9893 55.3842 19.8811 55.9119 19.8765C56.4396 19.872 56.963 19.9713 57.4514 20.1686C57.9398 20.366 58.3836 20.6574 58.7568 21.0259C59.1299 21.3943 59.425 21.8325 59.6249 22.3148C59.8247 22.7971 59.9253 23.3139 59.9207 23.835C59.9161 24.3561 59.8064 24.8711 59.5982 25.3499C59.3899 25.8287 59.0871 26.2618 58.7075 26.6238L26.9126 58.02ZM53.9104 61.1322C52.3383 61.1322 50.8015 60.6718 49.4944 59.8094C48.1872 58.9469 47.1684 57.721 46.5668 56.2868C45.9652 54.8526 45.8078 53.2744 46.1145 51.7518C46.4212 50.2293 47.1782 48.8307 48.2899 47.733C49.4015 46.6353 50.8178 45.8877 52.3597 45.5849C53.9016 45.282 55.4999 45.4375 56.9523 46.0315C58.4047 46.6256 59.6461 47.6316 60.5196 48.9224C61.393 50.2132 61.8592 51.7307 61.8592 53.2831C61.8592 55.3648 61.0217 57.3612 59.531 58.8332C58.0404 60.3052 56.0186 61.1322 53.9104 61.1322Z" fill="#DE2747"/>
</svg>
