<svg width="21" height="21" viewBox="0 0 21 21" fill="none" xmlns="http://www.w3.org/2000/svg">
<path d="M10.5 1.3125C6.16875 1.3125 2.625 4.79062 2.625 9.12187V11.4187C2.625 11.4844 2.625 11.4844 2.625 11.55C2.625 11.6156 2.625 11.7469 2.625 11.8125C2.625 13.65 4.06875 15.0938 5.90625 15.0938C6.3 15.0938 6.5625 14.8313 6.5625 14.4375V9.1875C6.5625 8.79375 6.3 8.53125 5.90625 8.53125C5.18438 8.53125 4.4625 8.79375 3.9375 9.1875V9.05625C3.9375 5.5125 6.89062 2.625 10.5 2.625C14.1094 2.625 17.0625 5.5125 17.0625 9.12187V9.1875C16.5375 8.79375 15.8156 8.53125 15.0938 8.53125C14.7 8.53125 14.4375 8.79375 14.4375 9.1875V14.4375C14.4375 14.8313 14.7 15.0938 15.0938 15.0938C15.5531 15.0938 16.0125 14.9625 16.4062 14.8313C15.75 16.2094 14.5688 17.2594 13.125 17.85C13.125 17.7844 13.125 17.7844 13.125 17.7188C13.125 17.325 12.8625 17.0625 12.4688 17.0625H10.5C10.1062 17.0625 9.84375 17.325 9.84375 17.7188V19.0312C9.84375 19.425 10.1062 19.6875 10.5 19.6875C14.8313 19.6875 18.375 16.275 18.375 12.075V11.4187V9.84375V9.12187C18.375 4.79062 14.8313 1.3125 10.5 1.3125Z" fill="black"/>
</svg>
