<svg width="20" height="16" viewBox="0 0 20 16" fill="none" xmlns="http://www.w3.org/2000/svg">
<path d="M17.7004 0.395881C17.8245 0.27054 17.9726 0.170967 18.136 0.10299C18.2995 0.0350134 18.475 0 18.6522 0C18.8295 0 19.005 0.0350134 19.1684 0.10299C19.3319 0.170967 19.4799 0.27054 19.604 0.395881C20.124 0.916081 20.1313 1.75668 19.6222 2.28588L8.87158 14.8679C8.74952 15.0006 8.6014 15.1072 8.43627 15.1813C8.27115 15.2554 8.0925 15.2953 7.91125 15.2987C7.73 15.3021 7.54996 15.2688 7.38214 15.2009C7.21433 15.133 7.06227 15.0319 6.93526 14.9039L0.393612 8.34108C0.141322 8.08636 0 7.74383 0 7.38708C0 7.03033 0.141322 6.68781 0.393612 6.43308C0.517692 6.30774 0.665784 6.20817 0.829216 6.14019C0.992648 6.07221 1.16814 6.0372 1.34541 6.0372C1.52267 6.0372 1.69816 6.07221 1.8616 6.14019C2.02503 6.20817 2.17312 6.30774 2.2972 6.43308L7.84615 12.0005L17.6641 0.435481C17.6754 0.42157 17.6875 0.408346 17.7004 0.395881Z" fill="#47A12A"/>
</svg>
