<svg width="22" height="22" viewBox="0 0 22 22" fill="none" xmlns="http://www.w3.org/2000/svg">
<path d="M11.0005 5.9061C9.993 5.9061 9.00816 6.20485 8.17049 6.76456C7.33282 7.32428 6.67993 8.11982 6.29439 9.05059C5.90886 9.98136 5.80798 11.0056 6.00453 11.9937C6.20107 12.9818 6.68621 13.8894 7.39859 14.6018C8.11097 15.3142 9.0186 15.7993 10.0067 15.9958C10.9948 16.1924 12.019 16.0915 12.9498 15.706C13.8805 15.3204 14.6761 14.6675 15.2358 13.8299C15.7955 12.9922 16.0943 12.0074 16.0943 10.9999C16.0927 9.64941 15.5556 8.35467 14.6006 7.39973C13.6457 6.44478 12.3509 5.90763 11.0005 5.9061ZM11.0005 14.7649C10.2558 14.7649 9.52789 14.5441 8.90874 14.1304C8.28959 13.7167 7.80702 13.1287 7.52206 12.4407C7.2371 11.7527 7.16254 10.9957 7.30781 10.2654C7.45309 9.53506 7.81167 8.8642 8.33821 8.33766C8.86475 7.81112 9.53561 7.45254 10.2659 7.30726C10.9963 7.16199 11.7533 7.23655 12.4413 7.52151C13.1292 7.80648 13.7172 8.28904 14.1309 8.90819C14.5446 9.52734 14.7654 10.2553 14.7654 10.9999C14.7643 11.9981 14.3673 12.9551 13.6614 13.6609C12.9556 14.3667 11.9986 14.7637 11.0005 14.7649ZM15.8728 0.147888H6.12812C4.54277 0.149705 3.02287 0.780289 1.90185 1.9013C0.780839 3.02232 0.150255 4.54222 0.148438 6.12757V15.8722C0.150255 17.4576 0.780839 18.9775 1.90185 20.0985C3.02287 21.2195 4.54277 21.8501 6.12812 21.8519H15.8728C17.4581 21.8501 18.978 21.2195 20.0991 20.0985C21.2201 18.9775 21.8507 17.4576 21.8525 15.8722V6.12757C21.8507 4.54222 21.2201 3.02232 20.0991 1.9013C18.978 0.780289 17.4581 0.149705 15.8728 0.147888ZM20.5237 15.8722C20.5223 17.1053 20.0318 18.2875 19.1599 19.1594C18.288 20.0313 17.1059 20.5217 15.8728 20.5231H6.12812C4.89506 20.5217 3.71289 20.0313 2.84098 19.1594C1.96908 18.2875 1.47863 17.1053 1.47726 15.8722V6.12757C1.47863 4.89451 1.96908 3.71234 2.84098 2.84044C3.71289 1.96853 4.89506 1.47808 6.12812 1.47671H15.8728C17.1059 1.47808 18.288 1.96853 19.1599 2.84044C20.0318 3.71234 20.5223 4.89451 20.5237 6.12757V15.8722ZM17.866 5.24169C17.866 5.46071 17.8011 5.6748 17.6794 5.8569C17.5577 6.039 17.3848 6.18094 17.1824 6.26475C16.9801 6.34856 16.7574 6.37049 16.5426 6.32776C16.3278 6.28504 16.1305 6.17957 15.9757 6.02471C15.8208 5.86984 15.7153 5.67253 15.6726 5.45773C15.6299 5.24292 15.6518 5.02027 15.7356 4.81793C15.8194 4.61559 15.9614 4.44264 16.1435 4.32097C16.3256 4.19929 16.5397 4.13434 16.7587 4.13434C17.0522 4.1347 17.3337 4.25148 17.5413 4.45907C17.7489 4.66666 17.8657 4.94811 17.866 5.24169Z" fill="#DE2747"/>
<path fill-rule="evenodd" clip-rule="evenodd" d="M6.12767 0L15.8723 1.02905e-07C17.4969 0.00186221 19.0545 0.648034 20.2032 1.79676C21.352 2.94548 21.9981 4.50295 22 6.1275V15.8723C21.9981 17.4969 21.352 19.0545 20.2032 20.2032C19.0545 21.352 17.497 21.9981 15.8725 22H6.12767C4.50312 21.9981 2.94548 21.352 1.79676 20.2032C0.648034 19.0545 0.00186211 17.497 1.02905e-07 15.8725L0 6.12767C0.00186201 4.50312 0.648034 2.94548 1.79676 1.79676C2.94548 0.648034 4.50312 0.00186201 6.12767 0ZM6.12784 0.295964C4.58167 0.297736 3.09934 0.912733 2.00604 2.00604C0.912754 3.09932 0.29776 4.58161 0.295964 6.12775L0.295964 15.8722C0.297736 17.4183 0.912733 18.9007 2.00604 19.994C3.09934 21.0873 4.58167 21.7023 6.12784 21.704H15.8722C17.4183 21.7023 18.9007 21.0873 19.994 19.994C21.0873 18.9007 21.7023 17.4183 21.704 15.8722V6.12784C21.7023 4.58167 21.0873 3.09934 19.994 2.00604C18.9007 0.912754 17.4184 0.29776 15.8723 0.295964L6.12784 0.295964ZM6.12767 1.32882L15.8723 1.32882C17.1446 1.33024 18.3645 1.83627 19.2641 2.73589C20.1637 3.63551 20.6698 4.85525 20.6712 6.1275V15.8723C20.6698 17.1446 20.1637 18.3645 19.2641 19.2641C18.3645 20.1637 17.1448 20.6698 15.8725 20.6712H6.12767C4.85541 20.6698 3.63551 20.1637 2.73589 19.2641C1.83627 18.3645 1.33024 17.1448 1.32882 15.8725L1.32882 6.12767C1.33024 4.85541 1.83627 3.63551 2.73589 2.73589C3.63551 1.83627 4.85541 1.33024 6.12767 1.32882ZM15.8722 1.62478H6.12783C4.93396 1.62612 3.78936 2.10097 2.94517 2.94517C2.10097 3.78936 1.62612 4.93396 1.62478 6.12783V15.8722C1.62612 17.066 2.10097 18.2106 2.94517 19.0548C3.78936 19.899 4.93396 20.3739 6.12783 20.3752H15.8722C17.066 20.3739 18.2106 19.899 19.0548 19.0548C19.899 18.2106 20.3739 17.066 20.3752 15.8722V6.12783C20.3739 4.93396 19.899 3.78936 19.0548 2.94517C18.2106 2.10097 17.066 1.62612 15.8722 1.62478ZM16.758 4.28242C16.5683 4.28245 16.3829 4.33872 16.2252 4.4441C16.0674 4.54952 15.9445 4.69935 15.8719 4.87465C15.7993 5.04995 15.7803 5.24285 15.8173 5.42895C15.8543 5.61505 15.9457 5.78599 16.0798 5.92016C16.214 6.05433 16.385 6.1457 16.5711 6.18272C16.7571 6.21974 16.95 6.20074 17.1253 6.12813C17.3006 6.05551 17.4505 5.93255 17.5559 5.77478C17.6613 5.61706 17.7175 5.43165 17.7176 5.24196C17.7173 4.98757 17.6161 4.74368 17.4362 4.5638C17.2563 4.38392 17.0124 4.28272 16.758 4.28242ZM18.0135 5.24161C18.0131 4.90884 17.8808 4.58982 17.6455 4.35452C17.4102 4.11922 17.0912 3.98685 16.7584 3.98646C16.5101 3.98646 16.2672 4.06008 16.0608 4.19802C15.8543 4.33595 15.6935 4.53201 15.5984 4.76139C15.5034 4.99077 15.4786 5.24318 15.527 5.48669C15.5754 5.7302 15.695 5.95388 15.8706 6.12944C16.0461 6.305 16.2698 6.42456 16.5133 6.473C16.7568 6.52143 17.0092 6.49657 17.2386 6.40156C17.468 6.30655 17.664 6.14565 17.802 5.93921C17.9399 5.73277 18.0135 5.48989 18.0135 5.24161ZM8.08782 6.64161C8.94983 6.06564 9.96327 5.75821 11 5.75821C12.3897 5.75978 13.7222 6.31253 14.7048 7.29518C15.6875 8.27783 16.2402 9.61015 16.2418 10.9998C16.2418 12.0366 15.9344 13.0502 15.3584 13.9122C14.7824 14.7742 13.9638 15.446 13.0059 15.8428C12.0481 16.2395 10.9942 16.3433 9.97738 16.1411C8.96057 15.9388 8.02657 15.4396 7.2935 14.7065C6.56042 13.9734 6.06119 13.0394 5.85893 12.0226C5.65668 11.0058 5.76048 9.95187 6.15722 8.99406C6.55396 8.03624 7.22581 7.21759 8.08782 6.64161ZM10.9998 6.05418C10.0217 6.05421 9.06554 6.34428 8.25225 6.8877C7.43891 7.43115 6.80499 8.20359 6.43066 9.10732C6.05632 10.011 5.95838 11.0055 6.14921 11.9649C6.34005 12.9243 6.81109 13.8055 7.50278 14.4972C8.19446 15.1889 9.07572 15.66 10.0351 15.8508C10.9945 16.0416 11.989 15.9437 12.8927 15.5693C13.7964 15.195 14.5688 14.5611 15.1123 13.7478C15.6557 12.9345 15.9458 11.9783 15.9458 11.0002C15.9443 9.68886 15.4228 8.43169 14.4955 7.50446C13.5683 6.57723 12.3111 6.05566 10.9998 6.05418ZM12.3842 7.65832C11.7232 7.38456 10.996 7.31293 10.2944 7.4525C9.59273 7.59206 8.94824 7.93655 8.44239 8.44239C7.93654 8.94824 7.59206 9.59273 7.4525 10.2944C7.31293 10.996 7.38456 11.7232 7.65832 12.3842C7.93209 13.0451 8.39569 13.61 8.9905 14.0074C9.58527 14.4048 10.2845 14.617 10.9998 14.617C11.9588 14.6159 12.8782 14.2345 13.5563 13.5563C14.2345 12.8782 14.6159 11.9588 14.617 10.9998C14.617 10.2845 14.4048 9.58527 14.0074 8.9905C13.61 8.39569 13.0451 7.93209 12.3842 7.65832ZM11.0002 14.913C12.0375 14.9118 13.0321 14.4992 13.7656 13.7656C14.4992 13.0321 14.9118 12.0375 14.913 11.0002C14.913 10.2263 14.6835 9.46956 14.2535 8.82607C13.8236 8.18259 13.2124 7.68105 12.4974 7.38489C11.7824 7.08873 10.9957 7.01124 10.2366 7.16222C9.47758 7.3132 8.78035 7.68588 8.23311 8.23311C7.68587 8.78035 7.3132 9.47758 7.16222 10.2366C7.01124 10.9957 7.08873 11.7824 7.38489 12.4974C7.68105 13.2124 8.18259 13.8236 8.82607 14.2535C9.46956 14.6835 10.2263 14.913 11.0002 14.913Z" fill="#DE2747"/>
</svg>
