<svg width="58" height="60" viewBox="0 0 58 60" fill="none" xmlns="http://www.w3.org/2000/svg">
<path d="M13.4595 6.01265V5.99479C13.418 5.94998 13.3674 5.91442 13.311 5.89059C13.2403 5.86074 13.163 5.85036 13.0871 5.8605C13.0111 5.87065 12.9392 5.90095 12.8786 5.94836C12.8181 5.99577 12.7712 6.0586 12.7428 6.13041L12.7405 6.13634L12.7403 6.13629L10.8326 10.4182L10.8308 10.4222L10.8307 10.4221C10.7973 10.4917 10.7829 10.569 10.789 10.646C10.7952 10.7231 10.8217 10.797 10.8657 10.8603C10.9098 10.9235 10.9697 10.9737 11.0394 11.0059C11.109 11.0379 11.1857 11.0508 11.2618 11.0432L13.4595 6.01265ZM13.4595 6.01265L13.4878 6.05193L16.2273 9.85479L16.2272 9.85488L16.2314 9.86016C16.2805 9.92227 16.3118 9.99677 16.3218 10.0756C16.3317 10.1544 16.32 10.2344 16.2879 10.307C16.2558 10.3796 16.2046 10.4418 16.1398 10.487C16.0751 10.5323 15.9993 10.5588 15.9208 10.5637L15.9208 10.5636L15.9149 10.5642L11.2622 11.0432L13.4595 6.01265ZM11.4415 1.23238L6.33128 12.6826C6.22597 12.8968 6.18063 13.1357 6.20011 13.3738C6.21967 13.6129 6.30386 13.8422 6.44366 14.0369C6.58347 14.2315 6.77361 14.3843 6.99363 14.4785C7.21277 14.5724 7.45322 14.6046 7.68922 14.5718L20.113 13.2872C20.3509 13.2718 20.5801 13.1917 20.7761 13.0554C20.9729 12.9186 21.1286 12.7305 21.2266 12.5113C21.3245 12.2922 21.361 12.0504 21.332 11.812C21.3032 11.5746 21.2106 11.3496 21.064 11.161L13.7504 0.995376C13.6181 0.796727 13.4345 0.637817 13.2192 0.535745C13.0029 0.433246 12.7628 0.391975 12.5248 0.416419C12.2869 0.440862 12.0601 0.530084 11.869 0.674391C11.6787 0.818103 11.531 1.011 11.4415 1.23238Z" fill="#DE2747" stroke="#DE2747" stroke-width="0.3"/>
<path d="M4.00582 30.3318V30.3315C4.01076 30.156 3.98071 29.9812 3.91741 29.8174C3.85383 29.6529 3.75799 29.5029 3.63555 29.3762C3.5131 29.2496 3.36654 29.1488 3.20454 29.0801C3.04256 29.0113 2.86845 28.9759 2.69256 28.976C2.69253 28.976 2.69251 28.976 2.69249 28.976H2.16327C1.81476 28.976 1.48066 29.115 1.23442 29.3623C0.98821 29.6096 0.850005 29.9449 0.850005 30.2943V30.2948V30.2953V30.2958V30.2963V30.2968V30.2973V30.2978V30.2983V30.2988V30.2993V30.2998V30.3003V30.3008V30.3013V30.3018V30.3023V30.3028V30.3033V30.3038V30.3043V30.3048V30.3054V30.3059V30.3064V30.3069V30.3074V30.3079V30.3084V30.3089V30.3094V30.3099V30.3104V30.3109V30.3114V30.3119V30.3124V30.3129V30.3134V30.3139V30.3144V30.3149V30.3154V30.3159V30.3164V30.3169V30.3174V30.3179V30.3184V30.3189V30.3194V30.3199V30.3204V30.3209V30.3214V30.3219V30.3224V30.3229V30.3234V30.3239V30.3244V30.3249V30.3254V30.3259V30.3264V30.3269V30.3274V30.3279V30.3284V30.3289V30.3294V30.33V30.3305V30.331V30.3315V30.332V30.3325V30.333V30.3335V30.334V30.3345V30.335V30.3355V30.336V30.3365V30.337V30.3375V30.338V30.3385V30.339V30.3395V30.34V30.3405V30.341V30.3415V30.342V30.3425V30.343V30.3435V30.344V30.3445V30.345V30.3455V30.346V30.3465V30.347V30.3475V30.348V30.3485V30.349V30.3495V30.35V30.3505V30.351V30.3515V30.352V30.3525V30.353V30.3535V30.354V30.3545V30.3551V30.3556V30.3561V30.3566V30.3571V30.3576V30.3581V30.3586V30.3591V30.3596V30.3601V30.3606V30.3611V30.3616V30.3621V30.3626V30.3631V30.3636V30.3641V30.3646V30.3651V30.3656V30.3661V30.3666V30.3671V30.3676V30.3681V30.3686V30.3691V30.3696V30.3701V30.3706V30.3711V30.3716V30.3721V30.3726V30.3731V30.3736V30.3741V30.3746V30.3751V30.3756V30.3761V30.3766V30.3771V30.3776V30.3781V30.3786V30.3791V30.3796V30.3801V30.3807V30.3812V30.3817V30.3822V30.3827V30.3832V30.3837V30.3842V30.3847V30.3852V30.3857V30.3862V30.3867V30.3872V30.3877V30.3882V30.3887V30.3892V30.3897V30.3902V30.3907V30.3912V30.3917V30.3922V30.3927V30.3932V30.3937V30.3942V30.3947V30.3952V30.3957V30.3962V30.3967V30.3972V30.3977V30.3982V30.3987V30.3992V30.3997V30.4002V30.4007V30.4012V30.4017V30.4022V30.4027V30.4032V30.4037V30.4042V30.4047V30.4053V30.4058V30.4063V30.4068V30.4073V30.4078V30.4083V30.4088V30.4093V30.4098V30.4103V30.4108V30.4113V30.4118V30.4123V30.4128V30.4133V30.4138V30.4143V30.4148V30.4153V30.4158V30.4163V30.4168V30.4173V30.4178V30.4183V30.4188V30.4193V30.4198V30.4203V30.4208V30.4213V30.4218V30.4223V30.4228V30.4233V30.4238V30.4243V30.4248V30.4253V30.4258V30.4263V30.4268V30.4273V30.4278V30.4283V30.4288V30.4293V30.4298V30.4304V30.4309V30.4314V30.4319V30.4324V30.4329V30.4334V30.4339V30.4344V30.4349V30.4354V30.4359V30.4364V30.4369V30.4374V30.4379V30.4384V30.4389V30.4394V30.4399V30.4404V30.4409V30.4414V30.4419V30.4424V30.4429V30.4434V30.4439V30.4444V30.4449V30.4454V30.4459V30.4464V30.4469V30.4474V30.4479V30.4484V30.4489V30.4494V30.4499V30.4504V30.4509V30.4514V30.4519V30.4524V30.4529V30.4534V30.4539V30.4544V30.4549V30.4555V30.456V30.4565V30.457V30.4575V30.458V30.4585V30.459V30.4595V30.46V30.4605V30.461V30.4615V30.462V30.4625V30.463V30.4635V30.464V30.4645V30.465V30.4655V30.466V30.4665V30.467V30.4675V30.468V30.4685V30.469V30.4695V30.47V30.4705V30.471V30.4715V30.472V30.4725V30.473V30.4735V30.474V30.4745V30.475V30.4755V30.476V30.4765V30.477V30.4775V30.478V30.4785V30.479V30.4795V30.48V30.4806V30.4811V30.4816V30.4821V30.4826V30.4831V30.4836V30.4841V30.4846V30.4851V30.4856V30.4861V30.4866V30.4871V30.4876V30.4881V30.4886V30.4891V30.4896V30.4901V30.4906V30.4911V30.4916V30.4921V30.4926V30.4931V30.4936V30.4941V30.4946V30.4951V30.4956V30.4961V30.4966V30.4971V30.4976V30.4981V30.4986V30.4991V30.4996V30.5001V30.5006V30.5011V30.5016V30.5021V30.5026V30.5031V30.5036V30.5041V30.5046V30.5051V30.5057V30.5062V30.5067V30.5072V30.5077V30.5082V30.5087V30.5092V30.5097V30.5102V30.5107V30.5112V30.5117V30.5122V30.5127V30.5132V30.5137V30.5142V30.5147V30.5152V30.5157V30.5162V30.5167V30.5172V30.5177V30.5182V30.5187V30.5192V30.5197V30.5202V30.5207V30.5212V30.5217V30.5222V30.5227V30.5232V30.5237V30.5242V30.5247V30.5252V30.5257V30.5262V30.5267V30.5272V30.5277V30.5282V30.5287V30.5292V30.5297V30.5303V30.5308V30.5313V30.5318V30.5323V30.5328V30.5333V30.5338V30.5343V30.5348V30.5353V30.5358V30.5363V30.5368V30.5373V30.5378V30.5383V30.5388V30.5393V30.5398V30.5403V30.5408V30.5413V30.5418V30.5423V30.5428V30.5433V30.5438V30.5443V30.5448V30.5453V30.5458V30.5463V30.5468V30.5473V30.5478V30.5483V30.5488V30.5493V30.5498V30.5503V30.5508V30.5513C0.846526 36.2058 2.51316 41.7343 5.63911 46.4373C8.76507 51.1403 13.2099 54.8064 18.4112 56.9716C23.6125 59.1369 29.3365 59.7039 34.8589 58.601C40.3812 57.498 45.4536 54.7746 49.4342 50.7755C52.0776 48.1214 54.1745 44.9703 55.6051 41.5022C57.0357 38.0341 57.7721 34.3169 57.7721 30.563C57.7721 26.8091 57.0357 23.0919 55.6051 19.6238C54.1745 16.1557 52.0776 13.0046 49.4341 10.3505L49.1779 10.0932V10.1025C44.977 5.99426 39.6144 3.28451 33.8195 2.34757C27.9062 1.39148 21.8433 2.33001 16.4911 5.02996L16.3336 5.1094L16.4373 5.25207L18.1357 7.5887L18.2095 7.69022L18.3224 7.6355C23.2678 5.23979 28.8547 4.52396 34.2405 5.59593C39.6263 6.6679 44.5191 9.46958 48.1811 13.5786C51.8432 17.6876 54.0758 22.8811 54.5421 28.376C55.0084 33.8709 53.6832 39.3691 50.7664 44.0413C47.8496 48.7136 43.4994 52.3066 38.3718 54.2786C33.2443 56.2505 27.6175 56.4947 22.3398 54.9741C17.0621 53.4536 12.4196 50.2508 9.11247 45.8486C5.80541 41.4464 4.01306 36.0836 4.00582 30.5689C4.00582 30.5688 4.00582 30.5687 4.00582 30.5687L4.00582 30.5684V30.5679V30.5675V30.567V30.5666V30.5661V30.5657V30.5652V30.5648V30.5643V30.5638V30.5634V30.5629V30.5625V30.562V30.5616V30.5611V30.5606V30.5602V30.5597V30.5593V30.5588V30.5584V30.5579V30.5574V30.557V30.5565V30.5561V30.5556V30.5551V30.5547V30.5542V30.5538V30.5533V30.5529V30.5524V30.5519V30.5515V30.551V30.5506V30.5501V30.5497V30.5492V30.5487V30.5483V30.5478V30.5474V30.5469V30.5464V30.546V30.5455V30.5451V30.5446V30.5442V30.5437V30.5432V30.5428V30.5423V30.5419V30.5414V30.5409V30.5405V30.54V30.5396V30.5391V30.5386V30.5382V30.5377V30.5373V30.5368V30.5363V30.5359V30.5354V30.535V30.5345V30.534V30.5336V30.5331V30.5327V30.5322V30.5317V30.5313V30.5308V30.5304V30.5299V30.5294V30.529V30.5285V30.5281V30.5276V30.5271V30.5267V30.5262V30.5258V30.5253V30.5248V30.5244V30.5239V30.5235V30.523V30.5225V30.5221V30.5216V30.5212V30.5207V30.5202V30.5198V30.5193V30.5189V30.5184V30.5179V30.5175V30.517V30.5165V30.5161V30.5156V30.5152V30.5147V30.5142V30.5138V30.5133V30.5129V30.5124V30.5119V30.5115V30.511V30.5105V30.5101V30.5096V30.5092V30.5087V30.5082V30.5078V30.5073V30.5068V30.5064V30.5059V30.5055V30.505V30.5045V30.5041V30.5036V30.5031V30.5027V30.5022V30.5018V30.5013V30.5008V30.5004V30.4999V30.4994V30.499V30.4985V30.4981V30.4976V30.4971V30.4967V30.4962V30.4957V30.4953V30.4948V30.4943V30.4939V30.4934V30.493V30.4925V30.492V30.4916V30.4911V30.4906V30.4902V30.4897V30.4892V30.4888V30.4883V30.4878V30.4874V30.4869V30.4865V30.486V30.4855V30.4851V30.4846V30.4841V30.4837V30.4832V30.4827V30.4823V30.4818V30.4813V30.4809V30.4804V30.4799V30.4795V30.479V30.4786V30.4781V30.4776V30.4772V30.4767V30.4762V30.4758V30.4753V30.4748V30.4744V30.4739V30.4734V30.473V30.4725V30.472V30.4716V30.4711V30.4706V30.4702V30.4697V30.4692V30.4688V30.4683V30.4678V30.4674V30.4669V30.4664V30.466V30.4655V30.465V30.4646V30.4641V30.4636V30.4632V30.4627V30.4622V30.4618V30.4613V30.4608V30.4604V30.4599V30.4594V30.459V30.4585V30.458V30.4576V30.4571V30.4566V30.4562V30.4557V30.4552V30.4548V30.4543V30.4538V30.4534V30.4529V30.4524V30.452V30.4515V30.451V30.4506V30.4501V30.4496V30.4492V30.4487V30.4482V30.4478V30.4473V30.4468V30.4464V30.4459V30.4454V30.445V30.4445V30.444V30.4435V30.4431V30.4426V30.4421V30.4417V30.4412V30.4407V30.4403V30.4398V30.4393V30.4389V30.4384V30.4379V30.4375V30.437V30.4365V30.436V30.4356V30.4351V30.4346V30.4342V30.4337V30.4332V30.4328V30.4323V30.4318V30.4314V30.4309V30.4304V30.4299V30.4295V30.429V30.4285V30.4281V30.4276V30.4271V30.4267V30.4262V30.4257V30.4252V30.4248V30.4243V30.4238V30.4234V30.4229V30.4224V30.422V30.4215V30.421V30.4205V30.4201V30.4196V30.4191V30.4187V30.4182V30.4177V30.4172V30.4168V30.4163V30.4158V30.4154V30.4149V30.4144V30.4139V30.4135V30.413V30.4125V30.4121V30.4116V30.4111V30.4106V30.4102V30.4097V30.4092V30.4088V30.4083V30.4078V30.4073V30.4069V30.4064V30.4059V30.4055V30.405V30.4045V30.404V30.4036V30.4031V30.4026V30.4021V30.4017V30.4012V30.4007V30.4003V30.3998V30.3993V30.3988V30.3984V30.3979V30.3974V30.397V30.3965V30.396V30.3955V30.3951V30.3946V30.3941V30.3936V30.3932V30.3927V30.3922V30.3917V30.3913V30.3908V30.3903V30.3899V30.3894V30.3889V30.3884V30.388V30.3875V30.387V30.3865V30.3861V30.3856V30.3851V30.3846V30.3842V30.3837V30.3832V30.3827V30.3823V30.3818V30.3813V30.3808V30.3804V30.3799V30.3794V30.379V30.3785V30.378V30.3775V30.3771V30.3766V30.3761V30.3756V30.3752V30.3747V30.3742V30.3737V30.3733V30.3728V30.3723V30.3718V30.3714V30.3709V30.3704V30.3699V30.3694V30.369V30.3685V30.368V30.3675V30.3671V30.3666V30.3661V30.3656V30.3652V30.3647V30.3642V30.3637V30.3633V30.3628V30.3623V30.3618V30.3614V30.3609V30.3604V30.3599V30.3595V30.359V30.3585V30.358V30.3575V30.3571V30.3566V30.3561V30.3556V30.3552V30.3547V30.3542V30.3537V30.3533V30.3528V30.3523V30.3518V30.3514V30.3509V30.3504V30.3499V30.3494V30.349V30.3485V30.348V30.3475V30.3471V30.3466V30.3461V30.3456V30.3451V30.3447V30.3442V30.3437V30.3432V30.3428V30.3423V30.3418V30.3413V30.3408V30.3404V30.3399V30.3394V30.3389V30.3385V30.338V30.3375V30.337V30.3365V30.3361V30.3356V30.3351V30.3346V30.3341V30.3337V30.3332V30.3327V30.3322V30.3318Z" fill="#DE2747" stroke="#DE2747" stroke-width="0.3"/>
<path d="M37.2532 23.1268C36.9735 23.1302 36.702 23.0323 36.4884 22.851C36.2747 22.6697 36.1333 22.4171 36.09 22.1396C35.8561 20.6781 35.1115 19.348 33.9897 18.3878C32.8679 17.4277 31.4422 16.9004 29.9683 16.9004C28.4944 16.9004 27.0687 17.4277 25.9468 18.3878C24.825 19.348 24.0804 20.6781 23.8466 22.1396C23.8033 22.4171 23.6618 22.6697 23.4482 22.851C23.2345 23.0323 22.963 23.1302 22.6833 23.1268H15.1221C14.9563 23.1255 14.7921 23.1598 14.6406 23.2275C14.4891 23.2951 14.3537 23.3945 14.2435 23.5189C14.1334 23.6434 14.051 23.7901 14.0019 23.9491C13.9528 24.1082 13.9381 24.276 13.9588 24.4412L16.0527 38.607C16.2677 40.2983 17.0892 41.8529 18.3632 42.9797C19.6372 44.1066 21.2765 44.7285 22.9741 44.729H36.9333C38.631 44.7285 40.2703 44.1066 41.5443 42.9797C42.8183 41.8529 43.6397 40.2983 43.8548 38.607L45.9486 24.4412C45.9694 24.276 45.9547 24.1082 45.9056 23.9491C45.8565 23.7901 45.7741 23.6434 45.6639 23.5189C45.5538 23.3945 45.4184 23.2951 45.2669 23.2275C45.1153 23.1598 44.9512 23.1255 44.7854 23.1268H37.2532ZM29.9828 19.7154C30.7638 19.7164 31.5209 19.9859 32.1283 20.479C32.7357 20.9721 33.1567 21.6591 33.3214 22.4258C33.3389 22.5117 33.3369 22.6004 33.3156 22.6854C33.2943 22.7704 33.2542 22.8494 33.1984 22.9168C33.1425 22.9841 33.0723 23.0379 32.9929 23.0743C32.9135 23.1106 32.827 23.1286 32.7398 23.1268H27.2142C27.127 23.1286 27.0405 23.1106 26.9611 23.0743C26.8817 23.0379 26.8115 22.9841 26.7556 22.9168C26.6998 22.8494 26.6597 22.7704 26.6384 22.6854C26.6171 22.6004 26.6151 22.5117 26.6326 22.4258C26.7966 21.6561 27.2188 20.9662 27.8287 20.4717C28.4385 19.9772 29.199 19.7082 29.9828 19.7095V19.7154ZM36.5553 41.9133H23.4104C22.2778 41.9123 21.1844 41.4964 20.3353 40.7436C19.4862 39.9908 18.9396 38.9528 18.798 37.8242L17.0531 26.5675C17.0423 26.4847 17.0493 26.4005 17.0736 26.3206C17.098 26.2407 17.1391 26.167 17.1942 26.1044C17.2494 26.0419 17.3172 25.9919 17.3932 25.9579C17.4692 25.9239 17.5516 25.9067 17.6348 25.9074H42.296C42.3792 25.9067 42.4615 25.9239 42.5375 25.9579C42.6135 25.9919 42.6814 26.0419 42.7365 26.1044C42.7916 26.167 42.8327 26.2407 42.8571 26.3206C42.8814 26.4005 42.8884 26.4847 42.8776 26.5675L41.1327 37.8242C40.9945 38.949 40.4541 39.985 39.612 40.7394C38.7699 41.4938 37.6836 41.9151 36.5553 41.925V41.9133Z" fill="#DE2747"/>
<path d="M30.1163 29.7161H29.651C29.0086 29.7161 28.4878 30.2391 28.4878 30.8844V36.8369C28.4878 37.4822 29.0086 38.0053 29.651 38.0053H30.1163C30.7588 38.0053 31.2796 37.4822 31.2796 36.8369V30.8844C31.2796 30.2391 30.7588 29.7161 30.1163 29.7161Z" fill="#DE2747"/>
<path d="M35.229 29.7161H34.7637C34.1213 29.7161 33.6005 30.2391 33.6005 30.8844V36.8369C33.6005 37.4822 34.1213 38.0053 34.7637 38.0053H35.229C35.8715 38.0053 36.3923 37.4822 36.3923 36.8369V30.8844C36.3923 30.2391 35.8715 29.7161 35.229 29.7161Z" fill="#DE2747"/>
<path d="M24.9977 29.7161H24.5324C23.89 29.7161 23.3691 30.2391 23.3691 30.8844V36.8369C23.3691 37.4822 23.89 38.0053 24.5324 38.0053H24.9977C25.6402 38.0053 26.161 37.4822 26.161 36.8369V30.8844C26.161 30.2391 25.6402 29.7161 24.9977 29.7161Z" fill="#DE2747"/>
</svg>
