<svg width="58" height="60" viewBox="0 0 58 60" fill="none" xmlns="http://www.w3.org/2000/svg">
<path d="M6.99363 14.4785C7.21276 14.5724 7.4532 14.6046 7.68919 14.5718L20.1131 13.2872C20.3509 13.2718 20.5801 13.1917 20.7761 13.0554C20.9729 12.9186 21.1286 12.7305 21.2266 12.5113C21.3245 12.2922 21.361 12.0504 21.332 11.812C21.3032 11.5746 21.2105 11.3496 21.064 11.161L13.7504 0.995375C13.6181 0.796726 13.4345 0.637817 13.2192 0.535745C13.0029 0.433246 12.7628 0.391975 12.5248 0.416419C12.2869 0.440862 12.0601 0.530084 11.869 0.674391C11.6787 0.818106 11.531 1.01101 11.4415 1.23239L6.33128 12.6826C6.22597 12.8968 6.18063 13.1357 6.20011 13.3738C6.21967 13.6129 6.30386 13.8422 6.44366 14.0369C6.58347 14.2315 6.77361 14.3843 6.99363 14.4785ZM13.4595 5.99479V6.01265L13.4878 6.05193L16.2273 9.85479L16.2272 9.85488L16.2314 9.86016C16.2805 9.92227 16.3118 9.99677 16.3218 10.0756C16.3317 10.1544 16.32 10.2344 16.2879 10.307C16.2558 10.3795 16.2046 10.4418 16.1398 10.487C16.0751 10.5323 15.9993 10.5588 15.9208 10.5637L15.9208 10.5636L15.9149 10.5642L11.2622 11.0432C11.2622 11.0432 11.2621 11.0432 11.2621 11.0432C11.1859 11.0509 11.1091 11.038 11.0394 11.0059C10.9697 10.9737 10.9098 10.9235 10.8657 10.8603C10.8217 10.797 10.7952 10.7231 10.789 10.646C10.7829 10.569 10.7973 10.4917 10.8307 10.4221L10.8308 10.4222L10.8326 10.4182L12.7403 6.13629L12.7405 6.13634L12.7428 6.13041C12.7712 6.0586 12.8181 5.99577 12.8786 5.94836C12.9392 5.90095 13.0111 5.87065 13.0871 5.8605C13.163 5.85036 13.2403 5.86074 13.311 5.89059C13.3674 5.91442 13.418 5.94998 13.4595 5.99479Z" fill="#DE2747" stroke="#DE2747" stroke-width="0.3"/>
<path d="M4.00582 30.5687L4.00582 30.3315C4.01076 30.156 3.98071 29.9812 3.91741 29.8174C3.85383 29.6529 3.75799 29.5029 3.63555 29.3762C3.5131 29.2496 3.36654 29.1488 3.20454 29.0801C3.04256 29.0113 2.86845 28.9759 2.69256 28.976C2.69253 28.976 2.69251 28.976 2.69249 28.976H2.16327C1.81476 28.976 1.48066 29.115 1.23442 29.3623C0.98821 29.6096 0.850005 29.9449 0.850005 30.2943V30.5513C0.846526 36.2058 2.51316 41.7343 5.63911 46.4373C8.76507 51.1403 13.2099 54.8064 18.4112 56.9716C23.6125 59.1369 29.3365 59.7039 34.8589 58.601C40.3812 57.498 45.4535 54.7746 49.4341 50.7756C52.0776 48.1214 54.1745 44.9703 55.6051 41.5022C57.0357 38.0341 57.7721 34.3169 57.7721 30.563C57.7721 26.8091 57.0357 23.0919 55.6051 19.6238C54.1745 16.1557 52.0776 13.0046 49.4341 10.3505L49.1779 10.0932V10.1025C44.977 5.99426 39.6144 3.28451 33.8195 2.34757C27.9062 1.39148 21.8433 2.33001 16.4911 5.02996L16.3336 5.1094L16.4373 5.25207L18.1357 7.5887L18.2095 7.69022L18.3224 7.6355C23.2678 5.23979 28.8547 4.52396 34.2405 5.59593C39.6263 6.6679 44.5191 9.46958 48.1811 13.5786C51.8432 17.6876 54.0758 22.8811 54.5421 28.376C55.0084 33.8709 53.6832 39.3691 50.7664 44.0413C47.8496 48.7136 43.4994 52.3066 38.3718 54.2786C33.2443 56.2505 27.6175 56.4947 22.3398 54.9741C17.0621 53.4536 12.4196 50.2508 9.11247 45.8486C5.80541 41.4464 4.01306 36.0836 4.00582 30.5689C4.00582 30.5688 4.00582 30.5687 4.00582 30.5687Z" fill="#DE2747" stroke="#DE2747" stroke-width="0.3"/>
<path d="M37.2514 22.9768L37.2532 22.9768L44.7848 22.9768H44.7854V23.1268C44.9512 23.1255 45.1153 23.1598 45.2669 23.2275C45.4184 23.2951 45.5538 23.3945 45.6639 23.5189C45.7741 23.6434 45.8565 23.7901 45.9056 23.9491C45.9547 24.1082 45.9694 24.276 45.9486 24.4412L37.2514 22.9768ZM37.2514 22.9768C37.008 22.9798 36.7715 22.8946 36.5854 22.7366C36.3993 22.5787 36.276 22.3585 36.2382 22.1165L36.2381 22.1159C35.9986 20.6193 35.2362 19.2572 34.0872 18.2739C32.9383 17.2906 31.478 16.7504 29.9683 16.7504C28.4585 16.7504 26.9983 17.2906 25.8493 18.2739C24.7004 19.2572 23.9379 20.6193 23.6985 22.1159L23.6984 22.1165C23.6606 22.3585 23.5372 22.5787 23.3511 22.7366C23.165 22.8946 22.9286 22.9798 22.6851 22.9768V22.9768H22.6833H15.1227M37.2514 22.9768L44.0034 38.6275C43.7834 40.3542 42.9446 41.9414 41.6437 43.0921C40.3423 44.2432 38.6677 44.8785 36.9334 44.879H36.9333H22.9741H22.9741C21.2398 44.8785 19.5652 44.2432 18.2638 43.0921C16.9628 41.9414 16.124 40.3541 15.9041 38.6274L13.8104 24.4631L13.81 24.4599L13.81 24.4599C13.7866 24.2735 13.8032 24.0843 13.8586 23.9049C13.9139 23.7255 14.0069 23.56 14.1312 23.4195C14.2555 23.279 14.4084 23.1668 14.5795 23.0905C14.7504 23.0142 14.9356 22.9755 15.1227 22.9768M15.1227 22.9768C15.1229 22.9768 15.1231 22.9768 15.1233 22.9768L15.1221 23.1268V22.9768H15.1227ZM23.4482 22.851C23.2345 23.0323 22.963 23.1302 22.6833 23.1268L36.09 22.1396C35.8561 20.6781 35.1115 19.348 33.9897 18.3878C32.8679 17.4277 31.4422 16.9004 29.9683 16.9004C28.4944 16.9004 27.0687 17.4277 25.9468 18.3878C24.825 19.348 24.0804 20.6781 23.8466 22.1396C23.8033 22.4171 23.6618 22.6697 23.4482 22.851ZM29.8328 19.8627V19.8652L29.9826 19.8654C30.7292 19.8663 31.453 20.1239 32.0337 20.5954C32.6143 21.0667 33.0169 21.7234 33.1745 22.4565C33.1874 22.5202 33.1859 22.5859 33.1701 22.6489C33.1542 22.7122 33.1244 22.771 33.0829 22.821C33.0414 22.871 32.9893 22.9109 32.9304 22.9379C32.8716 22.9649 32.8074 22.9782 32.7428 22.9769V22.9768H32.7398H27.2142V22.9768L27.2112 22.9769C27.1466 22.9782 27.0824 22.9649 27.0236 22.9379C26.9647 22.9109 26.9126 22.871 26.8711 22.821C26.8296 22.771 26.7998 22.7122 26.7839 22.6489C26.7681 22.5859 26.7666 22.5201 26.7795 22.4565C26.9364 21.7204 27.3402 21.0609 27.9232 20.5882C28.4673 20.147 29.1369 19.8935 29.8328 19.8627ZM39.5119 40.6277C38.7347 41.324 37.7425 41.727 36.7053 41.7711V41.7633H36.5553H23.4105C22.3146 41.7623 21.2566 41.3599 20.4348 40.6314C19.613 39.9028 19.0839 38.8981 18.9469 37.8056L18.9469 37.8056L18.9462 37.8013L17.2016 26.5464C17.1939 26.4853 17.1992 26.4232 17.2171 26.3643C17.2353 26.3049 17.2658 26.2501 17.3068 26.2036C17.3477 26.1571 17.3981 26.12 17.4545 26.0948C17.5108 26.0696 17.5718 26.0569 17.6335 26.0574H17.6348L42.296 26.0574L42.2973 26.0574C42.3589 26.0569 42.4199 26.0696 42.4763 26.0948C42.5326 26.12 42.583 26.1571 42.6239 26.2036C42.6649 26.2501 42.6955 26.3049 42.7136 26.3643C42.7316 26.4232 42.7368 26.4853 42.7291 26.5464L40.9845 37.8013L40.9844 37.8012L40.9838 37.8059C40.8501 38.8948 40.3269 39.8976 39.5119 40.6277Z" fill="#DE2747" stroke="#DE2747" stroke-width="0.3"/>
<path d="M30.1164 29.5661H29.6511C28.9252 29.5661 28.3378 30.1569 28.3378 30.8844V36.8369C28.3378 37.5644 28.9252 38.1553 29.6511 38.1553H30.1164C30.8423 38.1553 31.4296 37.5644 31.4296 36.8369V30.8844C31.4296 30.1569 30.8423 29.5661 30.1164 29.5661Z" fill="#DE2747" stroke="#DE2747" stroke-width="0.3"/>
<path d="M35.229 29.5661H34.7637C34.0378 29.5661 33.4505 30.1569 33.4505 30.8844V36.8369C33.4505 37.5644 34.0378 38.1553 34.7637 38.1553H35.229C35.9549 38.1553 36.5423 37.5644 36.5423 36.8369V30.8844C36.5423 30.1569 35.9549 29.5661 35.229 29.5661Z" fill="#DE2747" stroke="#DE2747" stroke-width="0.3"/>
<path d="M24.9977 29.5661H24.5324C23.8065 29.5661 23.2191 30.1569 23.2191 30.8844V36.8369C23.2191 37.5644 23.8065 38.1553 24.5324 38.1553H24.9977C25.7236 38.1553 26.311 37.5644 26.311 36.8369V30.8844C26.311 30.1569 25.7236 29.5661 24.9977 29.5661Z" fill="#DE2747" stroke="#DE2747" stroke-width="0.3"/>
</svg>
