<svg width="50" height="64" viewBox="0 0 50 64" fill="none" xmlns="http://www.w3.org/2000/svg">
<path d="M50 25.3427C50 11.3663 38.7844 0 25 0C11.2156 0 0 11.3663 0 25.3427C0 34.8643 5.20859 43.1749 12.8899 47.5043V62.1176C12.8899 62.8047 13.2613 63.4384 13.8555 63.7678C14.4466 64.0941 15.1739 64.0753 15.7465 63.702L25 57.7098L34.2535 63.7051C34.5599 63.8996 34.9065 64 35.2532 64C35.5595 64 35.8659 63.9247 36.1445 63.771C36.7387 63.4416 37.1101 62.8047 37.1101 62.1208V47.5075C44.7914 43.1749 50 34.8643 50 25.3427ZM33.3963 58.6792L25.9996 53.8886C25.39 53.4965 24.6101 53.4965 24.0004 53.8886L16.6037 58.6792V49.2078C19.2282 50.1584 22.0568 50.6792 25 50.6792C27.9432 50.6792 30.7719 50.1584 33.3963 49.2078V58.6792ZM34.7363 44.5239C34.5197 44.5867 34.3216 44.6902 34.1452 44.822C31.3722 46.1647 28.2712 46.9176 24.9969 46.9176C21.7226 46.9176 18.6216 46.1647 15.8486 44.822C15.6722 44.6902 15.4741 44.5867 15.2575 44.5239C8.40555 40.9349 3.7107 33.6816 3.7107 25.3396C3.71689 13.4463 13.2644 3.76471 25 3.76471C36.7356 3.76471 46.2831 13.4463 46.2831 25.3427C46.2831 33.6847 41.5883 40.9349 34.7363 44.5239ZM35.4017 17.7506C36.1259 18.4816 36.1259 19.6769 35.4017 20.411L23.0503 32.9318C22.6882 33.2988 22.2116 33.4839 21.7381 33.4839C21.2645 33.4839 20.7879 33.2988 20.4259 32.9318L14.8799 27.3098C14.1557 26.5788 14.1557 25.3835 14.8799 24.6494C15.6041 23.9153 16.7801 23.9153 17.5074 24.6494L21.7381 28.9349L32.7773 17.7475C33.5015 17.0133 34.6744 17.0133 35.4017 17.7506Z" fill="#DE2747"/>
</svg>
