<svg width="93" height="74" viewBox="0 0 93 74" fill="none" xmlns="http://www.w3.org/2000/svg">
<g filter="url(#filter0_d_1342_11062)">
<path d="M40.4776 56.5385C40.4776 57.2231 40.2775 57.8923 39.9025 58.4616C39.5274 59.0308 38.9944 59.4745 38.3708 59.7365C37.7471 59.9985 37.0609 60.0671 36.3989 59.9335C35.7368 59.7999 35.1287 59.4702 34.6514 58.9861C34.1741 58.502 33.849 57.8852 33.7173 57.2138C33.5857 56.5423 33.6532 55.8463 33.9116 55.2138C34.1699 54.5813 34.6073 54.0407 35.1686 53.6603C35.7298 53.2799 36.3897 53.0769 37.0647 53.0769C37.9699 53.0769 38.838 53.4416 39.478 54.0908C40.1181 54.7399 40.4776 55.6204 40.4776 56.5385ZM59.2488 53.0769C58.5738 53.0769 57.914 53.2799 57.3527 53.6603C56.7914 54.0407 56.354 54.5813 56.0957 55.2138C55.8374 55.8463 55.7698 56.5423 55.9015 57.2138C56.0332 57.8852 56.3582 58.502 56.8355 58.9861C57.3128 59.4702 57.9209 59.7999 58.583 59.9335C59.245 60.0671 59.9313 59.9985 60.5549 59.7365C61.1785 59.4745 61.7116 59.0308 62.0866 58.4616C62.4616 57.8923 62.6618 57.2231 62.6618 56.5385C62.6618 55.6204 62.3022 54.7399 61.6621 54.0908C61.0221 53.4416 60.154 53.0769 59.2488 53.0769ZM68.9343 25.8601L63.3034 45.8494C62.9947 46.9325 62.3481 47.8849 61.4607 48.5639C60.5732 49.2429 59.4927 49.6118 58.3811 49.6154H37.9324C36.8208 49.6118 35.7403 49.2429 34.8528 48.5639C33.9654 47.885 33.3188 46.9326 33.0101 45.8494L27.3884 25.8928C27.382 25.8717 27.376 25.8505 27.3705 25.8292L25.295 18.4615H21.7065C21.2539 18.4615 20.8198 18.2792 20.4998 17.9546C20.1798 17.63 20 17.1898 20 16.7308C20 16.2717 20.1798 15.8315 20.4998 15.5069C20.8198 15.1823 21.2539 15 21.7065 15H25.2948C26.0358 15.0024 26.7562 15.2484 27.3478 15.701C27.9395 16.1536 28.3706 16.7885 28.5765 17.5105L30.3071 23.6538H67.2936C67.5577 23.6538 67.8182 23.716 68.0546 23.8355C68.291 23.955 68.4969 24.1285 68.6559 24.3424C68.815 24.5563 68.9229 24.8047 68.9712 25.068C69.0195 25.3314 69.0069 25.6026 68.9343 25.8601ZM65.0312 27.1154H31.2823L36.2919 44.8986C36.3948 45.2596 36.6103 45.577 36.906 45.8033C37.2018 46.0297 37.562 46.1526 37.9324 46.1538H58.3811C58.7516 46.1526 59.1117 46.0297 59.4075 45.8033C59.7033 45.577 59.9187 45.2596 60.0216 44.8986L65.0312 27.1154Z" fill="#3F4249"/>
<rect x="49.5" y="12.5" width="26" height="26" rx="13" fill="#DE2747"/>
<path d="M65.6172 25.8613V24.6191C65.6172 24.2324 65.5801 23.8672 65.5059 23.5234C65.4355 23.1797 65.332 22.8633 65.1953 22.5742C65.0703 22.3203 64.9199 22.0879 64.7441 21.877C64.5723 21.666 64.3711 21.4863 64.1406 21.3379C63.9102 21.1816 63.6504 21.0625 63.3613 20.9805C63.0762 20.8945 62.7695 20.8516 62.4414 20.8516C62.1172 20.8516 61.8164 20.8926 61.5391 20.9746C61.2617 21.0566 61.0117 21.1738 60.7891 21.3262C60.5625 21.4824 60.3613 21.6699 60.1855 21.8887C60.0137 22.1074 59.8672 22.3516 59.7461 22.6211C59.6211 22.9062 59.5254 23.2168 59.459 23.5527C59.3965 23.8887 59.3652 24.2441 59.3652 24.6191V25.8613C59.3652 26.2129 59.3926 26.5469 59.4473 26.8633C59.5059 27.1797 59.5898 27.4727 59.6992 27.7422C59.8203 28.0352 59.9707 28.2988 60.1504 28.5332C60.3301 28.7637 60.5332 28.9609 60.7598 29.125C60.9902 29.2812 61.2461 29.4023 61.5273 29.4883C61.8086 29.5742 62.1152 29.6172 62.4473 29.6172C62.7598 29.6172 63.0508 29.5781 63.3203 29.5C63.5938 29.4258 63.8438 29.3203 64.0703 29.1836C64.3203 29.0273 64.543 28.832 64.7383 28.5977C64.9336 28.3633 65.0977 28.1055 65.2305 27.8242C65.3555 27.543 65.4512 27.2383 65.5176 26.9102C65.584 26.5781 65.6172 26.2285 65.6172 25.8613ZM63.9473 24.6074V25.8613C63.9473 26.0723 63.9355 26.2754 63.9121 26.4707C63.8926 26.666 63.8613 26.8457 63.8184 27.0098C63.7637 27.2207 63.6895 27.4102 63.5957 27.5781C63.5059 27.7422 63.3945 27.8789 63.2617 27.9883C63.1562 28.0781 63.0352 28.1465 62.8984 28.1934C62.7617 28.2402 62.6113 28.2637 62.4473 28.2637C62.2754 28.2637 62.1211 28.2383 61.9844 28.1875C61.8516 28.1367 61.7324 28.0645 61.627 27.9707C61.5137 27.8652 61.4141 27.7285 61.3281 27.5605C61.2461 27.3887 61.1836 27.1992 61.1406 26.9922C61.1016 26.8281 61.0742 26.6504 61.0586 26.459C61.043 26.2676 61.0352 26.0684 61.0352 25.8613V24.6074C61.0352 24.3887 61.043 24.1797 61.0586 23.9805C61.0781 23.7812 61.1074 23.5977 61.1465 23.4297C61.1973 23.2109 61.2676 23.0195 61.3574 22.8555C61.4512 22.6914 61.5645 22.5547 61.6973 22.4453C61.7949 22.3711 61.9043 22.3145 62.0254 22.2754C62.1504 22.2363 62.2891 22.2168 62.4414 22.2168C62.6016 22.2168 62.7461 22.2383 62.875 22.2812C63.0078 22.3242 63.127 22.3848 63.2324 22.4629C63.3652 22.5684 63.4805 22.7051 63.5781 22.873C63.6758 23.0371 63.7539 23.2246 63.8125 23.4355C63.8594 23.6035 63.8926 23.7871 63.9121 23.9863C63.9355 24.1816 63.9473 24.3887 63.9473 24.6074Z" fill="white"/>
<rect x="49.5" y="12.5" width="26" height="26" rx="13" stroke="white"/>
</g>
<defs>
<filter id="filter0_d_1342_11062" x="-4" y="0" width="101" height="82" filterUnits="userSpaceOnUse" color-interpolation-filters="sRGB">
<feFlood flood-opacity="0" result="BackgroundImageFix"/>
<feColorMatrix in="SourceAlpha" type="matrix" values="0 0 0 0 0 0 0 0 0 0 0 0 0 0 0 0 0 0 127 0" result="hardAlpha"/>
<feOffset dy="4"/>
<feGaussianBlur stdDeviation="2"/>
<feComposite in2="hardAlpha" operator="out"/>
<feColorMatrix type="matrix" values="0 0 0 0 0 0 0 0 0 0 0 0 0 0 0 0 0 0 0.25 0"/>
<feBlend mode="normal" in2="BackgroundImageFix" result="effect1_dropShadow_1342_11062"/>
<feBlend mode="normal" in="SourceGraphic" in2="effect1_dropShadow_1342_11062" result="shape"/>
</filter>
</defs>
</svg>
