<svg width="12" height="13" viewBox="0 0 12 13" fill="none" xmlns="http://www.w3.org/2000/svg">
<path d="M3.75 1.44582C3.55109 1.44582 3.36032 1.52189 3.21967 1.6573C3.07902 1.7927 3 1.97635 3 2.16785C3 2.35934 3.07902 2.54299 3.21967 2.6784C3.36032 2.8138 3.55109 2.88987 3.75 2.88987C3.94891 2.88987 4.13968 2.8138 4.28033 2.6784C4.42098 2.54299 4.5 2.35934 4.5 2.16785C4.5 1.97635 4.42098 1.7927 4.28033 1.6573C4.13968 1.52189 3.94891 1.44582 3.75 1.44582ZM1.6275 1.44582C1.78245 1.02305 2.0698 0.65696 2.44995 0.398009C2.8301 0.139059 3.28432 0 3.75 0C4.21568 0 4.6699 0.139059 5.05005 0.398009C5.4302 0.65696 5.71755 1.02305 5.8725 1.44582H11.25C11.4489 1.44582 11.6397 1.52189 11.7803 1.6573C11.921 1.7927 12 1.97635 12 2.16785C12 2.35934 11.921 2.54299 11.7803 2.6784C11.6397 2.8138 11.4489 2.88987 11.25 2.88987H5.8725C5.71755 3.31264 5.4302 3.67873 5.05005 3.93768C4.6699 4.19663 4.21568 4.33569 3.75 4.33569C3.28432 4.33569 2.8301 4.19663 2.44995 3.93768C2.0698 3.67873 1.78245 3.31264 1.6275 2.88987H0.75C0.551088 2.88987 0.360322 2.8138 0.21967 2.6784C0.0790178 2.54299 0 2.35934 0 2.16785C0 1.97635 0.0790178 1.7927 0.21967 1.6573C0.360322 1.52189 0.551088 1.44582 0.75 1.44582H1.6275ZM8.25 5.77797C8.05109 5.77797 7.86032 5.85404 7.71967 5.98945C7.57902 6.12486 7.5 6.30851 7.5 6.5C7.5 6.69149 7.57902 6.87514 7.71967 7.01055C7.86032 7.14595 8.05109 7.22203 8.25 7.22203C8.44891 7.22203 8.63968 7.14595 8.78033 7.01055C8.92098 6.87514 9 6.69149 9 6.5C9 6.30851 8.92098 6.12486 8.78033 5.98945C8.63968 5.85404 8.44891 5.77797 8.25 5.77797ZM6.1275 5.77797C6.28245 5.3552 6.5698 4.98911 6.94995 4.73016C7.3301 4.47121 7.78432 4.33215 8.25 4.33215C8.71568 4.33215 9.1699 4.47121 9.55005 4.73016C9.9302 4.98911 10.2175 5.3552 10.3725 5.77797H11.25C11.4489 5.77797 11.6397 5.85404 11.7803 5.98945C11.921 6.12486 12 6.30851 12 6.5C12 6.69149 11.921 6.87514 11.7803 7.01055C11.6397 7.14595 11.4489 7.22203 11.25 7.22203H10.3725C10.2175 7.6448 9.9302 8.01089 9.55005 8.26984C9.1699 8.52879 8.71568 8.66785 8.25 8.66785C7.78432 8.66785 7.3301 8.52879 6.94995 8.26984C6.5698 8.01089 6.28245 7.6448 6.1275 7.22203H0.75C0.551088 7.22203 0.360322 7.14595 0.21967 7.01055C0.0790178 6.87514 0 6.69149 0 6.5C0 6.30851 0.0790178 6.12486 0.21967 5.98945C0.360322 5.85404 0.551088 5.77797 0.75 5.77797H6.1275ZM3.75 10.1101C3.55109 10.1101 3.36032 10.1862 3.21967 10.3216C3.07902 10.457 3 10.6407 3 10.8322C3 11.0236 3.07902 11.2073 3.21967 11.3427C3.36032 11.4781 3.55109 11.5542 3.75 11.5542C3.94891 11.5542 4.13968 11.4781 4.28033 11.3427C4.42098 11.2073 4.5 11.0236 4.5 10.8322C4.5 10.6407 4.42098 10.457 4.28033 10.3216C4.13968 10.1862 3.94891 10.1101 3.75 10.1101ZM1.6275 10.1101C1.78245 9.68736 2.0698 9.32127 2.44995 9.06232C2.8301 8.80337 3.28432 8.66431 3.75 8.66431C4.21568 8.66431 4.6699 8.80337 5.05005 9.06232C5.4302 9.32127 5.71755 9.68736 5.8725 10.1101H11.25C11.4489 10.1101 11.6397 10.1862 11.7803 10.3216C11.921 10.457 12 10.6407 12 10.8322C12 11.0236 11.921 11.2073 11.7803 11.3427C11.6397 11.4781 11.4489 11.5542 11.25 11.5542H5.8725C5.71755 11.9769 5.4302 12.343 5.05005 12.602C4.6699 12.8609 4.21568 13 3.75 13C3.28432 13 2.8301 12.8609 2.44995 12.602C2.0698 12.343 1.78245 11.9769 1.6275 11.5542H0.75C0.551088 11.5542 0.360322 11.4781 0.21967 11.3427C0.0790178 11.2073 0 11.0236 0 10.8322C0 10.6407 0.0790178 10.457 0.21967 10.3216C0.360322 10.1862 0.551088 10.1101 0.75 10.1101H1.6275Z" fill="#212121"/>
</svg>
