<svg width="191" height="92" viewBox="0 0 191 92" fill="none" xmlns="http://www.w3.org/2000/svg">
<path d="M7.48438 50.25L14.0469 67.6875L20.5938 50.25H25.7031V73H21.7656V65.5L22.1562 55.4688L15.4375 73H12.6094L5.90625 55.4844L6.29688 65.5V73H2.35938V50.25H7.48438ZM43.6875 62.8438H34.3438V69.8438H45.2656V73H30.3906V50.25H45.1562V53.4375H34.3438V59.7188H43.6875V62.8438ZM65.9219 70.0469C65.099 71.1198 63.9583 71.9323 62.5 72.4844C61.0417 73.0365 59.3854 73.3125 57.5312 73.3125C55.625 73.3125 53.9375 72.8802 52.4688 72.0156C51 71.151 49.8646 69.9167 49.0625 68.3125C48.2708 66.6979 47.8594 64.8177 47.8281 62.6719V60.8906C47.8281 57.4531 48.651 54.7708 50.2969 52.8438C51.9427 50.9062 54.2396 49.9375 57.1875 49.9375C59.7188 49.9375 61.7292 50.5625 63.2188 51.8125C64.7083 53.0625 65.6042 54.8646 65.9062 57.2188H62.0312C61.5938 54.4792 60.0052 53.1094 57.2656 53.1094C55.4948 53.1094 54.1458 53.75 53.2188 55.0312C52.3021 56.3021 51.8281 58.1719 51.7969 60.6406V62.3906C51.7969 64.849 52.3125 66.7604 53.3438 68.125C54.3854 69.4792 55.8281 70.1562 57.6719 70.1562C59.6927 70.1562 61.1302 69.6979 61.9844 68.7812V64.3281H57.2969V61.3281H65.9219V70.0469ZM83 67.7031H74.1875L72.3438 73H68.2344L76.8281 50.25H80.375L88.9844 73H84.8594L83 67.7031ZM75.2969 64.5156H81.8906L78.5938 55.0781L75.2969 64.5156ZM98.375 68.0469L104.156 50.25H108.5L100.312 73H96.4844L88.3281 50.25H92.6562L98.375 68.0469ZM115.25 73H111.312V50.25H115.25V73ZM132 67.1406C132 66.1406 131.646 65.3698 130.938 64.8281C130.24 64.2865 128.974 63.7396 127.141 63.1875C125.307 62.6354 123.849 62.0208 122.766 61.3438C120.693 60.0417 119.656 58.3438 119.656 56.25C119.656 54.4167 120.401 52.9062 121.891 51.7188C123.391 50.5312 125.333 49.9375 127.719 49.9375C129.302 49.9375 130.714 50.2292 131.953 50.8125C133.193 51.3958 134.167 52.2292 134.875 53.3125C135.583 54.3854 135.938 55.5781 135.938 56.8906H132C132 55.7031 131.625 54.776 130.875 54.1094C130.135 53.4323 129.073 53.0938 127.688 53.0938C126.396 53.0938 125.391 53.3698 124.672 53.9219C123.964 54.474 123.609 55.2448 123.609 56.2344C123.609 57.0677 123.995 57.7656 124.766 58.3281C125.536 58.8802 126.807 59.4219 128.578 59.9531C130.349 60.474 131.771 61.0729 132.844 61.75C133.917 62.4167 134.703 63.1875 135.203 64.0625C135.703 64.9271 135.953 65.9427 135.953 67.1094C135.953 69.0052 135.224 70.5156 133.766 71.6406C132.318 72.7552 130.349 73.3125 127.859 73.3125C126.214 73.3125 124.698 73.0104 123.312 72.4062C121.938 71.7917 120.865 70.9479 120.094 69.875C119.333 68.8021 118.953 67.5521 118.953 66.125H122.906C122.906 67.4167 123.333 68.4167 124.188 69.125C125.042 69.8333 126.266 70.1875 127.859 70.1875C129.234 70.1875 130.266 69.9115 130.953 69.3594C131.651 68.7969 132 68.0573 132 67.1406ZM143.594 73H139.656V50.25H143.594V73ZM166.609 62.2188C166.609 64.4479 166.224 66.4062 165.453 68.0938C164.682 69.7708 163.578 71.0625 162.141 71.9688C160.714 72.8646 159.068 73.3125 157.203 73.3125C155.359 73.3125 153.714 72.8646 152.266 71.9688C150.828 71.0625 149.714 69.776 148.922 68.1094C148.141 66.4427 147.745 64.5208 147.734 62.3438V61.0625C147.734 58.8438 148.125 56.8854 148.906 55.1875C149.698 53.4896 150.807 52.1927 152.234 51.2969C153.672 50.3906 155.318 49.9375 157.172 49.9375C159.026 49.9375 160.667 50.3854 162.094 51.2812C163.531 52.1667 164.641 53.4479 165.422 55.125C166.203 56.7917 166.599 58.7344 166.609 60.9531V62.2188ZM162.656 61.0312C162.656 58.5104 162.177 56.5781 161.219 55.2344C160.271 53.8906 158.922 53.2188 157.172 53.2188C155.464 53.2188 154.125 53.8906 153.156 55.2344C152.198 56.5677 151.708 58.4583 151.688 60.9062V62.2188C151.688 64.7188 152.172 66.651 153.141 68.0156C154.12 69.3802 155.474 70.0625 157.203 70.0625C158.953 70.0625 160.297 69.3958 161.234 68.0625C162.182 66.7292 162.656 64.7812 162.656 62.2188V61.0312ZM188.594 73H184.641L174.5 56.8594V73H170.547V50.25H174.5L184.672 66.4531V50.25H188.594V73Z" fill="white"/>
<path d="M45.2708 87.3636C45.2708 85.0376 43.8787 83.6278 41.9966 83.6278C40.1074 83.6278 38.7189 85.0376 38.7189 87.3636C38.7189 89.6861 40.1074 91.0994 41.9966 91.0994C43.8787 91.0994 45.2708 89.6896 45.2708 87.3636ZM44.1841 87.3636C44.1841 89.1357 43.2466 90.098 41.9966 90.098C40.7431 90.098 39.8091 89.1357 39.8091 87.3636C39.8091 85.5916 40.7431 84.6293 41.9966 84.6293C43.2466 84.6293 44.1841 85.5916 44.1841 87.3636ZM49.6388 91H50.7362V88.4432H52.2276C53.9144 88.4432 54.7489 87.424 54.7489 86.0817C54.7489 84.7429 53.9215 83.7273 52.2312 83.7273H49.6388V91ZM50.7362 87.5128V84.6683H52.114C53.2006 84.6683 53.6445 85.2578 53.6445 86.0817C53.6445 86.9055 53.2006 87.5128 52.1282 87.5128H50.7362ZM58.6767 84.6719H60.9423V91H62.036V84.6719H64.3052V83.7273H58.6767V84.6719ZM69.6463 83.7273H68.549V91H69.6463V83.7273ZM80.2848 86.0923C80.0362 84.5369 78.8182 83.6278 77.2805 83.6278C75.3984 83.6278 74.0099 85.0376 74.0099 87.3636C74.0099 89.6896 75.3913 91.0994 77.2805 91.0994C78.8786 91.0994 80.0469 90.098 80.2848 88.6598L79.1768 88.6562C78.9886 89.5866 78.2074 90.098 77.2876 90.098C76.0412 90.098 75.1001 89.1428 75.1001 87.3636C75.1001 85.5987 76.0376 84.6293 77.2912 84.6293C78.218 84.6293 78.9957 85.1513 79.1768 86.0923H80.2848ZM85.1634 91L85.831 89.0753H88.6719L89.3359 91H90.5007L87.8835 83.7273H86.6158L83.9986 91H85.1634ZM86.1506 88.152L87.223 85.0483H87.2798L88.3523 88.152H86.1506ZM94.551 91H98.9437V90.0554H95.6483V83.7273H94.551V91ZM112.809 85.6378H113.867C113.835 84.473 112.805 83.6278 111.328 83.6278C109.868 83.6278 108.75 84.4624 108.75 85.7159C108.75 86.728 109.474 87.321 110.642 87.6371L111.502 87.8714C112.279 88.0774 112.88 88.3331 112.88 88.9794C112.88 89.6896 112.201 90.1584 111.267 90.1584C110.422 90.1584 109.719 89.782 109.655 88.9901H108.554C108.625 90.3075 109.645 91.1207 111.275 91.1207C112.983 91.1207 113.966 90.2223 113.966 88.9901C113.966 87.6797 112.798 87.1719 111.875 86.9446L111.164 86.7599C110.596 86.6143 109.84 86.348 109.843 85.652C109.843 85.0341 110.408 84.576 111.303 84.576C112.137 84.576 112.73 84.9666 112.809 85.6378ZM117.919 84.6719H120.184V91H121.278V84.6719H123.547V83.7273H117.919V84.6719ZM133.806 87.3636C133.806 85.0376 132.414 83.6278 130.532 83.6278C128.643 83.6278 127.254 85.0376 127.254 87.3636C127.254 89.6861 128.643 91.0994 130.532 91.0994C132.414 91.0994 133.806 89.6896 133.806 87.3636ZM132.719 87.3636C132.719 89.1357 131.782 90.098 130.532 90.098C129.278 90.098 128.344 89.1357 128.344 87.3636C128.344 85.5916 129.278 84.6293 130.532 84.6293C131.782 84.6293 132.719 85.5916 132.719 87.3636ZM138.174 91H139.271V88.2479H140.763C140.788 88.2479 140.809 88.2479 140.834 88.2479L142.311 91H143.561L141.949 88.0561C142.84 87.7259 143.284 86.9837 143.284 86.0071C143.284 84.6683 142.453 83.7273 140.766 83.7273H138.174V91ZM139.271 87.3033V84.6683H140.649C141.732 84.6683 142.18 85.1832 142.18 86.0071C142.18 86.8274 141.732 87.3033 140.663 87.3033H139.271ZM147.619 91H152.222V90.0554H148.717V87.8288H151.941V86.8878H148.717V84.6719H152.179V83.7273H147.619V91Z" fill="white"/>
<path fill-rule="evenodd" clip-rule="evenodd" d="M115.639 0.449864C104.455 1.38456 93.8047 4.90662 85.586 10.3873C84.2481 11.2798 81.2396 12.7817 78.9005 13.7251C73.8662 15.7559 70.1665 18.0195 66.9584 21.0315C64.292 23.535 64.2888 23.4638 67.3158 28.5105C71.0921 34.8066 72.2694 36.1209 74.6711 36.7225C77.3204 37.3862 80.509 36.8185 81.7971 35.4543C82.434 34.7795 82.8007 32.9484 83.3494 27.7091C84.1228 20.3242 84.3762 19.1621 85.1552 19.4336C85.4319 19.5296 86.733 22.5945 88.0462 26.2446C89.3595 29.8941 90.831 33.3454 91.3156 33.9136C92.7932 35.6453 94.9104 36.2673 99.3259 36.2673C104.262 36.2673 109.216 35.3501 115.174 33.3333C120.67 31.4726 123.879 29.6663 124.726 27.9554C125.22 26.9592 125.462 23.4046 125.692 13.7687L126 0.911878L124.735 0.409626C123.34 -0.1445 122.715 -0.141591 115.639 0.449864ZM118.596 5.84616C119.08 7.73009 118.908 21.3898 118.375 23.392C117.656 26.0986 115.797 27.6776 111.851 28.9352C107.504 30.3208 98.625 31.6976 96.9325 31.2487C93.7829 30.4134 91.6517 26.7279 89.1306 17.7572C87.8494 13.1981 87.9177 13.0745 93.1256 10.5308C99.0326 7.64574 109.912 4.84893 115.469 4.78688C118.042 4.75827 118.343 4.86057 118.596 5.84616ZM80.8943 20.5162C81.1867 23.3314 80.9968 29.5296 80.5475 31.8149C80.1928 33.6203 76.0136 34.9743 73.6805 34.0392C72.812 33.6911 67.8265 25.5683 67.8265 24.5017C67.8265 23.1133 78.0222 17.1982 79.8958 17.4998C80.3841 17.5788 80.6821 18.4786 80.8943 20.5162Z" fill="#DE2747"/>
</svg>
