<svg width="15" height="19" viewBox="0 0 15 19" fill="none" xmlns="http://www.w3.org/2000/svg">
<path d="M7.5 10.8062C6.86262 10.8062 6.23955 10.6146 5.70959 10.2558C5.17963 9.89697 4.76657 9.38694 4.52266 8.79023C4.27874 8.19351 4.21492 7.53691 4.33927 6.90344C4.46361 6.26997 4.77054 5.68809 5.22124 5.23138C5.67194 4.77468 6.24616 4.46366 6.87129 4.33765C7.49643 4.21165 8.1444 4.27632 8.73326 4.52348C9.32212 4.77065 9.82543 5.18922 10.1795 5.72625C10.5337 6.26327 10.7227 6.89465 10.7227 7.54053C10.7216 8.40631 10.3818 9.23633 9.77763 9.84853C9.17349 10.4607 8.35439 10.8051 7.5 10.8062ZM7.5 5.58115C7.11757 5.58115 6.74373 5.69607 6.42575 5.91137C6.10778 6.12667 5.85994 6.43268 5.71359 6.79071C5.56724 7.14874 5.52895 7.5427 5.60356 7.92278C5.67817 8.30287 5.86233 8.65199 6.13274 8.92602C6.40316 9.20004 6.7477 9.38665 7.12278 9.46226C7.49786 9.53786 7.88664 9.49906 8.23996 9.35076C8.59327 9.20246 8.89526 8.95132 9.10773 8.6291C9.32019 8.30688 9.4336 7.92806 9.4336 7.54053C9.43308 7.02103 9.2292 6.52296 8.86669 6.15561C8.50419 5.78827 8.01267 5.58167 7.5 5.58115Z" fill="#212121"/>
<path d="M7.50001 18.6439L2.06274 12.146C1.98719 12.0484 1.91242 11.9502 1.83844 11.8514C0.909663 10.6117 0.407913 9.09736 0.410164 7.54082C0.410164 5.6354 1.15713 3.80803 2.48673 2.4607C3.81633 1.11337 5.61966 0.356445 7.50001 0.356445C9.38035 0.356445 11.1837 1.11337 12.5133 2.4607C13.8429 3.80803 14.5898 5.6354 14.5898 7.54082C14.5921 9.09665 14.0906 10.6103 13.1622 11.8495L13.1616 11.8514C13.1616 11.8514 12.9682 12.1088 12.9392 12.1434L7.50001 18.6439ZM2.86712 11.0644C2.86841 11.0644 3.01794 11.2656 3.0521 11.3087L7.50001 16.6245L11.9537 11.3015C11.9821 11.2656 12.1329 11.0631 12.1335 11.0625C12.8923 10.0495 13.3023 8.81247 13.3008 7.54082C13.3008 5.98184 12.6896 4.48672 11.6018 3.38436C10.5139 2.282 9.03847 1.6627 7.50001 1.6627C5.96154 1.6627 4.48609 2.282 3.39824 3.38436C2.31038 4.48672 1.69923 5.98184 1.69923 7.54082C1.69787 8.81326 2.10836 10.051 2.86776 11.0644H2.86712Z" fill="#212121"/>
</svg>
