<svg width="20" height="21" viewBox="0 0 20 21" fill="none" xmlns="http://www.w3.org/2000/svg">
<path d="M18.3845 2.6087C17.3373 1.43315 15.9508 0.790645 14.4711 0.790645C12.9913 0.790645 11.6006 1.43791 10.5533 2.61346L10.0064 3.22741L9.45092 2.60394C8.40365 1.42839 7.0087 0.776367 5.52895 0.776367C4.05344 0.776367 2.66273 1.42363 1.61969 2.59442C0.57242 3.76997 -0.00421676 5.33102 2.32169e-05 6.99202C2.32169e-05 8.65302 0.5809 10.2093 1.62817 11.3849L9.59084 20.3228C9.70108 20.4466 9.84948 20.5132 9.99364 20.5132C10.1378 20.5132 10.2862 20.4513 10.3964 20.3276L18.3761 11.4039C19.4233 10.2283 20 8.6673 20 7.0063C20.0042 5.3453 19.4318 3.78425 18.3845 2.6087ZM17.5705 10.4949L9.99364 18.9664L2.43377 10.4806C1.60273 9.54777 1.14482 8.31035 1.14482 6.99202C1.14482 5.67369 1.59849 4.43627 2.42953 3.50821C3.25632 2.58014 4.35872 2.06614 5.52895 2.06614C6.70342 2.06614 7.81005 2.58014 8.64109 3.51297L9.59932 4.58857C9.82404 4.84081 10.1844 4.84081 10.4092 4.58857L11.3589 3.52249C12.1899 2.58966 13.2966 2.07566 14.4668 2.07566C15.637 2.07566 16.7394 2.58966 17.5705 3.51773C18.4015 4.45055 18.8552 5.68797 18.8552 7.0063C18.8594 8.32463 18.4015 9.56205 17.5705 10.4949Z" fill="#9497A3"/>
</svg>
