<svg width="18" height="18" viewBox="0 0 18 18" fill="none" xmlns="http://www.w3.org/2000/svg">
<path d="M15.7043 4.9402C15.6867 4.66639 15.4602 4.45343 15.1857 4.45343H12.4374V3.64145C12.4374 2.01547 10.8953 0.692383 9.00023 0.692383C7.10517 0.692383 5.56303 2.01547 5.56303 3.64145V4.45343H2.81476C2.54027 4.45343 2.31378 4.66639 2.2962 4.9402L1.5586 16.7561C1.54981 16.8994 1.60051 17.0394 1.69854 17.1442C1.79658 17.2483 1.93382 17.3078 2.07715 17.3078H15.9233C16.0666 17.3078 16.2039 17.2483 16.3019 17.1442C16.3999 17.0394 16.4506 16.8994 16.4419 16.7561L15.7043 4.9402ZM6.60149 3.64145C6.60149 2.58812 7.67781 1.73084 9.00023 1.73084C10.3226 1.73084 11.399 2.58812 11.399 3.64145V4.45343H6.60149V3.64145ZM5.56303 5.49189V6.61959C5.56303 6.90625 5.7956 7.13882 6.08226 7.13882C6.36892 7.13882 6.60149 6.90625 6.60149 6.61959V5.49189H11.399V6.61959C11.399 6.90625 11.6315 7.13882 11.9182 7.13882C12.2049 7.13882 12.4374 6.90625 12.4374 6.61959V5.49189H14.6976L15.1475 12.6922H2.853L3.30289 5.49189H5.56303ZM2.62951 16.2693L2.80977 13.3845H15.1907L15.3709 16.2693H2.62951Z" fill="#3F4249"/>
</svg>
