<svg width="18" height="18" viewBox="0 0 18 18" fill="none" xmlns="http://www.w3.org/2000/svg">
<rect width="18" height="18" fill="white"/>
<path d="M15.7033 4.94008C15.6857 4.66627 15.4592 4.4533 15.1847 4.4533H12.4365V3.64133C12.4365 2.01535 10.8943 0.692261 8.99925 0.692261C7.10419 0.692261 5.56205 2.01535 5.56205 3.64133V4.4533H2.81378C2.53929 4.4533 2.3128 4.66627 2.29522 4.94008L1.55762 16.756C1.54883 16.8993 1.59954 17.0392 1.69757 17.144C1.7956 17.2481 1.93284 17.3076 2.07617 17.3076H15.9223C16.0657 17.3076 16.2029 17.2481 16.3009 17.144C16.399 17.0392 16.4497 16.8993 16.4409 16.756L15.7033 4.94008ZM6.60051 3.64133C6.60051 2.58799 7.67684 1.73072 8.99925 1.73072C10.3217 1.73072 11.398 2.58799 11.398 3.64133V4.4533H6.60051V3.64133ZM5.56205 5.49177V6.61947C5.56205 6.90613 5.79462 7.1387 6.08128 7.1387C6.36794 7.1387 6.60051 6.90613 6.60051 6.61947V5.49177H11.398V6.61947C11.398 6.90613 11.6306 7.1387 11.9172 7.1387C12.2039 7.1387 12.4365 6.90613 12.4365 6.61947V5.49177H14.6966L15.1465 12.692H2.85202L3.30191 5.49177H5.56205ZM2.62853 16.2692L2.80879 13.3843H15.1897L15.37 16.2692H2.62853Z" fill="#3F4249"/>
</svg>
