<svg width="20" height="20" viewBox="0 0 20 20" fill="none" xmlns="http://www.w3.org/2000/svg">
<g clip-path="url(#clip0_1500_12010)">
<path d="M17.725 8.26342C17.5096 8.13373 17.3417 7.9382 17.2461 7.70573C17.1504 7.47326 17.132 7.21618 17.1937 6.97248C17.306 6.5346 17.3021 6.07501 17.1826 5.63907C17.063 5.20312 16.8319 4.80587 16.512 4.4865C16.192 4.16712 15.7944 3.93666 15.3583 3.81783C14.9221 3.69901 14.4625 3.69592 14.0248 3.80889C13.7815 3.87039 13.5249 3.85194 13.2929 3.75626C13.0608 3.66059 12.8658 3.49277 12.7365 3.27764C12.5063 2.88952 12.179 2.56799 11.7869 2.34467C11.3948 2.12134 10.9513 2.00391 10.5 2.00391C10.0487 2.00391 9.60521 2.12134 9.21307 2.34467C8.82093 2.56799 8.49366 2.88952 8.26342 3.27764C8.13435 3.49361 7.93889 3.66203 7.70623 3.75778C7.47357 3.85353 7.21618 3.87146 6.97248 3.80889C6.53487 3.69686 6.07561 3.70077 5.63996 3.82021C5.20431 3.93966 4.80729 4.17053 4.488 4.49009C4.16871 4.80964 3.93818 5.20686 3.81909 5.64261C3.70001 6.07836 3.6965 6.53762 3.80889 6.97514C3.87083 7.21845 3.85258 7.47525 3.75687 7.70736C3.66115 7.93947 3.49308 8.13449 3.27764 8.26342C2.88952 8.49366 2.56799 8.82093 2.34467 9.21307C2.12134 9.60521 2.00391 10.0487 2.00391 10.5C2.00391 10.9513 2.12134 11.3948 2.34467 11.7869C2.56799 12.179 2.88952 12.5063 3.27764 12.7365C3.4933 12.8659 3.66147 13.0614 3.75717 13.294C3.85288 13.5266 3.87102 13.7838 3.80889 14.0275C3.69686 14.4651 3.70077 14.9244 3.82021 15.36C3.93966 15.7957 4.17053 16.1927 4.49009 16.512C4.80964 16.8313 5.20686 17.0618 5.64261 17.1809C6.07836 17.3 6.53762 17.3035 6.97514 17.1911C7.21845 17.1296 7.4751 17.148 7.70712 17.2437C7.93913 17.3394 8.13418 17.5072 8.26342 17.7223C8.49366 18.1104 8.82093 18.432 9.21307 18.6553C9.60521 18.8786 10.0487 18.9961 10.5 18.9961C10.9513 18.9961 11.3948 18.8786 11.7869 18.6553C12.179 18.432 12.5063 18.1104 12.7365 17.7223C12.8662 17.507 13.0618 17.3391 13.2942 17.2434C13.5267 17.1477 13.7838 17.1294 14.0275 17.1911C14.4651 17.3031 14.9244 17.2992 15.36 17.1798C15.7957 17.0603 16.1927 16.8294 16.512 16.5099C16.8313 16.1903 17.0618 15.7931 17.1809 15.3574C17.3 14.9216 17.3035 14.4624 17.1911 14.0248C17.1296 13.7815 17.148 13.5249 17.2437 13.2929C17.3394 13.0608 17.5072 12.8658 17.7223 12.7365C18.1104 12.5063 18.432 12.179 18.6553 11.7869C18.8786 11.3948 18.9961 10.9513 18.9961 10.5C18.9961 10.0487 18.8786 9.60521 18.6553 9.21307C18.432 8.82093 18.1104 8.49366 17.7223 8.26342H17.725ZM16.9919 11.4987C16.5111 11.7894 16.1367 12.2271 15.9243 12.7472C15.7119 13.2673 15.6727 13.842 15.8125 14.3861C15.8623 14.5816 15.8603 14.7866 15.8068 14.9811C15.7532 15.1756 15.6498 15.3528 15.5069 15.4952C15.364 15.6375 15.1865 15.7402 14.9918 15.7931C14.7971 15.8459 14.592 15.8471 14.3967 15.7965C13.8513 15.6597 13.2763 15.702 12.7567 15.9173C12.2372 16.1326 11.8008 16.5093 11.512 16.9919C11.4098 17.166 11.2639 17.3103 11.0887 17.4106C10.9135 17.5109 10.7151 17.5637 10.5133 17.5637C10.3114 17.5637 10.113 17.5109 9.93783 17.4106C9.76264 17.3103 9.61671 17.166 9.51452 16.9919C9.28256 16.6034 8.95383 16.2817 8.56044 16.0583C8.16704 15.8348 7.72242 15.7172 7.26998 15.7169C7.05308 15.7167 6.83705 15.7444 6.62717 15.7992C6.43169 15.849 6.2266 15.8471 6.03211 15.7935C5.83763 15.7399 5.66046 15.6366 5.51808 15.4936C5.37571 15.3507 5.27303 15.1732 5.22018 14.9785C5.16733 14.7838 5.16613 14.5787 5.2167 14.3834C5.35399 13.838 5.31186 13.2628 5.09655 12.7432C4.88124 12.2236 4.50422 11.7872 4.02139 11.4987C3.8473 11.3965 3.70294 11.2506 3.60264 11.0754C3.50234 10.9002 3.44957 10.7019 3.44957 10.5C3.44957 10.2981 3.50234 10.0997 3.60264 9.92455C3.70294 9.74936 3.8473 9.60343 4.02139 9.50123C4.50457 9.21254 4.88166 8.77557 5.09654 8.25535C5.31143 7.73512 5.35264 7.15942 5.21405 6.61389C5.16484 6.41824 5.16735 6.21315 5.22133 6.01876C5.27532 5.82437 5.37893 5.64736 5.52199 5.50511C5.66504 5.36286 5.84263 5.26025 6.03732 5.20736C6.23201 5.15446 6.43711 5.15311 6.63248 5.20342C7.17754 5.34009 7.75211 5.29764 8.27117 5.08236C8.79022 4.86709 9.22618 4.49042 9.51452 4.00811C9.61671 3.83402 9.76264 3.68966 9.93783 3.58936C10.113 3.48906 10.3114 3.43629 10.5133 3.43629C10.7151 3.43629 10.9135 3.48906 11.0887 3.58936C11.2639 3.68966 11.4098 3.83402 11.512 4.00811C11.8007 4.49129 12.2377 4.86837 12.7579 5.08326C13.2781 5.29815 13.8538 5.33936 14.3994 5.20076C14.5949 5.15119 14.8 5.15332 14.9945 5.20694C15.189 5.26056 15.3662 5.36384 15.5087 5.50662C15.6512 5.64941 15.7542 5.82681 15.8074 6.0214C15.8607 6.21599 15.8624 6.42108 15.8125 6.61655C15.6741 7.16169 15.7154 7.73696 15.9303 8.25673C16.1452 8.7765 16.5222 9.21299 17.0051 9.50123C17.1792 9.60343 17.3236 9.74936 17.4239 9.92455C17.5242 10.0997 17.577 10.2981 17.577 10.5C17.577 10.7019 17.5242 10.9002 17.4239 11.0754C17.3236 11.2506 17.1792 11.3965 17.0051 11.4987H16.9919Z" fill="#3F4249"/>
<path d="M10.5002 6.90613C9.78935 6.90613 9.09451 7.11691 8.50349 7.51181C7.91248 7.90671 7.45184 8.46801 7.17982 9.12471C6.90781 9.78141 6.83664 10.504 6.97531 11.2012C7.11398 11.8983 7.45627 12.5387 7.95888 13.0413C8.4615 13.5439 9.10187 13.8862 9.79902 14.0249C10.4962 14.1636 11.2188 14.0924 11.8755 13.8204C12.5322 13.5484 13.0935 13.0877 13.4884 12.4967C13.8833 11.9057 14.0941 11.2108 14.0941 10.5C14.0927 9.5473 13.7136 8.63399 13.0399 7.96031C12.3662 7.28663 11.4529 6.90753 10.5002 6.90613ZM10.5002 12.6569C10.0736 12.6569 9.65656 12.5304 9.30186 12.2934C8.94717 12.0564 8.67071 11.7196 8.50747 11.3254C8.34422 10.9313 8.3015 10.4976 8.38473 10.0792C8.46795 9.66086 8.67337 9.27654 8.97502 8.97489C9.27666 8.67325 9.66098 8.46783 10.0794 8.3846C10.4978 8.30138 10.9314 8.34409 11.3256 8.50734C11.7197 8.67059 12.0565 8.94704 12.2935 9.30174C12.5305 9.65644 12.657 10.0734 12.657 10.5C12.6563 11.0719 12.4289 11.6201 12.0245 12.0244C11.6202 12.4287 11.072 12.6562 10.5002 12.6569Z" fill="#3F4249"/>
</g>
<defs>
<clipPath id="clip0_1500_12010">
<rect width="17" height="17" fill="white" transform="translate(2 2)"/>
</clipPath>
</defs>
</svg>
