<svg width="26" height="26" viewBox="0 0 26 26" fill="none" xmlns="http://www.w3.org/2000/svg">
<path d="M21.1251 17.4688L20.3126 16.25C19.0126 14.3 18.3626 11.9438 18.3626 9.5875C18.3626 7.06875 16.7376 4.95625 14.5438 4.30625C14.3001 3.65625 13.6501 3.25 13.0001 3.25C12.3501 3.25 11.7001 3.65625 11.4563 4.30625C9.26256 4.95625 7.63756 7.06875 7.63756 9.5875C7.63756 11.9438 6.98756 14.3 5.68756 16.25L4.87506 17.4688C4.55006 18.0375 4.87506 18.6875 5.52506 18.6875H20.3938C21.0438 18.6875 21.4501 17.9563 21.1251 17.4688Z" stroke="#3F4249" stroke-width="2" stroke-miterlimit="10" stroke-linejoin="round"/>
<path d="M15.4375 21.125C15.4375 22.5063 14.3813 23.5625 13 23.5625C11.6187 23.5625 10.5625 22.5063 10.5625 21.125" stroke="#3F4249" stroke-width="2" stroke-miterlimit="10" stroke-linejoin="round"/>
</svg>
