<svg width="19" height="19" viewBox="0 0 19 19" fill="none" xmlns="http://www.w3.org/2000/svg">
<g clip-path="url(#clip0_1500_12020)">
<path d="M11.7547 12.3606C11.6992 11.7481 11.7205 11.3206 11.7205 10.7608C11.9979 10.6153 12.4949 9.68734 12.5789 8.9034C12.797 8.88554 13.1409 8.67274 13.2416 7.83256C13.296 7.3815 13.0801 7.12766 12.9487 7.04786C13.3036 5.98044 14.0408 2.67824 11.5852 2.337C11.3325 1.89316 10.6854 1.66858 9.84444 1.66858C6.47992 1.73052 6.07408 4.20926 6.81166 7.04786C6.68056 7.12766 6.46472 7.3815 6.51868 7.83256C6.61976 8.67274 6.96328 8.88554 7.1814 8.9034C7.265 9.68696 7.7818 10.6153 8.05996 10.7608C8.05996 11.3206 8.08086 11.7481 8.02538 12.3606C7.35962 14.1504 2.86764 13.6481 2.66016 17.1H17.1002C16.8931 13.6481 12.4205 14.1504 11.7547 12.3606Z" stroke="#3F4249" stroke-miterlimit="10" stroke-linecap="round"/>
</g>
<defs>
<clipPath id="clip0_1500_12020">
<rect width="19" height="19" fill="white"/>
</clipPath>
</defs>
</svg>
