<svg width="124" height="46" viewBox="0 0 124 46" fill="none" xmlns="http://www.w3.org/2000/svg">
<g clip-path="url(#clip0_642_6927)">
<path d="M1.97363 30.0703H4.27051L8.5874 41.5854L12.894 30.0703H15.1909L9.48975 45H7.66455L1.97363 30.0703ZM0.927734 30.0703H3.11182L3.49121 40.0371V45H0.927734V30.0703ZM14.0527 30.0703H16.2471V45H13.6733V40.0371L14.0527 30.0703ZM29.0747 42.9595V45H21.1484V42.9595H29.0747ZM21.8765 30.0703V45H19.3027V30.0703H21.8765ZM28.0391 36.3047V38.3145H21.1484V36.3047H28.0391ZM29.0234 30.0703V32.1211H21.1484V30.0703H29.0234ZM42.6406 37.3711V43.0723C42.4287 43.3525 42.0972 43.6602 41.646 43.9951C41.2017 44.3232 40.6104 44.6069 39.8721 44.8462C39.1338 45.0854 38.2144 45.2051 37.1138 45.2051C36.1772 45.2051 35.3193 45.0479 34.54 44.7334C33.7607 44.4121 33.0874 43.9438 32.52 43.3286C31.9595 42.7134 31.5254 41.9648 31.2178 41.083C30.9102 40.1943 30.7563 39.1826 30.7563 38.0479V37.0122C30.7563 35.8843 30.8965 34.8794 31.1768 33.9976C31.4639 33.1089 31.874 32.3569 32.4072 31.7417C32.9404 31.1265 33.583 30.6616 34.335 30.3472C35.0938 30.0259 35.9517 29.8652 36.9087 29.8652C38.1323 29.8652 39.144 30.0703 39.9438 30.4805C40.7505 30.8838 41.3726 31.4443 41.8101 32.1621C42.2476 32.8799 42.5244 33.7002 42.6406 34.623H40.1182C40.0361 34.1035 39.8755 33.6387 39.6362 33.2285C39.4038 32.8184 39.0688 32.4971 38.6313 32.2646C38.2007 32.0254 37.6401 31.9058 36.9497 31.9058C36.355 31.9058 35.832 32.0186 35.3809 32.2441C34.9297 32.4697 34.5537 32.8013 34.2529 33.2388C33.959 33.6763 33.7368 34.2095 33.5864 34.8384C33.436 35.4673 33.3608 36.1851 33.3608 36.9917V38.0479C33.3608 38.8682 33.4463 39.5962 33.6172 40.2319C33.7949 40.8677 34.0479 41.4043 34.376 41.8418C34.7109 42.2793 35.1177 42.6108 35.5962 42.8364C36.0747 43.0552 36.6147 43.1646 37.2163 43.1646C37.8042 43.1646 38.2861 43.1167 38.6621 43.021C39.0381 42.9185 39.3354 42.7988 39.5542 42.6621C39.7798 42.5186 39.9541 42.3818 40.0771 42.252V39.2886H36.9702V37.3711H42.6406ZM51.3052 32.0596L46.8447 45H44.1479L49.7671 30.0703H51.4897L51.3052 32.0596ZM55.0376 45L50.5669 32.0596L50.3721 30.0703H52.105L57.7446 45H55.0376ZM54.8223 39.4629V41.5034H46.7012V39.4629H54.8223ZM63.6714 42.2725L67.5986 30.0703H70.439L65.0864 45H63.1689L63.6714 42.2725ZM60.0415 30.0703L63.938 42.2725L64.4712 45H62.5435L57.2114 30.0703H60.0415ZM74.8584 30.0703V45H72.2847V30.0703H74.8584ZM85.9121 41.1548C85.9121 40.8472 85.8643 40.5737 85.7686 40.3345C85.6797 40.0952 85.519 39.8765 85.2866 39.6782C85.0542 39.48 84.7261 39.2886 84.3022 39.104C83.8853 38.9126 83.3521 38.7178 82.7026 38.5195C81.9917 38.3008 81.3354 38.0581 80.7339 37.7915C80.1392 37.5181 79.6196 37.2036 79.1753 36.8481C78.731 36.4858 78.3857 36.0723 78.1396 35.6074C77.8936 35.1357 77.7705 34.5923 77.7705 33.9771C77.7705 33.3687 77.897 32.8149 78.1499 32.3159C78.4097 31.8169 78.7754 31.3862 79.2471 31.0239C79.7256 30.6548 80.2896 30.3711 80.939 30.1729C81.5884 29.9678 82.3062 29.8652 83.0923 29.8652C84.1997 29.8652 85.1533 30.0703 85.9531 30.4805C86.7598 30.8906 87.3784 31.4409 87.8091 32.1313C88.2466 32.8218 88.4653 33.584 88.4653 34.418H85.9121C85.9121 33.9258 85.8062 33.4917 85.5942 33.1157C85.3892 32.7329 85.0747 32.4321 84.6509 32.2134C84.2339 31.9946 83.7041 31.8853 83.0615 31.8853C82.4531 31.8853 81.9473 31.9775 81.5439 32.1621C81.1406 32.3467 80.8398 32.5962 80.6416 32.9106C80.4434 33.2251 80.3442 33.5806 80.3442 33.9771C80.3442 34.2573 80.4092 34.5137 80.5391 34.7461C80.6689 34.9717 80.8672 35.1836 81.1338 35.3818C81.4004 35.5732 81.7354 35.7544 82.1387 35.9253C82.542 36.0962 83.0171 36.2603 83.564 36.4175C84.3911 36.6636 85.1123 36.937 85.7275 37.2378C86.3428 37.5317 86.8555 37.8667 87.2656 38.2427C87.6758 38.6187 87.9834 39.0459 88.1885 39.5244C88.3936 39.9961 88.4961 40.5327 88.4961 41.1343C88.4961 41.7632 88.3696 42.3306 88.1167 42.8364C87.8638 43.3354 87.5015 43.7627 87.0298 44.1182C86.5649 44.4668 86.0044 44.7368 85.3481 44.9282C84.6987 45.1128 83.9741 45.2051 83.1743 45.2051C82.4565 45.2051 81.749 45.1094 81.0518 44.918C80.3613 44.7266 79.7324 44.436 79.165 44.0464C78.5977 43.6499 78.1465 43.1577 77.8115 42.5698C77.4766 41.9751 77.3091 41.2812 77.3091 40.4883H79.8828C79.8828 40.9736 79.9648 41.3872 80.1289 41.729C80.2998 42.0708 80.5356 42.3511 80.8364 42.5698C81.1372 42.7817 81.4858 42.939 81.8823 43.0415C82.2856 43.144 82.7163 43.1953 83.1743 43.1953C83.7759 43.1953 84.2783 43.1099 84.6816 42.939C85.0918 42.7681 85.3994 42.5288 85.6045 42.2212C85.8096 41.9136 85.9121 41.5581 85.9121 41.1548ZM93.5205 30.0703V45H90.9468V30.0703H93.5205ZM108.625 37.125V37.9453C108.625 39.0732 108.478 40.085 108.184 40.9805C107.89 41.876 107.469 42.6382 106.922 43.2671C106.382 43.896 105.733 44.3779 104.974 44.7129C104.215 45.041 103.375 45.2051 102.452 45.2051C101.536 45.2051 100.698 45.041 99.9395 44.7129C99.1875 44.3779 98.5347 43.896 97.981 43.2671C97.4272 42.6382 96.9966 41.876 96.689 40.9805C96.3882 40.085 96.2378 39.0732 96.2378 37.9453V37.125C96.2378 35.9971 96.3882 34.9888 96.689 34.1001C96.9897 33.2046 97.4136 32.4424 97.9604 31.8135C98.5142 31.1777 99.167 30.6958 99.9189 30.3677C100.678 30.0327 101.515 29.8652 102.431 29.8652C103.354 29.8652 104.195 30.0327 104.954 30.3677C105.712 30.6958 106.365 31.1777 106.912 31.8135C107.459 32.4424 107.879 33.2046 108.173 34.1001C108.474 34.9888 108.625 35.9971 108.625 37.125ZM106.051 37.9453V37.1045C106.051 36.2705 105.969 35.5356 105.805 34.8999C105.647 34.2573 105.412 33.7207 105.097 33.29C104.79 32.8525 104.41 32.5244 103.959 32.3057C103.508 32.0801 102.999 31.9673 102.431 31.9673C101.864 31.9673 101.358 32.0801 100.914 32.3057C100.469 32.5244 100.09 32.8525 99.7754 33.29C99.4678 33.7207 99.2319 34.2573 99.0679 34.8999C98.9038 35.5356 98.8218 36.2705 98.8218 37.1045V37.9453C98.8218 38.7793 98.9038 39.5176 99.0679 40.1602C99.2319 40.8027 99.4712 41.3462 99.7856 41.7905C100.107 42.228 100.49 42.5596 100.934 42.7852C101.378 43.0039 101.884 43.1133 102.452 43.1133C103.026 43.1133 103.535 43.0039 103.979 42.7852C104.424 42.5596 104.8 42.228 105.107 41.7905C105.415 41.3462 105.647 40.8027 105.805 40.1602C105.969 39.5176 106.051 38.7793 106.051 37.9453ZM123.042 30.0703V45H120.468L113.772 34.3052V45H111.198V30.0703H113.772L120.488 40.7856V30.0703H123.042Z" fill="#1F1F1F"/>
<path fill-rule="evenodd" clip-rule="evenodd" d="M74.5459 0.279645C67.5788 0.86067 60.9439 3.05006 55.824 6.45695C54.9906 7.01176 53.1165 7.94538 51.6593 8.53183C48.5232 9.79423 46.2185 11.2013 44.22 13.0737C42.559 14.6299 42.5569 14.5856 44.4427 17.7228C46.7951 21.6365 47.5285 22.4535 49.0246 22.8275C50.675 23.2401 52.6613 22.8872 53.4638 22.0392C53.8605 21.6197 54.089 20.4814 54.4308 17.2246C54.9126 12.634 55.0704 11.9116 55.5557 12.0804C55.728 12.14 56.5386 14.0452 57.3567 16.3142C58.1748 18.5828 59.0914 20.7282 59.3933 21.0814C60.3138 22.1579 61.6327 22.5445 64.3834 22.5445C67.4582 22.5445 70.5445 21.9744 74.2558 20.7207C77.68 19.5641 79.6788 18.4412 80.2065 17.3777C80.5139 16.7584 80.6646 14.5488 80.8083 8.55895L81 0.566843L80.212 0.254632C79.3427 -0.0898241 78.9538 -0.0880158 74.5459 0.279645ZM76.3879 3.6341C76.689 4.80519 76.582 13.2964 76.2503 14.541C75.8021 16.2235 74.6442 17.205 72.1859 17.9867C69.4778 18.848 63.9467 19.7039 62.8924 19.4248C60.9303 18.9056 59.6027 16.6146 58.0322 11.0383C57.2341 8.20425 57.2766 8.1274 60.5208 6.54616C64.2006 4.75275 70.9777 3.0142 74.4398 2.97563C76.0424 2.95785 76.2303 3.02143 76.3879 3.6341ZM52.9013 12.7533C53.0835 14.5033 52.9653 18.3562 52.6853 19.7768C52.4644 20.8991 49.8609 21.7408 48.4075 21.1595C47.8665 20.9431 44.7607 15.8938 44.7607 15.2308C44.7607 14.3677 51.1122 10.6908 52.2793 10.8782C52.5835 10.9274 52.7692 11.4867 52.9013 12.7533Z" fill="#DE2747"/>
</g>
<defs>
<clipPath id="clip0_642_6927">
<rect width="124" height="46" fill="white"/>
</clipPath>
</defs>
</svg>
