<svg width="17" height="14" viewBox="0 0 17 14" fill="none" xmlns="http://www.w3.org/2000/svg">
<path fill-rule="evenodd" clip-rule="evenodd" d="M1.23958 0C0.910825 0 0.595532 0.143402 0.363066 0.39866C0.130599 0.653918 0 1.00012 0 1.36111L0 12.25C0 13.0013 0.555333 13.6111 1.23958 13.6111H15.7604C16.0892 13.6111 16.4045 13.4677 16.6369 13.2125C16.8694 12.9572 17 12.611 17 12.25V1.36111C17 1.00012 16.8694 0.653918 16.6369 0.39866C16.4045 0.143402 16.0892 0 15.7604 0H1.23958ZM1.0625 1.36111C1.0625 1.30954 1.08116 1.26008 1.11437 1.22362C1.14758 1.18715 1.19262 1.16667 1.23958 1.16667H15.7604C15.8074 1.16667 15.8524 1.18715 15.8856 1.22362C15.9188 1.26008 15.9375 1.30954 15.9375 1.36111V2.02378L8.59917 7.46822C8.56988 7.48996 8.53535 7.50157 8.5 7.50157C8.46465 7.50157 8.43012 7.48996 8.40083 7.46822L1.0625 2.02378V1.36111ZM1.0625 3.43156V12.25C1.0625 12.3573 1.14183 12.4444 1.23958 12.4444H15.7604C15.8074 12.4444 15.8524 12.424 15.8856 12.3875C15.9188 12.351 15.9375 12.3016 15.9375 12.25V3.43156L9.19417 8.435C8.77483 8.74611 8.22517 8.74611 7.80583 8.435L1.0625 3.43156Z" fill="#212121"/>
</svg>
