<svg width="29" height="18" viewBox="0 0 29 18" fill="none" xmlns="http://www.w3.org/2000/svg">
<path d="M10.1934 1.93335H18.8091V16.0654H10.1934V1.93335Z" fill="#FF5F00"/>
<path d="M11.0819 9.00066C11.0809 7.63987 11.3881 6.29666 11.9802 5.07269C12.5724 3.84872 13.434 2.77605 14.4999 1.93587C13.1797 0.893935 11.5943 0.246013 9.92481 0.0661619C8.25531 -0.113689 6.5691 0.181786 5.05891 0.918817C3.54871 1.65585 2.27546 2.8047 1.38467 4.23407C0.493876 5.66344 0.0214844 7.31566 0.0214844 9.00189C0.0214844 10.6881 0.493876 12.3403 1.38467 13.7697C2.27546 15.1991 3.54871 16.3479 5.05891 17.085C6.5691 17.822 8.25531 18.1175 9.92481 17.9376C11.5943 17.7578 13.1797 17.1098 14.4999 16.0679C13.4337 15.2275 12.5718 14.1544 11.9797 12.93C11.3875 11.7055 11.0805 10.3618 11.0819 9.00062V9.00066Z" fill="#EB001B"/>
<path d="M28.1246 14.5702V14.2806H28.2489V14.2207H27.9531V14.2806H28.07V14.5702L28.1246 14.5702ZM28.6988 14.5702V14.2207H28.6093L28.505 14.4704L28.4005 14.2207H28.3111V14.5702H28.3757V14.3056L28.4727 14.5328H28.5398L28.6367 14.3056V14.5702H28.6988Z" fill="#F79E1B"/>
<path d="M28.9798 9.00056C28.9797 10.6869 28.5072 12.3392 27.6163 13.7687C26.7253 15.1981 25.4519 16.3469 23.9415 17.0838C22.4311 17.8208 20.7447 18.116 19.0751 17.9359C17.4055 17.7558 15.8201 17.1076 14.5 16.0653C15.5655 15.2244 16.4269 14.1514 17.0192 12.9274C17.6115 11.7034 17.9193 10.3602 17.9193 8.99929C17.9193 7.63837 17.6115 6.29522 17.0192 5.07119C16.4269 3.84715 15.5655 2.7742 14.5 1.93327C15.8201 0.890998 17.4055 0.242755 19.0751 0.0626416C20.7447 -0.117472 22.4311 0.177813 23.9415 0.914743C25.4519 1.65167 26.7254 2.80051 27.6163 4.22994C28.5073 5.65936 28.9798 7.31169 28.9798 8.99806V9.00056Z" fill="#F79E1B"/>
</svg>
