<svg width="35" height="21" viewBox="0 0 35 21" fill="none" xmlns="http://www.w3.org/2000/svg">
<path fill-rule="evenodd" clip-rule="evenodd" d="M12.8595 10.2916C12.8596 11.8874 13.2465 13.4611 13.9894 14.8879C14.7324 16.3147 15.811 17.5552 17.1396 18.5109C15.5509 19.6624 13.66 20.365 11.6792 20.5401C9.69832 20.7151 7.70594 20.3556 5.92573 19.5019C4.14553 18.6483 2.64798 17.3342 1.60124 15.7072C0.554492 14.0803 0 12.2049 0 10.2916C0 8.37838 0.554492 6.503 1.60124 4.87605C2.64798 3.24911 4.14553 1.93502 5.92573 1.08132C7.70594 0.227622 9.69832 -0.131882 11.6792 0.0431738C13.66 0.218229 15.5509 0.920913 17.1396 2.07233C15.811 3.02808 14.7324 4.2686 13.9894 5.69538C13.2465 7.12216 12.8596 8.6959 12.8595 10.2916Z" fill="#A6A6A6"/>
<path opacity="0.3" fill-rule="evenodd" clip-rule="evenodd" d="M23.5607 20.5833C21.2432 20.5834 18.9889 19.8558 17.1406 18.5109C18.4693 17.5552 19.5479 16.3147 20.2909 14.8879C21.0338 13.4611 21.4207 11.8874 21.4207 10.2916C21.4207 8.69589 21.0338 7.12212 20.2909 5.69533C19.5479 4.26854 18.4693 3.02803 17.1406 2.07233C18.4959 1.09297 20.0739 0.437506 21.7443 0.159988C23.4148 -0.117531 25.1299 -0.00914601 26.7483 0.476186C28.3666 0.961519 29.8418 1.80991 31.0523 2.95139C32.2627 4.09287 33.1738 5.49475 33.7102 7.04143C34.2466 8.58811 34.3931 10.2353 34.1376 11.8471C33.882 13.4589 33.2318 14.9893 32.2405 16.3119C31.2492 17.6346 29.9452 18.7116 28.4361 19.4542C26.927 20.1969 25.2559 20.5839 23.5607 20.5833Z" fill="#A6A6A6"/>
<path opacity="0.65" fill-rule="evenodd" clip-rule="evenodd" d="M12.8594 10.2918C12.8594 8.69608 13.2463 7.12234 13.9893 5.69556C14.7322 4.26878 15.8109 3.02826 17.1394 2.07251C18.4681 3.02821 19.5467 4.26872 20.2897 5.69551C21.0326 7.1223 21.4195 8.69607 21.4195 10.2918C21.4195 11.8876 21.0326 13.4613 20.2897 14.8881C19.5467 16.3149 18.4681 17.5554 17.1394 18.5111C15.8109 17.5554 14.7322 16.3148 13.9893 14.8881C13.2463 13.4613 12.8594 11.8875 12.8594 10.2918Z" fill="#A6A6A6"/>
</svg>
