<svg width="16" height="16" viewBox="0 0 16 16" fill="none" xmlns="http://www.w3.org/2000/svg">
<path d="M11.3684 15.9999C5.09984 15.9999 0 10.9 0 4.63144C0.001079 3.55597 0.393657 2.51768 1.1044 1.71053C1.81513 0.903379 2.79541 0.382587 3.86211 0.245444C4.13354 0.212697 4.40829 0.268697 4.64525 0.405068C4.88222 0.541439 5.06867 0.750854 5.17674 1.002L6.76295 4.70289C6.84523 4.89433 6.87877 5.10318 6.86059 5.31076C6.8424 5.51834 6.77305 5.71817 6.65874 5.89239L5.34545 7.89908L5.34529 7.89923C5.93831 9.10496 6.9163 10.0786 8.12463 10.6663L10.1017 9.34839C10.2764 9.2315 10.4776 9.16019 10.6869 9.14097C10.8962 9.12175 11.107 9.15522 11.3001 9.23834L14.9978 10.823C15.249 10.9311 15.4584 11.1175 15.5948 11.3545C15.7312 11.5915 15.7872 11.8662 15.7544 12.1377C15.6173 13.2044 15.0965 14.1847 14.2894 14.8954C13.4822 15.6062 12.4439 15.9988 11.3684 15.9999ZM4.01574 1.49968C3.25488 1.59844 2.55596 1.97071 2.04945 2.547C1.54293 3.12328 1.26345 3.8642 1.26316 4.63144C1.26619 7.3106 2.33182 9.87915 4.22627 11.7736C6.12072 13.668 8.68927 14.7337 11.3684 14.7367C12.1364 14.7361 12.878 14.4559 13.4545 13.9485C14.0311 13.4411 14.4031 12.7411 14.5013 11.9794L10.8025 10.3994L8.82608 11.7174C8.64441 11.8387 8.43435 11.9108 8.21646 11.9266C7.99856 11.9424 7.7803 11.9013 7.58305 11.8074C6.11401 11.0955 4.92551 9.91243 4.20695 8.44665C4.11258 8.25057 4.07049 8.03343 4.08477 7.81629C4.09904 7.59915 4.16919 7.38938 4.28842 7.20734L5.60179 5.2005L4.01574 1.49968Z" fill="#212121"/>
</svg>
