<svg width="16" height="10" viewBox="0 0 16 10" fill="none" xmlns="http://www.w3.org/2000/svg">
<mask id="path-1-inside-1_568_9964" fill="white">
<path d="M14.1864 4.18079C14.414 3.85859 14.5946 3.60007 14.728 3.40503C15.6887 2.00583 16.1052 1.112 15.9775 0.722314L15.9275 0.631048C15.8942 0.57623 15.8079 0.525889 15.6692 0.480322C15.5303 0.434788 15.3527 0.427512 15.1362 0.457571L12.737 0.476108C12.6815 0.47005 12.6259 0.471465 12.5704 0.480322C12.5148 0.489573 12.4788 0.498858 12.462 0.507715C12.4453 0.516999 12.4315 0.52444 12.4204 0.530498L12.3872 0.557891C12.3594 0.576032 12.3289 0.608067 12.2956 0.653832C12.2622 0.699563 12.2343 0.752571 12.2122 0.813612C11.9512 1.54966 11.6542 2.23415 11.3209 2.86686C11.1154 3.24407 10.9265 3.5713 10.7545 3.84773C10.5823 4.12479 10.4379 4.32852 10.3213 4.45906C10.2047 4.58984 10.0991 4.695 10.0048 4.77382C9.9102 4.8532 9.8381 4.88645 9.78826 4.87437C9.73819 4.86228 9.69094 4.8502 9.64661 4.83769C9.56883 4.7831 9.50625 4.70873 9.45918 4.61423C9.41193 4.52017 9.3801 4.40145 9.36333 4.25839C9.34677 4.11553 9.33685 3.99223 9.33427 3.88865C9.33132 3.7853 9.33279 3.63942 9.3385 3.4506C9.34404 3.26198 9.34677 3.13446 9.34677 3.06736C9.34677 2.83643 9.35101 2.58539 9.35933 2.31459C9.3676 2.04398 9.3746 1.82939 9.3801 1.67119C9.38563 1.51322 9.38837 1.34576 9.38837 1.16926C9.38837 0.993147 9.37863 0.854504 9.35906 0.753986C9.33959 0.653831 9.31034 0.556508 9.27172 0.462016C9.23274 0.367919 9.17587 0.294762 9.10082 0.243203C9.0258 0.191413 8.93287 0.150521 8.82181 0.119869C8.52729 0.0467119 8.15243 0.00763092 7.69717 0.00121073C6.66414 -0.0104773 6.00047 0.0624496 5.70616 0.220419C5.58954 0.287519 5.48395 0.378587 5.38961 0.494249C5.28955 0.62825 5.27576 0.701374 5.34804 0.713062C5.68133 0.767881 5.91718 0.898852 6.05604 1.10558L6.10609 1.21499C6.14489 1.29437 6.18372 1.43423 6.2227 1.6349C6.26154 1.83561 6.28654 2.05765 6.29775 2.30106C6.32553 2.74514 6.32553 3.12518 6.29775 3.44174C6.26998 3.75827 6.24368 4.00451 6.21868 4.18062C6.19364 4.35713 6.15613 4.49999 6.10627 4.60939C6.05622 4.7192 6.02295 4.7861 6.00621 4.81046C5.98947 4.83463 5.97567 4.84994 5.96464 4.85603C5.89236 4.88625 5.81749 4.90156 5.7397 4.90156C5.66189 4.90156 5.56751 4.85883 5.45642 4.77359C5.34531 4.68877 5.22998 4.5715 5.11078 4.42239C4.99121 4.2735 4.85674 4.06496 4.70664 3.79716C4.55672 3.52978 4.40109 3.21322 4.24014 2.84832L4.10696 2.58354C4.02365 2.41349 3.90976 2.16544 3.76537 1.84002C3.62098 1.5146 3.49313 1.19988 3.38222 0.895428C3.33771 0.767881 3.2711 0.670557 3.18228 0.603458L3.14072 0.576065C3.11295 0.551866 3.06843 0.525889 3.00736 0.498661C2.9461 0.471268 2.88247 0.451513 2.81569 0.439233L0.533136 0.457374C0.2999 0.457374 0.141715 0.515419 0.0583991 0.631048L0.0250969 0.685669C0.00826544 0.716289 0 0.765049 0 0.831753C0 0.898852 0.0167413 0.980866 0.0500435 1.07799C0.383336 1.93596 0.745723 2.76331 1.13714 3.56001C1.52878 4.35713 1.86889 4.99908 2.15767 5.4857C2.44645 5.97271 2.74076 6.43171 3.04078 6.8637C3.3408 7.2957 3.53926 7.57233 3.63637 7.69385C3.73348 7.81577 3.80983 7.90707 3.8654 7.96768L4.07363 8.18689C4.20681 8.33281 4.40271 8.50767 4.66099 8.7116C4.91923 8.9155 5.20509 9.11621 5.51909 9.31368C5.83273 9.51156 6.19803 9.67252 6.61446 9.79747C7.03091 9.92238 7.43631 9.97253 7.83068 9.94797H8.78869C8.98312 9.92982 9.13022 9.86315 9.23015 9.74726L9.26343 9.70173C9.28549 9.66544 9.30647 9.60905 9.32594 9.53306C9.34527 9.4571 9.35525 9.37328 9.35525 9.28221C9.34951 9.02069 9.36775 8.78453 9.40932 8.57497C9.45089 8.36501 9.49813 8.20704 9.55097 8.10027C9.60375 7.99405 9.66332 7.9042 9.73008 7.83105C9.79671 7.75789 9.84378 7.71417 9.87173 7.69886C9.8995 7.68394 9.9218 7.67327 9.93837 7.66682C10.0715 7.61823 10.2284 7.66541 10.409 7.80826C10.5895 7.95155 10.7589 8.12763 10.9173 8.33758C11.0755 8.54754 11.2656 8.78308 11.4879 9.04483C11.7099 9.30634 11.9043 9.50099 12.071 9.62873L12.2376 9.73857C12.3487 9.8113 12.4929 9.8782 12.6708 9.93927C12.8485 9.99992 13.0041 10.0152 13.1373 9.98481L15.2699 9.94813C15.4809 9.94813 15.6448 9.91027 15.7614 9.83408C15.878 9.75852 15.9474 9.6743 15.9697 9.58323C15.9917 9.49197 15.9932 9.38901 15.9739 9.27312C15.9544 9.15766 15.9349 9.07706 15.9156 9.03152C15.8962 8.98599 15.8781 8.9477 15.8613 8.91748C15.5836 8.37001 15.0533 7.69761 14.2702 6.90071L14.2535 6.88257L14.2452 6.87332L14.2369 6.86443H14.2286C13.873 6.49328 13.6482 6.24381 13.5538 6.11587C13.3817 5.87289 13.3427 5.62645 13.4373 5.37702C13.5035 5.18787 13.7533 4.78932 14.1864 4.18079Z"/>
</mask>
<path d="M14.1864 4.18079C14.414 3.85859 14.5946 3.60007 14.728 3.40503C15.6887 2.00583 16.1052 1.112 15.9775 0.722314L15.9275 0.631048C15.8942 0.57623 15.8079 0.525889 15.6692 0.480322C15.5303 0.434788 15.3527 0.427512 15.1362 0.457571L12.737 0.476108C12.6815 0.47005 12.6259 0.471465 12.5704 0.480322C12.5148 0.489573 12.4788 0.498858 12.462 0.507715C12.4453 0.516999 12.4315 0.52444 12.4204 0.530498L12.3872 0.557891C12.3594 0.576032 12.3289 0.608067 12.2956 0.653832C12.2622 0.699563 12.2343 0.752571 12.2122 0.813612C11.9512 1.54966 11.6542 2.23415 11.3209 2.86686C11.1154 3.24407 10.9265 3.5713 10.7545 3.84773C10.5823 4.12479 10.4379 4.32852 10.3213 4.45906C10.2047 4.58984 10.0991 4.695 10.0048 4.77382C9.9102 4.8532 9.8381 4.88645 9.78826 4.87437C9.73819 4.86228 9.69094 4.8502 9.64661 4.83769C9.56883 4.7831 9.50625 4.70873 9.45918 4.61423C9.41193 4.52017 9.3801 4.40145 9.36333 4.25839C9.34677 4.11553 9.33685 3.99223 9.33427 3.88865C9.33132 3.7853 9.33279 3.63942 9.3385 3.4506C9.34404 3.26198 9.34677 3.13446 9.34677 3.06736C9.34677 2.83643 9.35101 2.58539 9.35933 2.31459C9.3676 2.04398 9.3746 1.82939 9.3801 1.67119C9.38563 1.51322 9.38837 1.34576 9.38837 1.16926C9.38837 0.993147 9.37863 0.854504 9.35906 0.753986C9.33959 0.653831 9.31034 0.556508 9.27172 0.462016C9.23274 0.367919 9.17587 0.294762 9.10082 0.243203C9.0258 0.191413 8.93287 0.150521 8.82181 0.119869C8.52729 0.0467119 8.15243 0.00763092 7.69717 0.00121073C6.66414 -0.0104773 6.00047 0.0624496 5.70616 0.220419C5.58954 0.287519 5.48395 0.378587 5.38961 0.494249C5.28955 0.62825 5.27576 0.701374 5.34804 0.713062C5.68133 0.767881 5.91718 0.898852 6.05604 1.10558L6.10609 1.21499C6.14489 1.29437 6.18372 1.43423 6.2227 1.6349C6.26154 1.83561 6.28654 2.05765 6.29775 2.30106C6.32553 2.74514 6.32553 3.12518 6.29775 3.44174C6.26998 3.75827 6.24368 4.00451 6.21868 4.18062C6.19364 4.35713 6.15613 4.49999 6.10627 4.60939C6.05622 4.7192 6.02295 4.7861 6.00621 4.81046C5.98947 4.83463 5.97567 4.84994 5.96464 4.85603C5.89236 4.88625 5.81749 4.90156 5.7397 4.90156C5.66189 4.90156 5.56751 4.85883 5.45642 4.77359C5.34531 4.68877 5.22998 4.5715 5.11078 4.42239C4.99121 4.2735 4.85674 4.06496 4.70664 3.79716C4.55672 3.52978 4.40109 3.21322 4.24014 2.84832L4.10696 2.58354C4.02365 2.41349 3.90976 2.16544 3.76537 1.84002C3.62098 1.5146 3.49313 1.19988 3.38222 0.895428C3.33771 0.767881 3.2711 0.670557 3.18228 0.603458L3.14072 0.576065C3.11295 0.551866 3.06843 0.525889 3.00736 0.498661C2.9461 0.471268 2.88247 0.451513 2.81569 0.439233L0.533136 0.457374C0.2999 0.457374 0.141715 0.515419 0.0583991 0.631048L0.0250969 0.685669C0.00826544 0.716289 0 0.765049 0 0.831753C0 0.898852 0.0167413 0.980866 0.0500435 1.07799C0.383336 1.93596 0.745723 2.76331 1.13714 3.56001C1.52878 4.35713 1.86889 4.99908 2.15767 5.4857C2.44645 5.97271 2.74076 6.43171 3.04078 6.8637C3.3408 7.2957 3.53926 7.57233 3.63637 7.69385C3.73348 7.81577 3.80983 7.90707 3.8654 7.96768L4.07363 8.18689C4.20681 8.33281 4.40271 8.50767 4.66099 8.7116C4.91923 8.9155 5.20509 9.11621 5.51909 9.31368C5.83273 9.51156 6.19803 9.67252 6.61446 9.79747C7.03091 9.92238 7.43631 9.97253 7.83068 9.94797H8.78869C8.98312 9.92982 9.13022 9.86315 9.23015 9.74726L9.26343 9.70173C9.28549 9.66544 9.30647 9.60905 9.32594 9.53306C9.34527 9.4571 9.35525 9.37328 9.35525 9.28221C9.34951 9.02069 9.36775 8.78453 9.40932 8.57497C9.45089 8.36501 9.49813 8.20704 9.55097 8.10027C9.60375 7.99405 9.66332 7.9042 9.73008 7.83105C9.79671 7.75789 9.84378 7.71417 9.87173 7.69886C9.8995 7.68394 9.9218 7.67327 9.93837 7.66682C10.0715 7.61823 10.2284 7.66541 10.409 7.80826C10.5895 7.95155 10.7589 8.12763 10.9173 8.33758C11.0755 8.54754 11.2656 8.78308 11.4879 9.04483C11.7099 9.30634 11.9043 9.50099 12.071 9.62873L12.2376 9.73857C12.3487 9.8113 12.4929 9.8782 12.6708 9.93927C12.8485 9.99992 13.0041 10.0152 13.1373 9.98481L15.2699 9.94813C15.4809 9.94813 15.6448 9.91027 15.7614 9.83408C15.878 9.75852 15.9474 9.6743 15.9697 9.58323C15.9917 9.49197 15.9932 9.38901 15.9739 9.27312C15.9544 9.15766 15.9349 9.07706 15.9156 9.03152C15.8962 8.98599 15.8781 8.9477 15.8613 8.91748C15.5836 8.37001 15.0533 7.69761 14.2702 6.90071L14.2535 6.88257L14.2452 6.87332L14.2369 6.86443H14.2286C13.873 6.49328 13.6482 6.24381 13.5538 6.11587C13.3817 5.87289 13.3427 5.62645 13.4373 5.37702C13.5035 5.18787 13.7533 4.78932 14.1864 4.18079Z" stroke="black" stroke-width="2" mask="url(#path-1-inside-1_568_9964)"/>
</svg>
