<svg width="20" height="20" viewBox="0 0 20 20" fill="none" xmlns="http://www.w3.org/2000/svg">
<path fill-rule="evenodd" clip-rule="evenodd" d="M10.9933 6.77089V10.0279C11.0243 10.1204 11.0807 10.2024 11.156 10.2644C11.2313 10.3265 11.3225 10.3662 11.4193 10.3789C11.7193 10.3789 12.3973 8.57889 12.6983 7.97289C12.8583 7.6314 13.1149 7.34425 13.4363 7.14689C13.5368 7.05642 13.6644 7.0019 13.7993 6.99189H16.6773C16.7548 7.00505 16.8277 7.03769 16.8891 7.08675C16.9506 7.13581 16.9985 7.19967 17.0285 7.27235C17.0585 7.34503 17.0695 7.42413 17.0606 7.50224C17.0516 7.58035 17.023 7.6549 16.9773 7.71889C16.2814 8.67546 15.5283 9.58912 14.7223 10.4549C14.6017 10.6175 14.5202 10.8057 14.4843 11.0049C14.5239 11.2404 14.6329 11.4587 14.7973 11.6319C14.9973 11.8579 16.6133 13.6319 16.7633 13.7869C16.9059 13.9503 17.0013 14.1494 17.0393 14.3629C17.0031 14.5448 16.9019 14.7074 16.7548 14.8204C16.6076 14.9333 16.4244 14.989 16.2393 14.9769C15.6123 14.9769 14.0723 14.9769 13.8973 14.9769C13.5454 14.8541 13.2217 14.662 12.9453 14.4119C12.7193 14.2119 11.7923 13.2599 11.6673 13.1349C11.6842 13.0147 11.6923 12.8933 11.6913 12.7719C11.4991 12.8015 11.3235 12.898 11.1955 13.0443C11.0674 13.1907 10.9951 13.3775 10.9913 13.5719C10.9667 13.961 10.8866 14.3445 10.7533 14.7109C10.6546 14.803 10.5387 14.8748 10.4122 14.922C10.2858 14.9692 10.1512 14.9909 10.0163 14.9859C8.99271 15.0494 7.97436 14.7967 7.09928 14.2619C5.33206 12.9373 3.8947 11.2224 2.89928 9.25089C2.12628 7.70789 1.95228 7.46789 1.99928 7.29289C2.04628 7.11789 2.04928 6.99289 2.22528 6.99289C2.40128 6.99289 4.61528 6.99289 4.83128 6.99289C4.97708 7.06571 5.09891 7.17886 5.18228 7.31889C5.25728 7.41889 5.82928 8.37489 6.00428 8.67489C6.17928 8.97489 7.04528 10.3799 7.51228 10.3799C7.66768 10.3494 7.80471 10.2587 7.8935 10.1275C7.98229 9.99642 8.01564 9.83551 7.98628 9.67989C7.98628 9.27989 7.98628 7.70089 7.98628 7.49989C7.79597 7.05654 7.44729 6.70002 7.00828 6.49989C7.11773 6.35453 7.25734 6.23458 7.41753 6.14827C7.57772 6.06196 7.75468 6.01134 7.93628 5.99989C8.53628 5.97489 10.0363 5.97489 10.3663 6.02389C10.5402 6.05845 10.6971 6.15131 10.8111 6.28713C10.9251 6.42296 10.9894 6.59361 10.9933 6.77089Z" fill="#333333"/>
</svg>
