<svg width="150" height="57" viewBox="0 0 150 57" fill="none" xmlns="http://www.w3.org/2000/svg">
<g clip-path="url(#clip0_324_2779)">
<path d="M4.18475 38.2929L9.46475 52.3226L14.7322 38.2929H18.843V56.5969H15.675V50.5626L15.9893 42.4918L10.5836 56.5969H8.30818L2.91503 42.5043L3.22932 50.5626V56.5969H0.0613167V38.2929H4.18475ZM33.3128 48.4255H25.795V54.0575H34.5825V56.5969H22.6145V38.2929H34.4945V40.8575H25.795V45.9112H33.3128V48.4255ZM51.2019 54.2209C50.5398 55.0842 49.6221 55.7379 48.4488 56.1821C47.2754 56.6263 45.9429 56.8484 44.451 56.8484C42.9173 56.8484 41.5596 56.5005 40.3779 55.8049C39.1962 55.1093 38.2827 54.1162 37.6373 52.8255C37.0004 51.5264 36.6693 50.0137 36.6442 48.2872V46.8541C36.6442 44.0883 37.3063 41.9303 38.6305 40.3798C39.9547 38.8209 41.8027 38.0415 44.1745 38.0415C46.211 38.0415 47.8286 38.5443 49.027 39.5501C50.2255 40.5558 50.9463 42.0057 51.1893 43.8998H48.0716C47.7196 41.6956 46.4415 40.5935 44.2373 40.5935C42.8126 40.5935 41.7272 41.1089 40.9813 42.1398C40.2438 43.1623 39.8625 44.6666 39.8373 46.6529V48.0609C39.8373 50.0388 40.2522 51.5767 41.0819 52.6746C41.92 53.7642 43.0808 54.3089 44.5642 54.3089C46.1901 54.3089 47.3467 53.9402 48.0339 53.2026V49.6198H44.2625V47.2061H51.2019V54.2209ZM64.9425 52.3352H57.8522L56.3688 56.5969H53.0625L59.9768 38.2929H62.8305L69.7573 56.5969H66.4385L64.9425 52.3352ZM58.7448 49.7706H64.0499L61.3973 42.1775L58.7448 49.7706ZM77.3128 52.6118L81.9642 38.2929H85.4591L78.8716 56.5969H75.7916L69.2293 38.2929H72.7116L77.3128 52.6118ZM90.8899 56.5969H87.7219V38.2929H90.8899V56.5969ZM104.366 51.8826C104.366 51.0781 104.082 50.4579 103.512 50.0221C102.95 49.5863 101.932 49.1463 100.457 48.7021C98.9817 48.2579 97.8084 47.7634 96.9368 47.2186C95.269 46.171 94.4351 44.8049 94.4351 43.1203C94.4351 41.6453 95.0343 40.4301 96.2328 39.4746C97.4396 38.5192 99.0027 38.0415 100.922 38.0415C102.196 38.0415 103.331 38.2762 104.329 38.7455C105.326 39.2148 106.11 39.8853 106.68 40.7569C107.25 41.6202 107.534 42.5798 107.534 43.6358H104.366C104.366 42.6803 104.065 41.9344 103.461 41.3981C102.866 40.8533 102.011 40.5809 100.897 40.5809C99.8575 40.5809 99.0488 40.803 98.4705 41.2472C97.9006 41.6914 97.6156 42.3116 97.6156 43.1078C97.6156 43.7783 97.9257 44.3398 98.5459 44.7923C99.1661 45.2365 100.189 45.6723 101.613 46.0998C103.038 46.5188 104.182 47.0007 105.045 47.5455C105.909 48.0819 106.541 48.7021 106.944 49.4061C107.346 50.1017 107.547 50.9188 107.547 51.8575C107.547 53.3828 106.96 54.5981 105.787 55.5032C104.622 56.4 103.038 56.8484 101.035 56.8484C99.7109 56.8484 98.4914 56.6053 97.3768 56.1192C96.2705 55.6247 95.4073 54.9459 94.7871 54.0826C94.1753 53.2194 93.8694 52.2137 93.8694 51.0655H97.0499C97.0499 52.1047 97.3935 52.9093 98.0808 53.4792C98.768 54.0491 99.7528 54.3341 101.035 54.3341C102.141 54.3341 102.971 54.112 103.524 53.6678C104.086 53.2152 104.366 52.6202 104.366 51.8826ZM113.694 56.5969H110.526V38.2929H113.694V56.5969ZM132.212 47.9226C132.212 49.7162 131.902 51.2918 131.282 52.6495C130.662 53.9988 129.773 55.0381 128.617 55.7672C127.469 56.488 126.144 56.8484 124.644 56.8484C123.161 56.8484 121.837 56.488 120.672 55.7672C119.515 55.0381 118.618 54.003 117.981 52.6621C117.353 51.3211 117.034 49.7748 117.026 48.0232V46.9923C117.026 45.2072 117.34 43.6316 117.969 42.2655C118.606 40.8994 119.498 39.856 120.646 39.1352C121.803 38.4061 123.127 38.0415 124.619 38.0415C126.111 38.0415 127.431 38.4019 128.579 39.1226C129.736 39.835 130.628 40.8659 131.257 42.2152C131.885 43.5562 132.204 45.1192 132.212 46.9043V47.9226ZM129.032 46.9672C129.032 44.939 128.646 43.3843 127.875 42.3032C127.112 41.2221 126.027 40.6815 124.619 40.6815C123.245 40.6815 122.168 41.2221 121.388 42.3032C120.617 43.376 120.223 44.8971 120.206 46.8666V47.9226C120.206 49.9341 120.596 51.4887 121.376 52.5866C122.163 53.6845 123.253 54.2335 124.644 54.2335C126.052 54.2335 127.133 53.6971 127.888 52.6244C128.65 51.5516 129.032 49.9844 129.032 47.9226V46.9672ZM149.9 56.5969H146.72L138.561 43.6106V56.5969H135.38V38.2929H138.561L146.745 51.3295V38.2929H149.9V56.5969Z" fill="#1F1F1F"/>
<path fill-rule="evenodd" clip-rule="evenodd" d="M90.0173 0.352596C81.4 1.08519 73.1938 3.84573 66.8613 8.14138C65.8305 8.84092 63.5125 10.0181 61.7102 10.7575C57.8313 12.3493 54.9808 14.1234 52.5089 16.4842C50.4545 18.4464 50.452 18.3905 52.7843 22.3461C55.6939 27.2809 56.601 28.311 58.4515 28.7825C60.4927 29.3027 62.9495 28.8578 63.942 27.7885C64.4328 27.2596 64.7153 25.8244 65.1381 21.718C65.734 15.9298 65.9292 15.019 66.5294 15.2318C66.7426 15.307 67.7451 17.7092 68.7569 20.5701C69.7688 23.4305 70.9026 26.1356 71.276 26.5809C72.4144 27.9382 74.0457 28.4257 77.4478 28.4257C81.2509 28.4257 85.0683 27.7068 89.6585 26.1261C93.8936 24.6677 96.3658 23.252 97.0186 21.911C97.3988 21.1302 97.5851 18.3442 97.7629 10.7917L98 0.714715L97.0254 0.321058C95.9502 -0.113256 95.4692 -0.110977 90.0173 0.352596ZM92.2956 4.58213C92.6679 6.05872 92.5356 16.765 92.1253 18.3343C91.571 20.4557 90.1389 21.6933 87.0984 22.6789C83.7488 23.7649 76.9078 24.8441 75.6037 24.4922C73.177 23.8375 71.5349 20.9489 69.5924 13.9178C68.6053 10.3445 68.6579 10.2476 72.6705 8.25385C77.2218 5.9926 85.604 3.80051 89.886 3.75188C91.8682 3.72946 92.1007 3.80963 92.2956 4.58213ZM63.2464 16.0803C63.4717 18.2868 63.3254 23.1448 62.9792 24.936C62.706 26.351 59.4859 27.4123 57.6883 26.6793C57.0191 26.4065 53.1778 20.04 53.1778 19.2041C53.1778 18.1158 61.0335 13.4797 62.4771 13.716C62.8533 13.778 63.0829 14.4832 63.2464 16.0803Z" fill="#DE2747"/>
</g>
<defs>
<clipPath id="clip0_324_2779">
<rect width="150" height="57" fill="white"/>
</clipPath>
</defs>
</svg>
