<svg width="17" height="17" viewBox="0 0 17 17" fill="none" xmlns="http://www.w3.org/2000/svg">
<path d="M16.0938 3.11248L16.0939 3.11248C15.9033 2.60832 15.6111 2.15898 15.2289 1.78569L15.222 1.77893L15.2221 1.77886C14.8474 1.3984 14.3939 1.10308 13.8975 0.916294L13.8933 0.914719L13.8933 0.914701C13.4071 0.726736 12.8432 0.590358 11.989 0.552702L11.9873 0.552628C11.089 0.509992 10.8093 0.5 8.50331 0.5C6.19748 0.5 5.91695 0.509983 5.02103 0.549329L16.0938 3.11248ZM16.0938 3.11248L16.0956 3.11693M16.0938 3.11248L16.0956 3.11693M16.0956 3.11693C16.2831 3.59895 16.4196 4.16548 16.4573 5.02001L16.0956 3.11693ZM3.11308 0.912717L3.11307 0.912696C2.60868 1.10324 2.15926 1.39541 1.78589 1.77748L1.77913 1.78439L1.77907 1.78432C1.39858 2.15891 1.1033 2.61232 0.916322 3.10869L0.914795 3.11275L0.914778 3.11274C0.726766 3.59905 0.590373 4.1627 0.552712 5.01672L0.552638 5.0184C0.509994 5.91652 0.5 6.1961 0.5 8.50169C0.5 10.8071 0.509985 11.0875 0.549339 11.9833L3.11308 0.912717ZM3.11308 0.912717L3.1175 0.911M3.11308 0.912717L3.1175 0.911M3.1175 0.911C3.5996 0.723637 4.16629 0.587015 5.02095 0.549333L3.1175 0.911ZM0.912896 13.8909L0.912875 13.8909C1.10294 14.3937 1.39816 14.844 1.77907 15.219L1.78457 15.2245L1.78453 15.2245C2.15923 15.605 2.61273 15.9003 3.1091 16.0871L3.11325 16.0886C3.59967 16.2766 4.16344 16.413 5.01779 16.4507C5.91355 16.4901 6.1941 16.5 8.50006 16.5C10.806 16.5 11.0864 16.4901 11.9823 16.4507C12.8371 16.413 13.4038 16.2765 13.8858 16.089L13.8867 16.0887C14.898 15.6978 15.6976 14.8984 16.0886 13.8875L0.912896 13.8909ZM0.912896 13.8909L0.911168 13.8864M0.912896 13.8909L0.911168 13.8864M0.911168 13.8864C0.723671 13.4044 0.58703 12.8378 0.549342 11.9834L0.911168 13.8864ZM16.4507 11.9834C16.4507 11.9833 16.4507 11.9833 16.4507 11.9833L16.9473 12.0052L16.4507 11.9834ZM16.4507 11.9834C16.413 12.8372 16.2765 13.401 16.0886 13.8873L16.4507 11.9834ZM13.6998 15.5965C14.5716 15.26 15.263 14.5686 15.5995 13.697M13.6998 15.5965C13.6995 15.5967 13.6992 15.5968 13.6988 15.5969L13.5189 15.1304L13.7001 15.5964C13.7 15.5965 13.6999 15.5965 13.6998 15.5965ZM13.6998 15.5965C13.3514 15.732 12.8461 15.8831 11.9634 15.922M15.5995 13.697L5.04973 15.922L5.07205 15.4228L5.05014 15.9221C5.95442 15.9625 6.23564 15.9724 8.50668 15.9724C10.7781 15.9724 11.0556 15.9625 11.9634 15.922M15.5995 13.697C15.7349 13.3488 15.8861 12.8468 15.9251 11.9609M15.5995 13.697L11.9668 1.09456C12.8499 1.13349 13.3515 1.2838 13.6996 1.41879C14.1326 1.57932 14.5291 1.83354 14.8534 2.16802C15.1849 2.4932 15.4395 2.88493 15.6008 3.31968C15.7359 3.66797 15.8862 4.17274 15.9251 5.05237M11.9634 15.922L11.9412 15.4235L11.9632 15.9221C11.9633 15.922 11.9633 15.922 11.9634 15.922ZM15.9251 11.9609C15.9251 11.961 15.9251 11.961 15.9251 11.9611L15.4256 11.9389L15.9251 11.9609ZM15.9251 11.9609C15.9654 11.0535 15.9754 10.7792 15.9754 8.5083C15.9754 6.23731 15.9654 5.95983 15.9251 5.05237M15.9251 5.05237C15.9251 5.05234 15.9251 5.05231 15.9251 5.05228L15.4269 5.07441L15.9251 5.05237ZM1.41582 3.31965C1.28078 3.66768 1.13041 4.16927 1.09161 5.0524L1.41582 3.31965ZM1.41582 3.31965C1.57643 2.88682 1.83083 2.48991 2.16965 2.1649C2.49458 1.83394 2.88604 1.57978 3.32045 1.41878C3.66878 1.28369 4.17372 1.13347 5.05326 1.09456L1.41582 3.31965ZM2.16318 14.8486C2.48749 15.1831 2.88403 15.4373 3.31693 15.5979L1.09162 11.9645C1.13042 12.844 1.2807 13.3488 1.41583 13.6971C1.57716 14.1317 1.83169 14.5234 2.16318 14.8486ZM1.0413 8.5083C1.0413 10.7791 1.05117 11.0569 1.09161 11.9643L1.09161 5.05253C1.05117 5.95652 1.0413 6.2377 1.0413 8.5083ZM8.50993 1.04425C6.23863 1.04425 5.96097 1.05425 5.05334 1.09455L11.9665 1.09455C11.0622 1.05425 10.7845 1.04425 8.50993 1.04425Z" stroke="black"/>
<path d="M8.5 3.99976C6.01567 3.99976 4 6.01529 4 8.49975C4 10.9842 6.01567 12.9998 8.5 12.9998C10.9845 12.9998 13 10.9842 13 8.49975C13 6.01529 10.9845 3.99976 8.5 3.99976ZM8.5 11.4188C6.88829 11.4188 5.58096 10.1116 5.58096 8.49975C5.58096 6.88791 6.88829 5.58072 8.5 5.58072C10.1118 5.58072 11.419 6.88791 11.419 8.49975C11.419 10.1116 10.1118 11.4188 8.5 11.4188V11.4188Z" fill="#212121"/>
<path d="M14 4.00024C14 4.55248 13.5523 5.00024 12.9999 5.00024C12.4477 5.00024 12 4.55248 12 4.00024C12 3.44788 12.4477 3.00024 12.9999 3.00024C13.5523 3.00024 14 3.44788 14 4.00024V4.00024Z" fill="#212121"/>
</svg>
