<svg width="17" height="17" viewBox="0 0 17 17" fill="none" xmlns="http://www.w3.org/2000/svg">
<path d="M13.5137 7.50195H10.9922V6.47656H13.5137H14.0137V5.97656V2.98828V2.48828H13.5137H10.4922C8.56821 2.48828 7.00391 4.05259 7.00391 5.97656V7.50195H5.51172H5.01172V8.00195V10.9902V11.4902H5.51172H7.00391V16.5H2.49023C1.39338 16.5 0.5 15.6066 0.5 14.5098V2.49023C0.5 1.39338 1.39338 0.5 2.49023 0.5H14.5098C15.6066 0.5 16.5 1.39338 16.5 2.49023V14.5098C16.5 15.6066 15.6066 16.5 14.5098 16.5H10.9922V11.4902H13.0156H13.4392L13.5088 11.0724L14.0069 8.08415L14.1039 7.50195H13.5137Z" stroke="black"/>
</svg>
