<svg width="24" height="24" viewBox="0 0 24 24" fill="none" xmlns="http://www.w3.org/2000/svg">
<path d="M17.0526 23.9998C7.64976 23.9998 0 16.35 0 6.94717C0.0016185 5.33396 0.590486 3.77652 1.65659 2.56579C2.7227 1.35507 4.19312 0.57388 5.79316 0.368166C6.20031 0.319046 6.61243 0.403045 6.96788 0.607601C7.32333 0.812158 7.60301 1.12628 7.76511 1.50299L10.1444 7.05434C10.2678 7.3415 10.3182 7.65477 10.2909 7.96614C10.2636 8.27751 10.1596 8.57726 9.98811 8.83859L8.01817 11.8486C8.90771 13.6572 10.3744 15.118 12.1869 15.9995L15.1526 14.0226C15.4146 13.8473 15.7164 13.7403 16.0303 13.7115C16.3443 13.6826 16.6605 13.7328 16.9501 13.8575L22.4967 16.2346C22.8734 16.3966 23.1876 16.6763 23.3922 17.0317C23.5968 17.3872 23.6808 17.7993 23.6316 18.2065C23.4259 19.8066 22.6448 21.277 21.434 22.3432C20.2233 23.4093 18.6659 23.9982 17.0526 23.9998ZM6.02361 2.24952C4.88232 2.39766 3.83394 2.95606 3.07417 3.82049C2.3144 4.68493 1.89517 5.7963 1.89474 6.94717C1.89928 10.9659 3.49773 14.8187 6.3394 17.6604C9.18107 20.5021 13.0339 22.1005 17.0526 22.1051C18.2047 22.1041 19.317 21.6839 20.1818 20.9227C21.0466 20.1616 21.6047 19.1117 21.7519 17.9691L16.2038 15.5991L13.2391 17.576C12.9666 17.7581 12.6515 17.8662 12.3247 17.8899C11.9978 17.9135 11.6705 17.8519 11.3746 17.711C9.17102 16.6433 7.38826 14.8686 6.31042 12.67C6.16887 12.3759 6.10574 12.0501 6.12715 11.7244C6.14856 11.3987 6.25379 11.0841 6.43263 10.811L8.40269 7.80075L6.02361 2.24952Z" fill="#212121"/>
</svg>
