<svg width="145" height="30" viewBox="0 0 145 30" fill="none" xmlns="http://www.w3.org/2000/svg">
<path d="M11.9736 8.07031H14.2705L18.5874 19.5854L22.894 8.07031H25.1909L19.4897 23H17.6646L11.9736 8.07031ZM10.9277 8.07031H13.1118L13.4912 18.0371V23H10.9277V8.07031ZM24.0527 8.07031H26.2471V23H23.6733V18.0371L24.0527 8.07031ZM39.0747 20.9595V23H31.1484V20.9595H39.0747ZM31.8765 8.07031V23H29.3027V8.07031H31.8765ZM38.0391 14.3047V16.3145H31.1484V14.3047H38.0391ZM39.0234 8.07031V10.1211H31.1484V8.07031H39.0234ZM52.6406 15.3711V21.0723C52.4287 21.3525 52.0972 21.6602 51.646 21.9951C51.2017 22.3232 50.6104 22.6069 49.8721 22.8462C49.1338 23.0854 48.2144 23.2051 47.1138 23.2051C46.1772 23.2051 45.3193 23.0479 44.54 22.7334C43.7607 22.4121 43.0874 21.9438 42.52 21.3286C41.9595 20.7134 41.5254 19.9648 41.2178 19.083C40.9102 18.1943 40.7563 17.1826 40.7563 16.0479V15.0122C40.7563 13.8843 40.8965 12.8794 41.1768 11.9976C41.4639 11.1089 41.874 10.3569 42.4072 9.7417C42.9404 9.12646 43.583 8.66162 44.335 8.34717C45.0938 8.02588 45.9517 7.86523 46.9087 7.86523C48.1323 7.86523 49.144 8.07031 49.9438 8.48047C50.7505 8.88379 51.3726 9.44434 51.8101 10.1621C52.2476 10.8799 52.5244 11.7002 52.6406 12.623H50.1182C50.0361 12.1035 49.8755 11.6387 49.6362 11.2285C49.4038 10.8184 49.0688 10.4971 48.6313 10.2646C48.2007 10.0254 47.6401 9.90576 46.9497 9.90576C46.355 9.90576 45.832 10.0186 45.3809 10.2441C44.9297 10.4697 44.5537 10.8013 44.2529 11.2388C43.959 11.6763 43.7368 12.2095 43.5864 12.8384C43.436 13.4673 43.3608 14.1851 43.3608 14.9917V16.0479C43.3608 16.8682 43.4463 17.5962 43.6172 18.2319C43.7949 18.8677 44.0479 19.4043 44.376 19.8418C44.7109 20.2793 45.1177 20.6108 45.5962 20.8364C46.0747 21.0552 46.6147 21.1646 47.2163 21.1646C47.8042 21.1646 48.2861 21.1167 48.6621 21.021C49.0381 20.9185 49.3354 20.7988 49.5542 20.6621C49.7798 20.5186 49.9541 20.3818 50.0771 20.252V17.2886H46.9702V15.3711H52.6406ZM61.3052 10.0596L56.8447 23H54.1479L59.7671 8.07031H61.4897L61.3052 10.0596ZM65.0376 23L60.5669 10.0596L60.3721 8.07031H62.105L67.7446 23H65.0376ZM64.8223 17.4629V19.5034H56.7012V17.4629H64.8223ZM73.6714 20.2725L77.5986 8.07031H80.439L75.0864 23H73.1689L73.6714 20.2725ZM70.0415 8.07031L73.938 20.2725L74.4712 23H72.5435L67.2114 8.07031H70.0415ZM84.8584 8.07031V23H82.2847V8.07031H84.8584ZM95.9121 19.1548C95.9121 18.8472 95.8643 18.5737 95.7686 18.3345C95.6797 18.0952 95.519 17.8765 95.2866 17.6782C95.0542 17.48 94.7261 17.2886 94.3022 17.104C93.8853 16.9126 93.3521 16.7178 92.7026 16.5195C91.9917 16.3008 91.3354 16.0581 90.7339 15.7915C90.1392 15.5181 89.6196 15.2036 89.1753 14.8481C88.731 14.4858 88.3857 14.0723 88.1396 13.6074C87.8936 13.1357 87.7705 12.5923 87.7705 11.9771C87.7705 11.3687 87.897 10.8149 88.1499 10.3159C88.4097 9.81689 88.7754 9.38623 89.2471 9.02393C89.7256 8.65479 90.2896 8.37109 90.939 8.17285C91.5884 7.96777 92.3062 7.86523 93.0923 7.86523C94.1997 7.86523 95.1533 8.07031 95.9531 8.48047C96.7598 8.89062 97.3784 9.44092 97.8091 10.1313C98.2466 10.8218 98.4653 11.584 98.4653 12.418H95.9121C95.9121 11.9258 95.8062 11.4917 95.5942 11.1157C95.3892 10.7329 95.0747 10.4321 94.6509 10.2134C94.2339 9.99463 93.7041 9.88525 93.0615 9.88525C92.4531 9.88525 91.9473 9.97754 91.5439 10.1621C91.1406 10.3467 90.8398 10.5962 90.6416 10.9106C90.4434 11.2251 90.3442 11.5806 90.3442 11.9771C90.3442 12.2573 90.4092 12.5137 90.5391 12.7461C90.6689 12.9717 90.8672 13.1836 91.1338 13.3818C91.4004 13.5732 91.7354 13.7544 92.1387 13.9253C92.542 14.0962 93.0171 14.2603 93.564 14.4175C94.3911 14.6636 95.1123 14.937 95.7275 15.2378C96.3428 15.5317 96.8555 15.8667 97.2656 16.2427C97.6758 16.6187 97.9834 17.0459 98.1885 17.5244C98.3936 17.9961 98.4961 18.5327 98.4961 19.1343C98.4961 19.7632 98.3696 20.3306 98.1167 20.8364C97.8638 21.3354 97.5015 21.7627 97.0298 22.1182C96.5649 22.4668 96.0044 22.7368 95.3481 22.9282C94.6987 23.1128 93.9741 23.2051 93.1743 23.2051C92.4565 23.2051 91.749 23.1094 91.0518 22.918C90.3613 22.7266 89.7324 22.436 89.165 22.0464C88.5977 21.6499 88.1465 21.1577 87.8115 20.5698C87.4766 19.9751 87.3091 19.2812 87.3091 18.4883H89.8828C89.8828 18.9736 89.9648 19.3872 90.1289 19.729C90.2998 20.0708 90.5356 20.3511 90.8364 20.5698C91.1372 20.7817 91.4858 20.939 91.8823 21.0415C92.2856 21.144 92.7163 21.1953 93.1743 21.1953C93.7759 21.1953 94.2783 21.1099 94.6816 20.939C95.0918 20.7681 95.3994 20.5288 95.6045 20.2212C95.8096 19.9136 95.9121 19.5581 95.9121 19.1548ZM103.521 8.07031V23H100.947V8.07031H103.521ZM118.625 15.125V15.9453C118.625 17.0732 118.478 18.085 118.184 18.9805C117.89 19.876 117.469 20.6382 116.922 21.2671C116.382 21.896 115.733 22.3779 114.974 22.7129C114.215 23.041 113.375 23.2051 112.452 23.2051C111.536 23.2051 110.698 23.041 109.939 22.7129C109.188 22.3779 108.535 21.896 107.981 21.2671C107.427 20.6382 106.997 19.876 106.689 18.9805C106.388 18.085 106.238 17.0732 106.238 15.9453V15.125C106.238 13.9971 106.388 12.9888 106.689 12.1001C106.99 11.2046 107.414 10.4424 107.96 9.81348C108.514 9.17773 109.167 8.6958 109.919 8.36768C110.678 8.03271 111.515 7.86523 112.431 7.86523C113.354 7.86523 114.195 8.03271 114.954 8.36768C115.712 8.6958 116.365 9.17773 116.912 9.81348C117.459 10.4424 117.879 11.2046 118.173 12.1001C118.474 12.9888 118.625 13.9971 118.625 15.125ZM116.051 15.9453V15.1045C116.051 14.2705 115.969 13.5356 115.805 12.8999C115.647 12.2573 115.412 11.7207 115.097 11.29C114.79 10.8525 114.41 10.5244 113.959 10.3057C113.508 10.0801 112.999 9.96729 112.431 9.96729C111.864 9.96729 111.358 10.0801 110.914 10.3057C110.469 10.5244 110.09 10.8525 109.775 11.29C109.468 11.7207 109.232 12.2573 109.068 12.8999C108.904 13.5356 108.822 14.2705 108.822 15.1045V15.9453C108.822 16.7793 108.904 17.5176 109.068 18.1602C109.232 18.8027 109.471 19.3462 109.786 19.7905C110.107 20.228 110.49 20.5596 110.934 20.7852C111.378 21.0039 111.884 21.1133 112.452 21.1133C113.026 21.1133 113.535 21.0039 113.979 20.7852C114.424 20.5596 114.8 20.228 115.107 19.7905C115.415 19.3462 115.647 18.8027 115.805 18.1602C115.969 17.5176 116.051 16.7793 116.051 15.9453ZM133.042 8.07031V23H130.468L123.772 12.3052V23H121.198V8.07031H123.772L130.488 18.7856V8.07031H133.042Z" fill="#3F4249"/>
</svg>
