<svg width="30" height="30" viewBox="0 0 30 30" fill="none" xmlns="http://www.w3.org/2000/svg">
<path d="M15 12.1875C13.4494 12.1875 12.1875 13.4494 12.1875 15C12.1875 16.5506 13.4494 17.8125 15 17.8125C16.5506 17.8125 17.8125 16.5506 17.8125 15C17.8125 13.4494 16.5506 12.1875 15 12.1875Z" fill="#9497A3"/>
<path d="M5.625 12.1875C4.07437 12.1875 2.8125 13.4494 2.8125 15C2.8125 16.5506 4.07437 17.8125 5.625 17.8125C7.17562 17.8125 8.4375 16.5506 8.4375 15C8.4375 13.4494 7.17562 12.1875 5.625 12.1875Z" fill="#9497A3"/>
<path d="M24.375 12.1875C22.8244 12.1875 21.5625 13.4494 21.5625 15C21.5625 16.5506 22.8244 17.8125 24.375 17.8125C25.9256 17.8125 27.1875 16.5506 27.1875 15C27.1875 13.4494 25.9256 12.1875 24.375 12.1875Z" fill="#9497A3"/>
</svg>
