<svg width="29" height="29" viewBox="0 0 29 29" fill="none" xmlns="http://www.w3.org/2000/svg">
<path d="M14.5 14.5C15.7547 14.5 16.9812 14.1279 18.0244 13.4309C19.0676 12.7338 19.8807 11.7431 20.3609 10.5839C20.841 9.42473 20.9666 8.14922 20.7219 6.91865C20.4771 5.68808 19.8729 4.55773 18.9857 3.67054C18.0985 2.78335 16.9682 2.17917 15.7376 1.9344C14.507 1.68962 13.2315 1.81525 12.0724 2.29539C10.9132 2.77554 9.92242 3.58863 9.22536 4.63185C8.5283 5.67508 8.15625 6.90158 8.15625 8.15625C8.15625 9.83872 8.82461 11.4523 10.0143 12.642C11.204 13.8316 12.8175 14.5 14.5 14.5ZM14.5 3.625C15.3962 3.625 16.2723 3.89076 17.0174 4.38866C17.7626 4.88656 18.3434 5.59424 18.6863 6.42222C19.0293 7.2502 19.119 8.16128 18.9442 9.04026C18.7693 9.91923 18.3378 10.7266 17.7041 11.3603C17.0704 11.994 16.263 12.4256 15.384 12.6004C14.505 12.7753 13.5939 12.6855 12.766 12.3426C11.938 11.9996 11.2303 11.4188 10.7324 10.6737C10.2345 9.92852 9.96875 9.05245 9.96875 8.15625C9.96875 6.95449 10.4461 5.80195 11.2959 4.95218C12.1457 4.1024 13.2982 3.625 14.5 3.625Z" fill="#9497A3"/>
<path d="M15.4062 16.3125H13.5938C10.9499 16.3125 8.41428 17.3628 6.54478 19.2323C4.67528 21.1018 3.625 23.6374 3.625 26.2812C3.625 26.5216 3.72048 26.7521 3.89043 26.9221C4.06039 27.092 4.2909 27.1875 4.53125 27.1875H24.4688C24.7091 27.1875 24.9396 27.092 25.1096 26.9221C25.2795 26.7521 25.375 26.5216 25.375 26.2812C25.375 23.6374 24.3247 21.1018 22.4552 19.2323C20.5857 17.3628 18.0501 16.3125 15.4062 16.3125ZM5.49187 25.375C5.71472 23.3818 6.66412 21.5406 8.15868 20.2032C9.65324 18.8658 11.5882 18.126 13.5938 18.125H15.4062C17.4118 18.126 19.3468 18.8658 20.8413 20.2032C22.3359 21.5406 23.2853 23.3818 23.5081 25.375H5.49187Z" fill="#9497A3"/>
</svg>
