<svg width="35" height="30" viewBox="0 0 35 30" fill="none" xmlns="http://www.w3.org/2000/svg">
<g clip-path="url(#clip0_1434_5982)">
<path d="M12.8539 27.7748C12.8539 28.2149 12.7283 28.6452 12.4929 29.0111C12.2575 29.3771 11.9229 29.6623 11.5314 29.8307C11.14 29.9991 10.7092 30.0432 10.2937 29.9573C9.8781 29.8715 9.49637 29.6595 9.19676 29.3483C8.89715 29.0371 8.69312 28.6406 8.61045 28.209C8.52779 27.7773 8.57022 27.3299 8.73236 26.9233C8.89451 26.5166 9.1691 26.1691 9.5214 25.9246C9.87371 25.6801 10.2879 25.5496 10.7116 25.5496C11.2798 25.5496 11.8247 25.784 12.2265 26.2013C12.6282 26.6186 12.8539 27.1846 12.8539 27.7748ZM24.6367 25.5496C24.213 25.5496 23.7988 25.6801 23.4465 25.9246C23.0942 26.1691 22.8196 26.5166 22.6575 26.9233C22.4953 27.3299 22.4529 27.7773 22.5356 28.209C22.6182 28.6406 22.8223 29.0371 23.1219 29.3483C23.4215 29.6595 23.8032 29.8715 24.2188 29.9573C24.6343 30.0432 25.0651 29.9991 25.4565 29.8307C25.848 29.6623 26.1826 29.3771 26.418 29.0111C26.6534 28.6452 26.779 28.2149 26.779 27.7748C26.779 27.1846 26.5533 26.6186 26.1516 26.2013C25.7498 25.784 25.2049 25.5496 24.6367 25.5496ZM30.7164 8.05305L27.1818 20.9033C26.988 21.5996 26.5821 22.2119 26.0251 22.6483C25.468 23.0848 24.7898 23.322 24.092 23.3243H11.2563C10.5585 23.322 9.88027 23.0848 9.32321 22.6484C8.76616 22.2119 8.36031 21.5996 8.16653 20.9033L4.63773 8.07405C4.63372 8.0605 4.62997 8.04687 4.62648 8.03317L3.32368 3.29681H1.07116C0.787072 3.29681 0.514618 3.17958 0.313736 2.97092C0.112854 2.76226 0 2.47926 0 2.18417C0 1.88908 0.112854 1.60608 0.313736 1.39742C0.514618 1.18876 0.787072 1.07153 1.07116 1.07153H3.32355C3.78872 1.0731 4.24088 1.2312 4.61226 1.52216C4.98364 1.81312 5.25425 2.22126 5.38352 2.68541L6.46981 6.63472H29.6864C29.8522 6.63472 30.0158 6.6747 30.1642 6.75151C30.3125 6.82832 30.4417 6.93986 30.5416 7.07735C30.6414 7.21484 30.7092 7.37453 30.7395 7.54384C30.7698 7.71315 30.7619 7.88747 30.7164 8.05305ZM28.2663 8.85999H7.08198L10.2265 20.2921C10.2911 20.5241 10.4264 20.7282 10.612 20.8737C10.7977 21.0192 11.0237 21.0982 11.2563 21.099H24.092C24.3246 21.0982 24.5506 21.0192 24.7363 20.8737C24.922 20.7282 25.0572 20.5241 25.1218 20.2921L28.2663 8.85999Z" fill="#9497A3"/>
</g>
<defs>
<clipPath id="clip0_1434_5982">
<rect width="35" height="30" fill="white"/>
</clipPath>
</defs>
</svg>
