<svg width="30" height="30" viewBox="0 0 30 30" fill="none" xmlns="http://www.w3.org/2000/svg">
<path d="M14.9777 0.632808C14.8518 0.637151 14.7304 0.681021 14.6308 0.758199L0.830811 11.5266C0.705247 11.6245 0.623718 11.7682 0.604159 11.9262C0.584599 12.0843 0.628612 12.2436 0.726514 12.3691C0.824416 12.4947 0.968188 12.5762 1.1262 12.5958C1.28422 12.6153 1.44353 12.5713 1.56909 12.4734L2.39995 11.8254V27.6C2.39997 27.7591 2.46319 27.9117 2.5757 28.0242C2.68822 28.1368 2.84083 28.2 2.99995 28.2H11.2992C11.364 28.2107 11.4301 28.2107 11.4949 28.2H18.4992C18.564 28.2107 18.6301 28.2107 18.6949 28.2H27C27.1591 28.2 27.3117 28.1368 27.4242 28.0242C27.5367 27.9117 27.5999 27.7591 27.6 27.6V11.8254L28.4308 12.4734C28.493 12.5219 28.5641 12.5577 28.6401 12.5787C28.7161 12.5997 28.7955 12.6055 28.8737 12.5958C28.952 12.5861 29.0275 12.5611 29.0961 12.5222C29.1647 12.4834 29.2249 12.4313 29.2734 12.3692C29.3219 12.307 29.3577 12.2359 29.3787 12.1599C29.3996 12.0839 29.4055 12.0045 29.3958 11.9263C29.3861 11.848 29.3611 11.7724 29.3222 11.7039C29.2833 11.6353 29.2313 11.575 29.1691 11.5266L24.6 7.96171V3.6H21V5.15156L15.3691 0.758199C15.2575 0.671631 15.1188 0.627228 14.9777 0.632808ZM15 1.99335L26.4 10.8891V27H19.2V15.6H10.8V27H3.59995V10.8891L15 1.99335ZM22.2 4.8H23.4V7.02539L22.2 6.08789V4.8ZM12 16.8H18V27H12V16.8Z" fill="#9497A3"/>
</svg>
