<svg width="21" height="16" viewBox="0 0 21 16" fill="none" xmlns="http://www.w3.org/2000/svg">
<path fill-rule="evenodd" clip-rule="evenodd" d="M9.4787 0.047274C10.1373 0.294131 11.2424 1.22948 12.7706 2.83344C16.4498 6.69525 20.4993 12.4017 20.9542 14.3659C21.0372 14.7245 21.0126 14.8572 20.8372 14.9957C19.4786 16.0682 17.0818 15.5876 14.5625 13.7375C11.8867 11.7726 9.50817 8.52913 8.52362 5.50278C8.06565 4.09504 7.92889 2.75642 8.13964 1.74468C8.2627 1.15392 8.49313 0.667268 8.82661 0.293841C9.095 -0.00671847 9.2143 -0.0518168 9.4787 0.047274ZM9.10201 0.424544C9.09465 0.444387 9.10089 0.5341 9.11585 0.623934C9.20401 1.15277 9.63639 2.08743 10.3151 3.2162C12.5019 6.85322 16.6278 11.874 19.1675 13.9886C19.6615 14.3999 20.2011 14.7483 20.4282 14.8026C20.4668 14.8118 20.5167 14.825 20.5391 14.8319C20.5748 14.8429 20.58 14.8263 20.58 14.7006C20.58 13.8428 19.0011 11.1494 16.7309 8.13449C13.8411 4.29687 10.571 0.899552 9.33036 0.446199C9.14718 0.379277 9.11975 0.376666 9.10201 0.424544ZM10.5576 9.91713L10.7008 10.1244L9.33101 10.1247C7.94105 10.1249 7.03985 10.1489 5.96505 10.2142C3.82078 10.3444 2.1396 10.5814 1.08562 10.9021C0.811153 10.9856 0.398012 11.1829 0.326828 11.2644L0.280159 11.3178L0.358744 11.3858C0.884579 11.8406 3.02039 12.2337 5.93003 12.4113C7.8638 12.5293 10.3522 12.5358 12.3687 12.4281L12.6673 12.4122L12.9057 12.6378C13.6953 13.3852 14.5772 14.0729 15.3573 14.5496C15.496 14.6343 15.6009 14.7124 15.5906 14.7231C15.5529 14.7621 14.8991 15.0359 14.5319 15.1665C13.5064 15.5312 12.3001 15.7945 11.1013 15.9152C9.7968 16.0466 8.27612 16.0243 7.01564 15.8553C4.55832 15.526 2.46213 14.6887 1.20622 13.535C0.443142 12.834 0.0125141 12.0183 0.00298882 11.2558L0 11.0176L0.113651 10.9109C0.704645 10.3559 3.26733 9.92702 6.95728 9.76562C7.26545 9.75213 8.16938 9.73408 8.96601 9.7255L10.4144 9.70989L10.5576 9.91713Z" fill="#DE2747"/>
</svg>
