<svg width="14" height="20" viewBox="0 0 14 20" fill="none" xmlns="http://www.w3.org/2000/svg">
<g clip-path="url(#clip0_167_738)">
<path d="M4.60286 -0.310266C4.31623 -0.286809 4.07713 -0.0836845 4.08333 0.131098V1.00028C4.50348 1.00028 4.81377 1.00028 5.25 1.00028V0.131098C5.25712 -0.115424 4.93186 -0.337266 4.60286 -0.310266ZM2.91667 1.74743V3.52653C3.1046 3.5021 3.29659 3.48579 3.5 3.48579H5.82422C6.02826 3.48579 6.2278 3.50167 6.41667 3.52653V1.74743C5.54167 1.74743 3.67144 1.75351 2.91667 1.74743ZM3.5 3.92038C2.3307 3.92038 1.75 4.3496 1.75 5.22412V5.65873H7.57422H7.58332V5.20374C7.58332 4.35502 6.99999 3.92038 5.8242 3.92038C5.04948 3.92038 4.27467 3.92038 3.5 3.92038ZM7.94792 4.21957C8.09985 4.47074 8.16667 4.76243 8.16667 5.06834C9.26187 5.11197 10.5116 5.08879 11.6576 5.08879C12.1026 5.08879 12.4716 5.1688 12.6628 5.3808C12.8539 5.59256 13 5.99898 13 6.60985C13 7.20616 12.8546 7.61404 12.6628 7.83213C12.4709 8.0502 12.1112 8.13091 11.694 8.13091H9.91667V9.00008H11.694C12.4161 9.00008 13.0867 8.74465 13.4714 8.30745C13.856 7.87023 14 7.30372 14 6.60985C14 5.90339 13.8562 5.32838 13.4622 4.8919C13.0683 4.45518 12.3864 4.21964 11.6576 4.21964C10.421 4.21955 9.18427 4.21979 7.94792 4.21957ZM1.71354 6.09332C0.585947 6.09332 0 6.52479 0 7.36311V8.26625H4.65755C5.34111 8.26625 5.95884 8.39432 6.38932 8.7144C6.81981 9.03451 7 9.49674 7 10.0046V16.082C7 16.5918 6.82253 17.0444 6.39844 17.3654C5.97434 17.6863 5.36322 17.8271 4.69401 17.8271H0V18.7031C0 19.5655 0.583333 20.0001 1.77734 20.0001H7.58333C8.75 20.0001 9.33333 19.5655 9.33333 18.676V7.3699C9.33333 6.52199 8.74835 6.09332 7.57422 6.09332H1.71354ZM0 9.13543V16.958H4.86068C5.33077 16.958 5.58328 16.8764 5.73568 16.761C5.88808 16.6457 6 16.4481 6 16.082V10.0046C6 9.64128 5.89033 9.44733 5.73568 9.33233C5.58103 9.2174 5.31453 9.13543 4.82422 9.13543H0Z" fill="#DE2747"/>
</g>
<defs>
<clipPath id="clip0_167_738">
<rect width="14" height="20" fill="white"/>
</clipPath>
</defs>
</svg>
