<svg width="18" height="18" viewBox="0 0 18 18" fill="none" xmlns="http://www.w3.org/2000/svg">
<g clip-path="url(#clip0_167_742)">
<path fill-rule="evenodd" clip-rule="evenodd" d="M16.5033 0.0527378C16.1084 0.186709 15.6985 0.642624 15.2874 1.40527C15.0913 1.76893 14.8097 2.39251 14.6263 2.86883C14.2069 3.95848 14.1004 4.2134 13.7462 4.97611C13.0039 6.57414 12.1523 8.00891 10.9569 9.67515C9.42731 11.8073 7.70155 13.7487 6.02576 15.2227C5.29596 15.8645 4.72489 16.3095 3.6898 17.0427C2.82403 17.656 2.68629 17.7793 2.71798 17.9123C2.7359 17.9876 2.82014 18.0092 3.04661 17.9967C4.04778 17.9414 6.14031 16.6551 8.5882 14.5902C9.51003 13.8126 10.5203 12.8997 11.1388 12.2855C13.0384 10.399 14.9921 7.6984 16.4601 4.92977C17.1644 3.60143 17.5659 2.58926 17.7278 1.73383C17.7931 1.38858 17.8028 0.924763 17.749 0.718291C17.6725 0.424742 17.5448 0.237983 17.3434 0.125239C17.1022 -0.00978725 16.7717 -0.0383019 16.5033 0.0527378ZM14.0225 0.550887C13.7278 0.675758 12.8394 1.13715 12.4254 1.38034C10.6243 2.43843 8.87456 3.71245 7.34223 5.08156C6.3841 5.93764 5.54023 6.81556 4.70323 7.82703C2.69855 10.2496 1.28651 12.305 0.531003 13.9003C0.160242 14.6832 -0.0390202 15.358 0.00637748 15.677C0.0360126 15.8851 0.137392 15.9021 0.298722 15.726C0.428319 15.5845 0.407492 15.6152 0.956838 14.7566C1.65052 13.6723 1.92062 13.2841 2.50151 12.5363C3.41406 11.3616 4.55732 10.1297 5.81044 8.97084C7.71919 7.2057 9.75116 5.68676 11.5475 4.68228L11.8414 4.51796L12.0083 4.16042C12.5644 2.96921 13.4777 1.45722 14.1506 0.613751C14.2271 0.517932 14.2869 0.440254 14.2836 0.44115C14.2803 0.442026 14.1628 0.491429 14.0225 0.550887Z" fill="#DE2747"/>
</g>
<defs>
<clipPath id="clip0_167_742">
<rect width="18" height="18" fill="white"/>
</clipPath>
</defs>
</svg>
