<svg width="37" height="25" viewBox="0 0 37 25" fill="none" xmlns="http://www.w3.org/2000/svg">
<path d="M13.0059 3.07764H23.9984V21.9204H13.0059V3.07764Z" fill="#FF5F00"/>
<path d="M14.139 12.5008C14.1376 10.6864 14.5295 8.89547 15.285 7.2635C16.0406 5.63154 17.1399 4.20132 18.4998 3.08108C16.8155 1.69183 14.7927 0.827936 12.6626 0.588134C10.5326 0.348333 8.3812 0.7423 6.4544 1.72501C4.5276 2.70772 2.90311 4.23952 1.76658 6.14534C0.63005 8.05117 0.0273438 10.2541 0.0273438 12.5024C0.0273438 14.7508 0.63005 16.9537 1.76658 18.8595C2.90311 20.7654 4.5276 22.2972 6.4544 23.2799C8.3812 24.2626 10.5326 24.6565 12.6626 24.4167C14.7927 24.1769 16.8155 23.313 18.4998 21.9238C17.1395 20.8032 16.0399 19.3725 15.2843 17.7399C14.5288 16.1073 14.1371 14.3157 14.139 12.5007V12.5008Z" fill="#EB001B"/>
<path d="M35.8819 19.9269V19.5409H36.0405V19.4609H35.6631V19.5409H35.8121V19.927L35.8819 19.9269ZM36.6145 19.9269V19.461H36.5003L36.3672 19.7938L36.2339 19.4609H36.1198V19.9269H36.2022V19.5741L36.3259 19.877H36.4115L36.5353 19.5741V19.9269H36.6145Z" fill="#F79E1B"/>
<path d="M36.9742 12.5007C36.9742 14.7491 36.3713 16.9522 35.2346 18.8581C34.0978 20.764 32.4731 22.2958 30.546 23.2784C28.619 24.2609 26.4674 24.6546 24.3372 24.4145C22.2071 24.1743 20.1842 23.31 18.5 21.9203C19.8594 20.7991 20.9584 19.3685 21.7141 17.7364C22.4699 16.1044 22.8625 14.3135 22.8625 12.499C22.8625 10.6844 22.4699 8.89355 21.7141 7.2615C20.9584 5.62946 19.8594 4.19885 18.5 3.07762C20.1842 1.68792 22.2071 0.823592 24.3372 0.583441C26.4674 0.34329 28.619 0.737003 30.5461 1.71958C32.4731 2.70215 34.0979 4.23393 35.2346 6.13983C36.3713 8.04573 36.9742 10.2488 36.9742 12.4973V12.5007Z" fill="#F79E1B"/>
</svg>
