<svg width="50" height="17" viewBox="0 0 50 17" fill="none" xmlns="http://www.w3.org/2000/svg">
<g clip-path="url(#clip0_574_3110)">
<path d="M18.334 16.0221L20.8737 1.06104H24.8419L22.3816 16.0221H18.334Z" fill="#3C58BF"/>
<path d="M18.334 16.0221L21.588 1.06104H24.8419L22.3816 16.0221H18.334Z" fill="#293688"/>
<path d="M36.7464 1.22719C35.9527 0.894723 34.6829 0.562256 33.0956 0.562256C29.1273 0.562256 26.2702 2.64018 26.2702 5.63238C26.2702 7.87654 28.2543 9.04018 29.8416 9.78823C31.4289 10.5363 31.9051 11.035 31.9051 11.6999C31.9051 12.6973 30.6353 13.196 29.5241 13.196C27.9368 13.196 27.0638 12.9467 25.7146 12.3649L25.1591 12.1155L24.6035 15.5233C25.5559 15.9389 27.3019 16.3545 29.1273 16.3545C33.3337 16.3545 36.1114 14.2765 36.1114 11.1181C36.1114 9.37265 35.0797 8.04277 32.6988 6.96225C31.2702 6.2142 30.3972 5.79862 30.3972 5.05057C30.3972 4.38563 31.1115 3.7207 32.6988 3.7207C34.048 3.7207 35.0003 3.97005 35.7146 4.30252L36.1114 4.46875L36.7464 1.22719Z" fill="#3C58BF"/>
<path d="M36.7464 1.22719C35.9527 0.894723 34.6829 0.562256 33.0956 0.562256C29.1273 0.562256 26.9845 2.64018 26.9845 5.63238C26.9845 7.87654 28.2543 9.04018 29.8416 9.78823C31.4289 10.5363 31.9051 11.035 31.9051 11.6999C31.9051 12.6973 30.6353 13.196 29.5241 13.196C27.9368 13.196 27.0638 12.9467 25.7146 12.3649L25.1591 12.1155L24.6035 15.5233C25.5559 15.9389 27.3019 16.3545 29.1273 16.3545C33.3337 16.3545 36.1114 14.2765 36.1114 11.1181C36.1114 9.37265 35.0797 8.04277 32.6988 6.96225C31.2702 6.2142 30.3972 5.79862 30.3972 5.05057C30.3972 4.38563 31.1115 3.7207 32.6988 3.7207C34.048 3.7207 35.0003 3.97005 35.7146 4.30252L36.1114 4.46875L36.7464 1.22719Z" fill="#293688"/>
<path d="M43.5715 1.06104C42.6192 1.06104 41.9049 1.14415 41.508 2.14156L35.5557 16.0221H39.8414L40.635 13.5286H45.7144L46.1906 16.0221H50.0001L46.6668 1.06104H43.5715ZM41.7461 11.0351C41.9842 10.287 43.3334 6.62987 43.3334 6.62987C43.3334 6.62987 43.6509 5.71558 43.889 5.13376L44.1271 6.54675C44.1271 6.54675 44.9207 10.287 45.0795 11.1182H41.7461V11.0351Z" fill="#3C58BF"/>
<path d="M44.5239 1.06104C43.5715 1.06104 42.8573 1.14415 42.4604 2.14156L35.5557 16.0221H39.8414L40.635 13.5286H45.7144L46.1906 16.0221H50.0001L46.6668 1.06104H44.5239ZM41.7461 11.0351C42.0636 10.2039 43.3334 6.62987 43.3334 6.62987C43.3334 6.62987 43.6509 5.71558 43.889 5.13376L44.1271 6.54675C44.1271 6.54675 44.9207 10.287 45.0795 11.1182H41.7461V11.0351Z" fill="#293688"/>
<path d="M11.0315 11.5339L10.6347 9.37286C9.92037 6.87935 7.61878 4.13649 5.0791 2.80662L8.65053 16.1053H12.9362L19.3648 1.14429H15.0791L11.0315 11.5339Z" fill="#3C58BF"/>
<path d="M11.0315 11.5339L10.6347 9.37286C9.92037 6.87935 7.61878 4.13649 5.0791 2.80662L8.65053 16.1053H12.9362L19.3648 1.14429H15.8728L11.0315 11.5339Z" fill="#293688"/>
<path d="M0 1.06104L0.714286 1.22727C5.79365 2.47402 9.28571 5.63246 10.6349 9.37272L9.20635 2.30779C8.96825 1.31039 8.25397 1.06104 7.38095 1.06104H0Z" fill="#FFBC00"/>
<path d="M0 1.06104C5.07937 2.30779 9.28571 5.54935 10.6349 9.28961L9.28571 3.38831C9.04762 2.39091 8.25397 1.80909 7.38095 1.80909L0 1.06104Z" fill="#F7981D"/>
<path d="M0 1.06104C5.07937 2.30779 9.28571 5.54935 10.6349 9.28961L9.68254 6.04805C9.44444 5.05065 9.12698 4.05324 8.01587 3.63766L0 1.06104Z" fill="#ED7C00"/>
<path d="M15.0004 11.0351L12.302 8.2091L11.0322 11.3675L10.7147 9.28962C10.0004 6.79612 7.69886 4.05326 5.15918 2.72339L8.73061 16.0221H13.0163L15.0004 11.0351Z" fill="#051244"/>
<path d="M22.3806 16.0224L18.9679 12.3652L18.333 16.0224H22.3806Z" fill="#051244"/>
<path d="M31.5083 10.8689C31.8257 11.2014 31.9845 11.4507 31.9051 11.7832C31.9051 12.7806 30.6353 13.2793 29.5242 13.2793C27.9369 13.2793 27.0638 13.0299 25.7146 12.4481L25.1591 12.1988L24.6035 15.6066C25.5559 16.0221 27.3019 16.4377 29.1273 16.4377C31.667 16.4377 33.7305 15.6897 34.921 14.3598L31.5083 10.8689Z" fill="#051244"/>
<path d="M36.1123 16.0221H39.8425L40.6361 13.5286H45.7155L46.1917 16.0221H50.0012L48.652 9.95457L43.8901 5.13379L44.1282 6.46366C44.1282 6.46366 44.9218 10.2039 45.0806 11.0351H41.7472C42.0647 10.2039 43.3345 6.62989 43.3345 6.62989C43.3345 6.62989 43.652 5.71561 43.8901 5.13379" fill="#051244"/>
</g>
<defs>
<clipPath id="clip0_574_3110">
<rect width="50" height="16" fill="white" transform="translate(0 0.5)"/>
</clipPath>
</defs>
</svg>
