<svg width="10" height="10" viewBox="0 0 10 10" fill="none" xmlns="http://www.w3.org/2000/svg">
<path d="M5.9779 4.99934L8.96112 2.02262C9.09176 1.89196 9.16516 1.71474 9.16516 1.52997C9.16516 1.34519 9.09176 1.16797 8.96112 1.03731C8.83048 0.906655 8.6533 0.833252 8.46854 0.833252C8.28379 0.833252 8.10661 0.906655 7.97597 1.03731L4.99967 4.02097L2.02338 1.03731C1.89274 0.906655 1.71556 0.833252 1.5308 0.833252C1.34605 0.833252 1.16887 0.906655 1.03822 1.03731C0.907585 1.16797 0.834192 1.34519 0.834192 1.52997C0.834192 1.71474 0.907585 1.89196 1.03822 2.02262L4.02145 4.99934L1.03822 7.97606C0.973199 8.04056 0.921586 8.1173 0.886364 8.20186C0.851142 8.28641 0.833008 8.37711 0.833008 8.46871C0.833008 8.56031 0.851142 8.651 0.886364 8.73555C0.921586 8.82011 0.973199 8.89685 1.03822 8.96136C1.10272 9.02639 1.17945 9.07801 1.264 9.11324C1.34854 9.14847 1.43922 9.1666 1.5308 9.1666C1.62239 9.1666 1.71307 9.14847 1.79761 9.11324C1.88216 9.07801 1.95889 9.02639 2.02338 8.96136L4.99967 5.9777L7.97597 8.96136C8.04046 9.02639 8.11719 9.07801 8.20174 9.11324C8.28628 9.14847 8.37696 9.1666 8.46854 9.1666C8.56013 9.1666 8.65081 9.14847 8.73535 9.11324C8.8199 9.07801 8.89663 9.02639 8.96112 8.96136C9.02615 8.89685 9.07776 8.82011 9.11299 8.73555C9.14821 8.651 9.16634 8.56031 9.16634 8.46871C9.16634 8.37711 9.14821 8.28641 9.11299 8.20186C9.07776 8.1173 9.02615 8.04056 8.96112 7.97606L5.9779 4.99934Z" fill="#9497A3"/>
</svg>
