<svg width="18" height="23" viewBox="0 0 18 23" fill="none" xmlns="http://www.w3.org/2000/svg">
<path d="M18 9.10755C18 4.08475 13.9624 0 9 0C4.03763 0 0 4.08475 0 9.10755C0 12.5294 1.87509 15.516 4.64038 17.0719V22.3235C4.64038 22.5704 4.77408 22.7982 4.98799 22.9166C5.20079 23.0338 5.46262 23.0271 5.66873 22.8929L9 20.7395L12.3313 22.894C12.4416 22.9639 12.5664 23 12.6911 23C12.8014 23 12.9117 22.9729 13.012 22.9177C13.2259 22.7993 13.3596 22.5704 13.3596 22.3247V17.073C16.1249 15.516 18 12.5294 18 9.10755ZM12.0227 21.0878L9.35987 19.3662C9.14038 19.2253 8.85962 19.2253 8.64013 19.3662L5.97735 21.0878V17.6841C6.92213 18.0257 7.94046 18.2128 9 18.2128C10.0595 18.2128 11.0779 18.0257 12.0227 17.6841V21.0878ZM12.5051 16.0008C12.4271 16.0233 12.3558 16.0605 12.2923 16.1079C11.294 16.5904 10.1776 16.861 8.99889 16.861C7.82013 16.861 6.70376 16.5904 5.7055 16.1079C5.64199 16.0605 5.57069 16.0233 5.4927 16.0008C3.026 14.711 1.33585 12.1043 1.33585 9.10642C1.33808 4.83226 4.77519 1.35294 9 1.35294C13.2248 1.35294 16.6619 4.83225 16.6619 9.10755C16.6619 12.1054 14.9718 14.711 12.5051 16.0008ZM12.7446 6.37912C13.0053 6.64181 13.0053 7.07137 12.7446 7.3352L8.29809 11.8349C8.16774 11.9668 7.99616 12.0333 7.8257 12.0333C7.65524 12.0333 7.48366 11.9668 7.35331 11.8349L5.35677 9.81446C5.09606 9.55177 5.09606 9.12221 5.35677 8.85838C5.61748 8.59456 6.04085 8.59456 6.30268 8.85838L7.8257 10.3985L11.7998 6.37799C12.0605 6.11417 12.4828 6.11417 12.7446 6.37912Z" fill="#212121"/>
</svg>
