<svg width="26" height="26" viewBox="0 0 26 26" fill="none" xmlns="http://www.w3.org/2000/svg">
<path d="M9.75031 1.17358C5.02388 1.17358 1.17383 5.02364 1.17383 9.75006C1.17383 14.4765 5.02388 18.3265 9.75031 18.3265C11.7964 18.3265 13.6766 17.6034 15.153 16.4016L21.1785 23.9498C21.1785 23.9498 22.4982 24.1459 23.3176 23.292C24.1427 22.4316 23.9492 21.1798 23.9492 21.1798L16.4019 15.1527C17.6037 13.6763 18.3268 11.7962 18.3268 9.75006C18.3268 5.02364 14.4767 1.17358 9.75031 1.17358ZM9.75031 2.88904C13.5498 2.88904 16.6113 5.95059 16.6113 9.75006C16.6113 13.5495 13.5498 16.6111 9.75031 16.6111C5.95083 16.6111 2.88928 13.5495 2.88928 9.75006C2.88928 5.95059 5.95083 2.88904 9.75031 2.88904Z" fill="#3F4249"/>
</svg>
