<svg width="20" height="20" viewBox="0 0 20 20" fill="none" xmlns="http://www.w3.org/2000/svg">
<path fill-rule="evenodd" clip-rule="evenodd" d="M14.7801 15.369C14.7835 15.5101 14.7458 15.649 14.6715 15.769C14.5973 15.889 14.4897 15.9848 14.362 16.0447C14.2342 16.1046 14.0918 16.126 13.9521 16.1063C13.8124 16.0867 13.6814 16.0268 13.5751 15.934L10.2431 13.479L8.63611 15.027C8.5574 15.1294 8.45604 15.2123 8.33998 15.269C8.22392 15.3257 8.0963 15.3548 7.96711 15.354L8.20011 11.962L14.3741 6.38301C14.6421 6.14501 14.3151 6.01101 13.9571 6.24901L6.33011 11.054L3.04211 10.028C2.32811 9.80001 2.31311 9.31401 3.19111 8.97201L16.0441 4.01801C16.6441 3.79501 17.1601 4.15201 16.9661 5.05901L14.7801 15.369Z" fill="white"/>
</svg>
