<svg width="12" height="12" viewBox="0 0 12 12" fill="none" xmlns="http://www.w3.org/2000/svg">
<path d="M11.7396 5.4382C11.9758 5.19793 12.0592 4.84529 11.9573 4.51749C11.8552 4.18969 11.5892 3.95569 11.2624 3.90603L8.35684 3.46537C8.23309 3.44656 8.12617 3.36555 8.0709 3.24842L6.77192 0.500606C6.62606 0.191866 6.33003 0 6.00012 0C5.67045 0 5.37442 0.191866 5.22856 0.500606L3.92934 3.24867C3.87407 3.3658 3.76691 3.44681 3.64316 3.46562L0.737627 3.90628C0.411079 3.95569 0.144842 4.18994 0.042721 4.51774C-0.0591601 4.84555 0.024219 5.19818 0.26042 5.43845L2.36268 7.57731C2.4523 7.6686 2.49339 7.80002 2.47225 7.92844L1.9763 10.9486C1.93233 11.2145 1.99913 11.4731 2.16396 11.677C2.42011 11.9947 2.86728 12.0915 3.22482 11.8954L5.82327 10.4693C5.93188 10.4099 6.0686 10.4104 6.17697 10.4693L8.77566 11.8954C8.90205 11.9649 9.03685 12 9.17597 12C9.42996 12 9.67072 11.8821 9.83628 11.677C10.0014 11.4731 10.0679 11.214 10.0239 10.9486L9.52775 7.92844C9.50661 7.79977 9.5477 7.6686 9.63732 7.57731L11.7396 5.4382Z" fill="#FEC057"/>
</svg>
