<svg width="16" height="16" viewBox="0 0 16 16" fill="none" xmlns="http://www.w3.org/2000/svg">
<path d="M11.3684 16C5.09984 16 0 10.9001 0 4.63157C0.001079 3.5561 0.393657 2.5178 1.1044 1.71065C1.81513 0.903501 2.79541 0.382709 3.86211 0.245566C4.13354 0.212819 4.40829 0.268819 4.64525 0.40519C4.88222 0.541561 5.06868 0.750976 5.17674 1.00212L6.76295 4.70301C6.84523 4.89445 6.87877 5.1033 6.86059 5.31088C6.8424 5.51846 6.77305 5.7183 6.65874 5.89251L5.34545 7.8992L5.34529 7.89936C5.93831 9.10508 6.9163 10.0788 8.12463 10.6665L10.1017 9.34851C10.2764 9.23162 10.4776 9.16032 10.6869 9.14109C10.8962 9.12187 11.107 9.15534 11.3001 9.23846L14.9978 10.8232C15.249 10.9312 15.4584 11.1176 15.5948 11.3546C15.7312 11.5916 15.7872 11.8664 15.7544 12.1378C15.6173 13.2045 15.0965 14.1848 14.2894 14.8956C13.4822 15.6063 12.4439 15.9989 11.3684 16ZM4.01574 1.4998C3.25488 1.59856 2.55596 1.97083 2.04945 2.54712C1.54293 3.12341 1.26345 3.86432 1.26316 4.63157C1.26619 7.31072 2.33182 9.87927 4.22627 11.7737C6.12072 13.6682 8.68927 14.7338 11.3684 14.7368C12.1364 14.7362 12.878 14.456 13.4545 13.9486C14.0311 13.4412 14.4031 12.7412 14.5013 11.9795L10.8025 10.3995L8.82608 11.7175C8.64441 11.8388 8.43435 11.9109 8.21646 11.9267C7.99856 11.9425 7.7803 11.9014 7.58305 11.8075C6.11401 11.0956 4.92551 9.91255 4.20695 8.44678C4.11258 8.25069 4.07049 8.03355 4.08477 7.81641C4.09904 7.59927 4.16919 7.3895 4.28842 7.20746L5.60179 5.20062L4.01574 1.4998Z" fill="white"/>
</svg>
