<svg width="26" height="26" viewBox="0 0 26 26" fill="none" xmlns="http://www.w3.org/2000/svg">
<path d="M19.6367 15.459C17.8295 15.459 16.3594 16.9292 16.3594 18.7363C16.3594 20.5435 17.8295 22.0136 19.6367 22.0136C21.4442 22.0136 22.914 20.5435 22.914 18.7363C22.914 16.9292 21.4438 15.459 19.6367 15.459ZM19.6367 20.375C18.733 20.375 17.998 19.64 17.998 18.7363C17.998 17.8326 18.733 17.0976 19.6367 17.0976C20.5404 17.0976 21.2754 17.8326 21.2754 18.7363C21.2754 19.6401 20.5404 20.375 19.6367 20.375Z" fill="#1B1B1B"/>
<path d="M8.43906 15.459C6.63191 15.459 5.16174 16.9292 5.16174 18.7363C5.16174 20.5435 6.63191 22.0136 8.43906 22.0136C10.2462 22.0136 11.7164 20.5435 11.7164 18.7363C11.7164 16.9292 10.2462 15.459 8.43906 15.459ZM8.43906 20.375C7.53536 20.375 6.8004 19.64 6.8004 18.7363C6.8004 17.8326 7.53536 17.0976 8.43906 17.0976C9.34251 17.0976 10.0777 17.8326 10.0777 18.7363C10.0777 19.6401 9.34277 20.375 8.43906 20.375Z" fill="#1B1B1B"/>
<path d="M21.8436 6.07814C21.7043 5.80149 21.4211 5.62695 21.1114 5.62695H16.7963V7.26561H20.6061L22.8372 11.7031L24.3016 10.9668L21.8436 6.07814Z" fill="#1B1B1B"/>
<path d="M17.1785 17.9434H10.9789V19.582H17.1785V17.9434Z" fill="#1B1B1B"/>
<path d="M5.98101 17.9434H3.14072C2.68815 17.9434 2.32141 18.3102 2.32141 18.7627C2.32141 19.2152 2.6882 19.582 3.14072 19.582H5.98106C6.43362 19.582 6.80037 19.2152 6.80037 18.7627C6.80037 18.3101 6.43357 17.9434 5.98101 17.9434Z" fill="#1B1B1B"/>
<path d="M25.8279 12.9353L24.2163 10.8597C24.0615 10.6598 23.8225 10.5429 23.5693 10.5429H17.6155V4.80759C17.6155 4.35502 17.2487 3.98828 16.7962 3.98828H3.14072C2.68815 3.98828 2.32141 4.35507 2.32141 4.80759C2.32141 5.2601 2.6882 5.62689 3.14072 5.62689H15.9768V11.3622C15.9768 11.8147 16.3436 12.1815 16.7962 12.1815H23.1681L24.3613 13.7185V17.9441H22.0945C21.6419 17.9441 21.2752 18.3109 21.2752 18.7634C21.2752 19.2159 21.642 19.5827 22.0945 19.5827H25.1806C25.6332 19.5827 25.9999 19.2159 26 18.7634V13.4379C26 13.256 25.9393 13.079 25.8279 12.9353Z" fill="#1B1B1B"/>
<path d="M5.9265 13.793H2.15756C1.705 13.793 1.33826 14.1598 1.33826 14.6123C1.33826 15.0648 1.70505 15.4316 2.15756 15.4316H5.92645C6.37901 15.4316 6.74575 15.0648 6.74575 14.6123C6.7458 14.1598 6.37901 13.793 5.9265 13.793Z" fill="#1B1B1B"/>
<path d="M7.81092 10.5684H0.819305C0.366793 10.5684 0 10.9352 0 11.3877C0 11.8403 0.366793 12.207 0.819305 12.207H7.81092C8.26348 12.207 8.63022 11.8402 8.63022 11.3877C8.63022 10.9352 8.26348 10.5684 7.81092 10.5684Z" fill="#1B1B1B"/>
<path d="M9.14918 7.3457H2.15756C1.705 7.3457 1.33826 7.7125 1.33826 8.16501C1.33826 8.61757 1.70505 8.98431 2.15756 8.98431H9.14918C9.60174 8.98431 9.96848 8.61752 9.96848 8.16501C9.96853 7.7125 9.60174 7.3457 9.14918 7.3457Z" fill="#1B1B1B"/>
</svg>
