<svg width="46" height="16" viewBox="0 0 46 16" fill="none" xmlns="http://www.w3.org/2000/svg">
<path fill-rule="evenodd" clip-rule="evenodd" d="M41.8249 14.9769C41.8249 14.9769 41.4954 13.0004 41.385 12.505H36.6213C36.4898 12.8927 35.8317 14.9769 35.8317 14.9769H31.9452L37.4564 2.05813C37.5933 1.67416 37.8592 1.34755 38.2104 1.13218C38.5615 0.916817 38.9769 0.825583 39.3879 0.873536H42.264L45.2716 14.9769H41.8249ZM39.9145 5.88945L39.6508 4.68332C39.4755 5.22177 39.1452 6.06177 39.1679 6.04023C39.1679 6.04023 37.9822 9.16162 37.6974 9.97924H40.7707C40.619 9.26683 39.9145 5.88945 39.9145 5.88945ZM31.9232 4.12498C31.0555 3.73962 30.1092 3.55538 29.1575 3.58652C27.6862 3.58652 27.0272 4.18876 27.0053 4.79184C27.0053 5.45952 27.7966 5.88946 29.112 6.53147C31.2423 7.5214 32.23 8.74824 32.2081 10.362C32.1862 13.268 29.6615 15.1617 25.753 15.1617C24.341 15.1663 22.9404 14.9112 21.6238 14.4095L22.1294 11.245L22.635 11.4819C23.713 12.0028 24.9027 12.2611 26.1036 12.235C27.1797 12.235 28.3207 11.8042 28.3435 10.8573C28.3435 10.2336 27.8606 9.78042 26.4112 9.09286C25.0064 8.42517 23.1398 7.30601 23.1617 5.28224C23.1836 2.54854 25.7522 0.632474 29.4188 0.632474C30.5576 0.62612 31.6882 0.82258 32.7558 1.21235L32.2502 4.26994L31.9232 4.12498ZM15.5901 14.9769L17.9168 0.873536H21.6247L19.2988 14.9769H15.591H15.5901ZM6.65753 14.9769L3.54883 3.49292C4.05372 3.74314 4.53194 4.04228 4.97636 4.38592C6.3269 5.47072 7.48207 6.77125 8.39348 8.23299L8.455 8.537L8.85023 10.4746L12.494 0.873536H16.4244L10.5845 14.9769H6.65837H6.65753ZM8.17439 7.10719L8.32775 7.87761L8.17439 7.10719Z" fill="#A6A6A6"/>
<path opacity="0.35" fill-rule="evenodd" clip-rule="evenodd" d="M4.97191 4.38586C4.52769 4.04194 4.04945 3.74278 3.54438 3.49286L3.33287 2.71168C2.28321 2.11999 1.16396 1.65652 0 1.33158V0.89502H5.70001C6.04105 0.895837 6.37154 1.01132 6.63659 1.22229C6.90163 1.43326 7.08528 1.72702 7.15702 2.05477L8.39073 8.22962C7.47851 6.76893 6.32277 5.46953 4.97191 4.38586Z" fill="#A6A6A6"/>
</svg>
