<svg width="38" height="12" viewBox="0 0 38 12" fill="none" xmlns="http://www.w3.org/2000/svg">
<g clip-path="url(#clip0_434_9008)">
<path d="M13.9336 11.6417L15.8638 0.420898H18.8796L17.0098 11.6417H13.9336Z" fill="#3C58BF"/>
<path d="M13.9336 11.6417L16.4066 0.420898H18.8796L17.0098 11.6417H13.9336Z" fill="#293688"/>
<path d="M27.9278 0.545332C27.3246 0.295981 26.3595 0.0466309 25.1532 0.0466309C22.1373 0.0466309 19.9659 1.60507 19.9659 3.84923C19.9659 5.53234 21.4738 6.40507 22.6802 6.96611C23.8865 7.52715 24.2484 7.90117 24.2484 8.39988C24.2484 9.14793 23.2833 9.52196 22.4389 9.52196C21.2326 9.52196 20.5691 9.33494 19.5437 8.89858L19.1214 8.71156L18.6992 11.2674C19.423 11.5791 20.75 11.8908 22.1373 11.8908C25.3341 11.8908 27.4452 10.3323 27.4452 7.96351C27.4452 6.65442 26.6611 5.65702 24.8516 4.84663C23.7659 4.28559 23.1024 3.9739 23.1024 3.41286C23.1024 2.91416 23.6452 2.41546 24.8516 2.41546C25.877 2.41546 26.6008 2.60247 27.1437 2.85183L27.4452 2.9765L27.9278 0.545332Z" fill="#3C58BF"/>
<path d="M27.9278 0.545332C27.3246 0.295981 26.3595 0.0466309 25.1532 0.0466309C22.1373 0.0466309 20.5087 1.60507 20.5087 3.84923C20.5087 5.53234 21.4738 6.40507 22.6802 6.96611C23.8865 7.52715 24.2484 7.90117 24.2484 8.39988C24.2484 9.14793 23.2833 9.52196 22.4389 9.52196C21.2326 9.52196 20.5691 9.33494 19.5437 8.89858L19.1214 8.71156L18.6992 11.2674C19.423 11.5791 20.75 11.8908 22.1373 11.8908C25.3341 11.8908 27.4452 10.3323 27.4452 7.96351C27.4452 6.65442 26.6611 5.65702 24.8516 4.84663C23.7659 4.28559 23.1024 3.9739 23.1024 3.41286C23.1024 2.91416 23.6452 2.41546 24.8516 2.41546C25.877 2.41546 26.6008 2.60247 27.1437 2.85183L27.4452 2.9765L27.9278 0.545332Z" fill="#293688"/>
<path d="M33.1136 0.420898C32.3897 0.420898 31.8469 0.483237 31.5453 1.23129L27.0215 11.6417H30.2786L30.8818 9.77155H34.7421L35.104 11.6417H37.9993L35.4659 0.420898H33.1136ZM31.7262 7.90142C31.9072 7.34038 32.9326 4.59752 32.9326 4.59752C32.9326 4.59752 33.1739 3.91181 33.3548 3.47544L33.5358 4.53518C33.5358 4.53518 34.1389 7.34038 34.2596 7.96376H31.7262V7.90142Z" fill="#3C58BF"/>
<path d="M33.8374 0.420898C33.1135 0.420898 32.5707 0.483237 32.2691 1.23129L27.0215 11.6417H30.2786L30.8818 9.77155H34.7421L35.104 11.6417H37.9993L35.4659 0.420898H33.8374ZM31.7262 7.90142C31.9675 7.27804 32.9326 4.59752 32.9326 4.59752C32.9326 4.59752 33.1739 3.91181 33.3548 3.47544L33.5358 4.53518C33.5358 4.53518 34.1389 7.34038 34.2596 7.96376H31.7262V7.90142Z" fill="#293688"/>
<path d="M8.38514 8.27536L8.08355 6.65458C7.54069 4.78445 5.79149 2.72731 3.86133 1.72991L6.57561 11.7039H9.83276L14.7185 0.483154H11.4613L8.38514 8.27536Z" fill="#3C58BF"/>
<path d="M8.38514 8.27536L8.08355 6.65458C7.54069 4.78445 5.79149 2.72731 3.86133 1.72991L6.57561 11.7039H9.83276L14.7185 0.483154H12.0645L8.38514 8.27536Z" fill="#293688"/>
<path d="M0 0.420898L0.542857 0.545574C4.40317 1.48064 7.05714 3.84947 8.08254 6.65467L6.99683 1.35596C6.81587 0.607911 6.27302 0.420898 5.60952 0.420898H0Z" fill="#FFBC00"/>
<path d="M0 0.420898C3.86032 1.35596 7.05714 3.78713 8.08254 6.59233L7.05714 2.16635C6.87619 1.4183 6.27302 0.981938 5.60952 0.981938L0 0.420898Z" fill="#F7981D"/>
<path d="M0 0.420898C3.86032 1.35596 7.05714 3.78713 8.08254 6.59233L7.35873 4.16116C7.17778 3.41311 6.93651 2.66506 6.09206 2.35337L0 0.420898Z" fill="#ED7C00"/>
<path d="M11.4012 7.90125L9.35044 5.78177L8.38537 8.1506L8.1441 6.59216C7.60124 4.72203 5.85203 2.66488 3.92188 1.66748L6.63616 11.6415H9.8933L11.4012 7.90125Z" fill="#051244"/>
<path d="M17.0098 11.6418L14.4161 8.89893L13.9336 11.6418H17.0098Z" fill="#051244"/>
<path d="M23.9468 7.77661C24.1881 8.02596 24.3087 8.21298 24.2484 8.46233C24.2484 9.21038 23.2833 9.5844 22.4389 9.5844C21.2326 9.5844 20.5691 9.39739 19.5437 8.96103L19.1214 8.77401L18.6992 11.3299C19.423 11.6415 20.75 11.9532 22.1373 11.9532C24.0675 11.9532 25.6357 11.3922 26.5405 10.3948L23.9468 7.77661Z" fill="#051244"/>
<path d="M27.4453 11.6416H30.2802L30.8834 9.77145H34.7437L35.1056 11.6416H38.0009L36.9755 7.09093L33.3564 3.47534L33.5374 4.47274C33.5374 4.47274 34.1406 7.27794 34.2612 7.90132H31.7279C31.9691 7.27794 32.9342 4.59742 32.9342 4.59742C32.9342 4.59742 33.1755 3.91171 33.3564 3.47534" fill="#051244"/>
</g>
<defs>
<clipPath id="clip0_434_9008">
<rect width="38" height="12" fill="white"/>
</clipPath>
</defs>
</svg>
