<svg width="23" height="13" viewBox="0 0 23 13" fill="none" xmlns="http://www.w3.org/2000/svg">
<path d="M19.7322 5.47311C20.0401 5.06925 20.2845 4.7452 20.465 4.50071C21.7651 2.74682 22.3286 1.62643 22.1559 1.13796L22.0882 1.02356C22.0432 0.954841 21.9264 0.891739 21.7387 0.834622C21.5508 0.777545 21.3103 0.768425 21.0174 0.806104L17.7709 0.82934C17.6957 0.821746 17.6205 0.82352 17.5453 0.834622C17.4702 0.846219 17.4214 0.857857 17.3987 0.868958C17.3761 0.880597 17.3574 0.889924 17.3425 0.897517L17.2974 0.931854C17.2599 0.954594 17.2186 0.994749 17.1735 1.05211C17.1284 1.10944 17.0906 1.17588 17.0607 1.2524C16.7075 2.17503 16.3055 3.03303 15.8546 3.82611C15.5764 4.29894 15.3208 4.70913 15.0881 5.05563C14.8551 5.40291 14.6597 5.65829 14.5019 5.82193C14.3441 5.98585 14.2012 6.11767 14.0736 6.21647C13.9456 6.31597 13.848 6.35765 13.7806 6.34251C13.7129 6.32736 13.6489 6.31222 13.5889 6.29653C13.4837 6.22811 13.399 6.13488 13.3353 6.01643C13.2714 5.89853 13.2283 5.74971 13.2056 5.57039C13.1832 5.39132 13.1698 5.23676 13.1663 5.10693C13.1623 4.97738 13.1643 4.79451 13.172 4.55783C13.1795 4.32139 13.1832 4.16156 13.1832 4.07745C13.1832 3.78798 13.1889 3.4733 13.2002 3.13385C13.2114 2.79466 13.2208 2.52566 13.2283 2.32736C13.2358 2.12934 13.2395 1.91944 13.2395 1.6982C13.2395 1.47744 13.2263 1.30365 13.1998 1.17766C13.1735 1.05211 13.1339 0.93012 13.0816 0.811676C13.0289 0.693726 12.9519 0.602025 12.8504 0.537396C12.7489 0.472478 12.6231 0.421221 12.4728 0.382799C12.0743 0.291097 11.567 0.242109 10.9509 0.234062C9.55305 0.219411 8.65498 0.310824 8.25672 0.508837C8.09891 0.592945 7.95603 0.707098 7.82836 0.852079C7.69297 1.02005 7.6743 1.11171 7.77211 1.12636C8.22312 1.19507 8.54228 1.35925 8.73018 1.61838L8.7979 1.75552C8.85041 1.85502 8.90296 2.03034 8.95571 2.28188C9.00826 2.53346 9.04209 2.81178 9.05726 3.11689C9.09485 3.67354 9.09485 4.14992 9.05726 4.54673C9.01968 4.9435 8.9841 5.25216 8.95026 5.47291C8.91638 5.69416 8.86562 5.87323 8.79814 6.01037C8.73042 6.148 8.6854 6.23186 8.66275 6.2624C8.64009 6.2927 8.62142 6.31189 8.6065 6.31952C8.50868 6.35741 8.40737 6.3766 8.30211 6.3766C8.19681 6.3766 8.0691 6.32303 7.91878 6.21618C7.76841 6.10987 7.61235 5.96286 7.45105 5.77595C7.28926 5.58933 7.10729 5.32793 6.90417 4.99224C6.7013 4.65708 6.4907 4.26027 6.27291 3.80288L6.09269 3.47099C5.97995 3.25783 5.82584 2.9469 5.63045 2.53899C5.43506 2.13108 5.26205 1.73658 5.11197 1.35495C5.05173 1.19507 4.9616 1.07308 4.84142 0.988972L4.78517 0.954635C4.74759 0.924302 4.68735 0.89174 4.60471 0.857609C4.52182 0.823273 4.43571 0.798511 4.34534 0.783117L1.25659 0.805857C0.940981 0.805857 0.726924 0.878616 0.614182 1.02356L0.569117 1.09202C0.546341 1.1304 0.535156 1.19152 0.535156 1.27514C0.535156 1.35925 0.557811 1.46205 0.602875 1.58379C1.05389 2.65925 1.54427 3.69632 2.07394 4.69497C2.60389 5.69416 3.06414 6.49884 3.45491 7.10881C3.84569 7.71927 4.24395 8.29462 4.64993 8.83612C5.05592 9.37762 5.32448 9.72437 5.45589 9.8767C5.5873 10.0295 5.69061 10.144 5.76581 10.2199L6.04758 10.4947C6.2278 10.6776 6.4929 10.8968 6.84239 11.1524C7.19185 11.408 7.57868 11.6596 8.00358 11.9071C8.42799 12.1552 8.92232 12.3569 9.48582 12.5136C10.0494 12.6701 10.598 12.733 11.1316 12.7022H12.428C12.6911 12.6795 12.8901 12.5959 13.0254 12.4506L13.0704 12.3935C13.1003 12.3481 13.1286 12.2774 13.155 12.1821C13.1812 12.0869 13.1947 11.9818 13.1947 11.8677C13.1869 11.5399 13.2116 11.2438 13.2678 10.9812C13.3241 10.718 13.388 10.52 13.4595 10.3861C13.5309 10.253 13.6115 10.1404 13.7019 10.0487C13.792 9.95697 13.8557 9.90216 13.8936 9.88297C13.9311 9.86428 13.9613 9.85091 13.9837 9.84282C14.1639 9.7819 14.3762 9.84104 14.6207 10.0201C14.8648 10.1997 15.0941 10.4204 15.3084 10.6836C15.5224 10.9468 15.7798 11.242 16.0805 11.5701C16.381 11.8979 16.644 12.1419 16.8696 12.3021L17.0951 12.4397C17.2454 12.5309 17.4406 12.6148 17.6813 12.6913C17.9217 12.7673 18.1323 12.7865 18.3125 12.7484L21.1984 12.7024C21.4839 12.7024 21.7057 12.655 21.8635 12.5595C22.0213 12.4647 22.1152 12.3592 22.1453 12.245C22.1751 12.1306 22.1771 12.0016 22.151 11.8563C22.1247 11.7116 22.0983 11.6105 22.0722 11.5535C22.0458 11.4964 22.0213 11.4484 21.9987 11.4105C21.6229 10.7243 20.9052 9.8814 19.8456 8.88251L19.8229 8.85977L19.8117 8.84817L19.8005 8.83703H19.7892C19.3081 8.37179 19.0039 8.05909 18.8762 7.89871C18.6433 7.59414 18.5905 7.28524 18.7184 6.97258C18.808 6.73548 19.1461 6.23591 19.7322 5.47311Z" fill="white"/>
</svg>
