<svg width="18" height="18" viewBox="0 0 18 18" fill="none" xmlns="http://www.w3.org/2000/svg">
<path d="M15.3449 2.61905C14.5198 1.78559 13.537 1.12475 12.4538 0.6751C11.3706 0.225445 10.2087 -0.0040321 9.03592 5.36127e-05C4.12192 5.36127e-05 0.116922 4.00505 0.116922 8.91905C0.116922 10.4941 0.530922 12.0241 1.30492 13.3741L0.0449219 18.0001L4.76992 16.7581C6.07492 17.4691 7.54192 17.8471 9.03592 17.8471C13.9499 17.8471 17.9549 13.8421 17.9549 8.92805C17.9549 6.54305 17.0279 4.30205 15.3449 2.61905ZM9.03592 16.3351C7.70392 16.3351 6.39892 15.9751 5.25592 15.3001L4.98592 15.1381L2.17792 15.8761L2.92492 13.1401L2.74492 12.8611C2.00489 11.6793 1.61195 10.3134 1.61092 8.91905C1.61092 4.83305 4.94092 1.50305 9.02692 1.50305C11.0069 1.50305 12.8699 2.27705 14.2649 3.68105C14.9557 4.36862 15.503 5.18645 15.8754 6.08714C16.2477 6.98782 16.4375 7.95345 16.4339 8.92805C16.4519 13.0141 13.1219 16.3351 9.03592 16.3351ZM13.1039 10.7911C12.8789 10.6831 11.7809 10.1431 11.5829 10.0621C11.3759 9.99005 11.2319 9.95405 11.0789 10.1701C10.9259 10.3951 10.5029 10.8991 10.3769 11.0431C10.2509 11.1961 10.1159 11.2141 9.89092 11.0971C9.66592 10.9891 8.94592 10.7461 8.09992 9.99005C7.43392 9.39605 6.99292 8.66705 6.85792 8.44205C6.73192 8.21705 6.83992 8.10005 6.95692 7.98305C7.05592 7.88405 7.18192 7.72205 7.28992 7.59605C7.39792 7.47005 7.44292 7.37105 7.51492 7.22705C7.58692 7.07405 7.55092 6.94805 7.49692 6.84005C7.44292 6.73205 6.99292 5.63405 6.81292 5.18405C6.63292 4.75205 6.44392 4.80605 6.30892 4.79705H5.87692C5.72392 4.79705 5.48992 4.85105 5.28292 5.07605C5.08492 5.30105 4.50892 5.84105 4.50892 6.93905C4.50892 8.03705 5.30992 9.09905 5.41792 9.24305C5.52592 9.39605 6.99292 11.6461 9.22492 12.6091C9.75592 12.8431 10.1699 12.9781 10.4939 13.0771C11.0249 13.2481 11.5109 13.2211 11.8979 13.1671C12.3299 13.1041 13.2209 12.6271 13.4009 12.1051C13.5899 11.5831 13.5899 11.1421 13.5269 11.0431C13.4639 10.9441 13.3289 10.8991 13.1039 10.7911Z" fill="#212121"/>
</svg>
