<svg width="18" height="18" viewBox="0 0 18 18" fill="none" xmlns="http://www.w3.org/2000/svg">
<g clip-path="url(#clip0_167_762)">
<path d="M15.3 2.61905C14.4749 1.78559 13.4921 1.12475 12.4089 0.6751C11.3257 0.225445 10.1638 -0.0040321 8.991 5.36127e-05C4.077 5.36127e-05 0.0720001 4.00505 0.0720001 8.91905C0.0720001 10.4941 0.486 12.0241 1.26 13.3741L0 18.0001L4.725 16.7581C6.03 17.4691 7.497 17.8471 8.991 17.8471C13.905 17.8471 17.91 13.8421 17.91 8.92805C17.91 6.54305 16.983 4.30205 15.3 2.61905ZM8.991 16.3351C7.659 16.3351 6.354 15.9751 5.211 15.3001L4.941 15.1381L2.133 15.8761L2.88 13.1401L2.7 12.8611C1.95997 11.6793 1.56703 10.3134 1.566 8.91905C1.566 4.83305 4.896 1.50305 8.982 1.50305C10.962 1.50305 12.825 2.27705 14.22 3.68105C14.9107 4.36862 15.4581 5.18645 15.8305 6.08714C16.2028 6.98782 16.3926 7.95345 16.389 8.92805C16.407 13.0141 13.077 16.3351 8.991 16.3351ZM13.059 10.7911C12.834 10.6831 11.736 10.1431 11.538 10.0621C11.331 9.99005 11.187 9.95405 11.034 10.1701C10.881 10.3951 10.458 10.8991 10.332 11.0431C10.206 11.1961 10.071 11.2141 9.846 11.0971C9.621 10.9891 8.901 10.7461 8.055 9.99005C7.389 9.39605 6.948 8.66705 6.813 8.44205C6.687 8.21705 6.795 8.10005 6.912 7.98305C7.011 7.88405 7.137 7.72205 7.245 7.59605C7.353 7.47005 7.398 7.37105 7.47 7.22705C7.542 7.07405 7.506 6.94805 7.452 6.84005C7.398 6.73205 6.948 5.63405 6.768 5.18405C6.588 4.75205 6.399 4.80605 6.264 4.79705H5.832C5.679 4.79705 5.445 4.85105 5.238 5.07605C5.04 5.30105 4.464 5.84105 4.464 6.93905C4.464 8.03705 5.265 9.09905 5.373 9.24305C5.481 9.39605 6.948 11.6461 9.18 12.6091C9.711 12.8431 10.125 12.9781 10.449 13.0771C10.98 13.2481 11.466 13.2211 11.853 13.1671C12.285 13.1041 13.176 12.6271 13.356 12.1051C13.545 11.5831 13.545 11.1421 13.482 11.0431C13.419 10.9441 13.284 10.8991 13.059 10.7911Z" fill="#54CA60"/>
</g>
<defs>
<clipPath id="clip0_167_762">
<rect width="18" height="18" fill="white"/>
</clipPath>
</defs>
</svg>
