<svg width="16" height="16" viewBox="0 0 16 16" fill="none" xmlns="http://www.w3.org/2000/svg">
<path d="M13.6391 2.32805C12.9056 1.58719 12.032 0.999782 11.0692 0.600088C10.1063 0.200395 9.07355 -0.00358409 8.03106 4.76557e-05C3.66306 4.76557e-05 0.103063 3.56005 0.103063 7.92805C0.103063 9.32805 0.471063 10.688 1.15906 11.888L0.0390625 16L4.23906 14.896C5.39906 15.528 6.70306 15.864 8.03106 15.864C12.3991 15.864 15.9591 12.304 15.9591 7.93605C15.9591 5.81605 15.1351 3.82405 13.6391 2.32805ZM8.03106 14.52C6.84706 14.52 5.68706 14.2 4.67106 13.6L4.43106 13.456L1.93506 14.112L2.59906 11.68L2.43906 11.432C1.78126 10.3816 1.43197 9.16744 1.43106 7.92805C1.43106 4.29605 4.39106 1.33605 8.02306 1.33605C9.78306 1.33605 11.4391 2.02405 12.6791 3.27205C13.293 3.88322 13.7796 4.61018 14.1106 5.41079C14.4415 6.2114 14.6103 7.06973 14.6071 7.93605C14.6231 11.568 11.6631 14.52 8.03106 14.52ZM11.6471 9.59205C11.4471 9.49605 10.4711 9.01605 10.2951 8.94405C10.1111 8.88005 9.98306 8.84805 9.84706 9.04005C9.71106 9.24005 9.33506 9.68805 9.22306 9.81605C9.11106 9.95205 8.99106 9.96805 8.79106 9.86405C8.59106 9.76805 7.95106 9.55205 7.19906 8.88005C6.60706 8.35205 6.21506 7.70405 6.09506 7.50405C5.98306 7.30405 6.07906 7.20005 6.18306 7.09605C6.27106 7.00805 6.38306 6.86405 6.47906 6.75205C6.57506 6.64005 6.61506 6.55205 6.67906 6.42405C6.74306 6.28805 6.71106 6.17605 6.66306 6.08005C6.61506 5.98405 6.21506 5.00805 6.05506 4.60805C5.89506 4.22405 5.72706 4.27205 5.60706 4.26405H5.22306C5.08706 4.26405 4.87906 4.31205 4.69506 4.51205C4.51906 4.71205 4.00706 5.19205 4.00706 6.16805C4.00706 7.14405 4.71906 8.08805 4.81506 8.21605C4.91106 8.35205 6.21506 10.352 8.19906 11.208C8.67106 11.416 9.03906 11.536 9.32706 11.624C9.79906 11.776 10.2311 11.752 10.5751 11.704C10.9591 11.648 11.7511 11.224 11.9111 10.76C12.0791 10.296 12.0791 9.90405 12.0231 9.81605C11.9671 9.72805 11.8471 9.68805 11.6471 9.59205Z" fill="white"/>
</svg>
